<svg width="10" height="7" viewBox="0 0 10 7" fill="none" xmlns="http://www.w3.org/2000/svg">
<path d="M9.86523 0.126623C9.77848 0.044438 9.66169 -0.00108292 9.54042 1.95693e-05C9.41915 0.00112206 9.30327 0.0487579 9.21813 0.132505L3.3651 5.91698L0.776692 3.35909C0.690683 3.2788 0.575784 3.23421 0.456405 3.23477C0.337027 3.23533 0.22258 3.28101 0.13738 3.3621C0.0521793 3.44319 0.00294123 3.5533 0.000127547 3.66903C-0.00268614 3.78476 0.0411463 3.897 0.122311 3.98189L3.04074 6.86766C3.12593 6.95131 3.2418 6.99888 3.36304 6.99998C3.48427 7.00108 3.60104 6.95563 3.68784 6.87354C3.7092 6.8531 3.72856 6.83077 3.74567 6.80686L3.76185 6.79235L9.86887 0.752565C9.95354 0.66887 10.0007 0.556113 9.99999 0.438866C9.99931 0.32162 9.95087 0.209386 9.86523 0.126623Z" fill="#F4F4F4"/>
</svg>
