<svg width="148" height="48" viewBox="0 0 148 48" fill="none" xmlns="http://www.w3.org/2000/svg">
<path d="M65.6014 21.9744H62.2183V9.11621H70.7093V11.9797H65.6014V21.9744Z" fill="black"/>
<path d="M71.8865 22.1845C71.8202 22.1845 71.3337 22.1458 70.4658 22.0684V18.9782C70.7246 19.0303 70.9871 19.0618 71.2508 19.0722C71.5635 19.0815 71.8714 18.9941 72.1326 18.822C72.3937 18.6498 72.5955 18.4013 72.7102 18.1103C72.9992 17.4389 73.1568 16.7183 73.1746 15.9876C73.2372 15.0478 73.2685 13.6289 73.2685 11.731V9.11621H83.3185V21.9744H79.9354V11.9797H76.6185V14.003C76.6185 14.7825 76.6185 15.4071 76.6185 15.8659C76.6185 16.3248 76.5522 16.9218 76.4748 17.6404C76.4137 18.2915 76.2707 18.9323 76.0491 19.5476C75.8656 20.0565 75.5923 20.5283 75.2421 20.9407C74.505 21.7883 73.3994 22.2103 71.9252 22.2066" fill="black"/>
<path d="M89.6591 16.9992H92.7382L91.1959 11.941L89.6591 16.9992ZM97.6747 21.9744H94.1368L93.4845 19.7632H88.852L88.1831 21.9744H84.6064L89.1615 9.11621H93.2191L97.6747 21.9744Z" fill="black"/>
<path d="M102.324 19.3036H105.326C105.744 19.32 106.152 19.1778 106.47 18.9056C106.611 18.7794 106.722 18.6239 106.797 18.4502C106.871 18.2764 106.907 18.0884 106.901 17.8995C106.906 17.7187 106.871 17.5391 106.8 17.373C106.728 17.2069 106.621 17.0584 106.487 16.9376C106.206 16.6816 105.838 16.5448 105.458 16.5562H102.324V19.3036ZM105.132 11.791H102.324V14.3671H105.055C105.426 14.3706 105.787 14.2412 106.072 14.0022C106.205 13.8871 106.311 13.7432 106.381 13.5814C106.451 13.4196 106.483 13.2441 106.476 13.068C106.482 12.8928 106.45 12.7184 106.383 12.5564C106.317 12.3943 106.216 12.2483 106.089 12.1282C105.958 12.0059 105.804 11.9107 105.636 11.8481C105.468 11.7855 105.289 11.7567 105.11 11.7634L105.132 11.791ZM108.106 15.047C108.732 15.2312 109.277 15.6207 109.654 16.1526C110.041 16.7298 110.235 17.4151 110.207 18.1095C110.233 18.6441 110.136 19.1775 109.925 19.669C109.713 20.1605 109.392 20.5971 108.985 20.9454C108.171 21.6309 106.99 21.9737 105.442 21.9737H98.9629V9.11542H105.729C106.79 9.0451 107.837 9.39002 108.648 10.0773C108.981 10.3881 109.244 10.7663 109.419 11.1866C109.595 11.607 109.679 12.0599 109.665 12.5152C109.677 13.0593 109.535 13.5956 109.256 14.063C108.98 14.5067 108.572 14.8527 108.09 15.0525" fill="black"/>
<path d="M72.71 34.6615C73.0031 34.6726 73.2948 34.6148 73.5617 34.4929C73.8286 34.371 74.0632 34.1883 74.2468 33.9595C74.6546 33.431 74.8604 32.7743 74.8272 32.1076C74.8606 31.4383 74.6657 30.7776 74.2744 30.2336C74.0929 29.9981 73.8577 29.8095 73.5884 29.6836C73.3191 29.5576 73.0236 29.4979 72.7265 29.5094C72.2682 29.5354 71.8159 29.6266 71.3832 29.7803V34.4128C71.8139 34.5705 72.268 34.6546 72.7265 34.6615H72.71ZM65.4351 30.2391C65.043 30.7806 64.8479 31.4399 64.8823 32.1076C64.8487 32.7762 65.0588 33.4342 65.4738 33.9595C65.669 34.1905 65.9144 34.3739 66.1912 34.4955C66.4681 34.6172 66.7692 34.674 67.0714 34.6615C67.498 34.6562 67.9206 34.5776 68.3207 34.4294V29.8024C67.9008 29.6442 67.4587 29.5528 67.0106 29.5315C66.7126 29.5185 66.4157 29.5758 66.1439 29.6987C65.8722 29.8216 65.6331 30.0067 65.4461 30.2391H65.4351ZM73.4563 26.9942C74.0791 26.9762 74.6983 27.094 75.2711 27.3393C75.8438 27.5847 76.3563 27.9517 76.7731 28.4149C77.6519 29.4391 78.1084 30.7592 78.0501 32.1076C78.1043 33.442 77.6476 34.7468 76.7731 35.7561C76.3521 36.2244 75.8333 36.5944 75.2534 36.8399C74.6736 37.0854 74.0468 37.2005 73.4176 37.1768C72.7169 37.1526 72.0238 37.024 71.3611 36.7954V38.6307H68.2101V36.7954C67.5474 37.024 66.8543 37.1526 66.1537 37.1768C65.5262 37.1992 64.9015 37.0835 64.3236 36.8381C63.7457 36.5926 63.2288 36.2232 62.8092 35.7561C61.9287 34.7496 61.4677 33.4438 61.5212 32.1076C61.4652 30.7663 61.9218 29.4539 62.7982 28.437C63.2182 27.9671 63.7366 27.5956 64.3167 27.3491C64.8967 27.1026 65.5239 26.987 66.1537 27.0107C66.8546 27.0373 67.5476 27.1677 68.2101 27.3977V25.7725H71.3611V27.3977C72.0276 27.1585 72.7266 27.0224 73.4341 26.9942" fill="black"/>
<path d="M83.1475 33.4012L88.3549 25.7725H91.5611V38.6307H88.3162V30.9246L83.0093 38.6307H79.897V25.7725H83.1475V33.4012Z" fill="black"/>
<path d="M102.285 30.9412V25.7725H105.707V38.6307H102.285V34.0535H97.4424V38.6307H94.0205V25.7725H97.4424V30.9412H102.285Z" fill="black"/>
<path d="M112.07 33.6496H115.144L113.607 28.597L112.07 33.6496ZM120.086 38.6248H116.576L115.923 36.4136H111.291L110.617 38.6248H107.045L111.601 25.7666H115.653L120.086 38.6248Z" fill="black"/>
<path d="M129.671 30.9412V25.7725H133.093V38.6307H129.671V34.0535H124.829V38.6307H121.407V25.7725H124.829V30.9412H129.671Z" fill="black"/>
<path d="M141.523 38.8781C140.636 38.9061 139.752 38.7528 138.926 38.4278C138.1 38.1027 137.349 37.6126 136.719 36.9875C136.094 36.3674 135.602 35.6255 135.275 34.8077C134.948 33.99 134.792 33.1138 134.818 32.2334C134.792 31.3515 134.947 30.4736 135.272 29.6534C135.597 28.8332 136.086 28.0878 136.708 27.4627C137.338 26.8336 138.091 26.3403 138.919 26.0133C139.747 25.6862 140.633 25.5323 141.523 25.561C142.82 25.5424 144.096 25.8892 145.205 26.5616C146.25 27.187 147.067 28.1304 147.538 29.2537L144.635 30.7297C144.378 30.1155 143.943 29.592 143.386 29.2261C142.818 28.8509 142.149 28.658 141.468 28.6733C141.014 28.6607 140.562 28.7449 140.142 28.9203C139.723 29.0957 139.346 29.3582 139.036 29.6905C138.713 30.0319 138.461 30.4338 138.294 30.8731C138.127 31.3123 138.048 31.7803 138.063 32.2499C138.05 32.7179 138.13 33.1837 138.299 33.6203C138.468 34.0569 138.722 34.4555 139.047 34.7928C139.357 35.1267 139.735 35.3909 140.155 35.5682C140.576 35.7454 141.029 35.8316 141.484 35.8211C142.172 35.8353 142.848 35.6427 143.425 35.2683C143.995 34.8926 144.432 34.3472 144.674 33.7093L147.654 35.0748C147.185 36.2365 146.356 37.217 145.288 37.872C144.16 38.5763 142.853 38.9391 141.523 38.9168" fill="black"/>
<path d="M39.9622 47.9724H8.0212C5.89958 47.9724 3.86436 47.1318 2.36104 45.6347C0.857727 44.1376 0.00877306 42.1059 0 39.9843V8.01566C0.00146547 5.88927 0.847202 3.85046 2.35131 2.34739C3.85541 0.844324 5.8948 -5.04986e-07 8.0212 0H39.9622C42.0881 0 44.1269 0.844503 45.6302 2.34773C47.1334 3.85096 47.9779 5.88978 47.9779 8.01566V39.9843C47.9779 42.1102 47.1334 44.149 45.6302 45.6523C44.1269 47.1555 42.0881 48 39.9622 48" fill="#164194"/>
<path d="M23.9917 23.9863V47.9725H39.9567C42.0783 47.9725 44.1135 47.132 45.6168 45.6349C47.1202 44.1378 47.9691 42.1061 47.9779 39.9845V23.9863H23.9917Z" fill="#009FE3"/>
</svg>
