<svg width="448" height="336" viewBox="0 0 448 336" fill="none" xmlns="http://www.w3.org/2000/svg">
<path d="M254 82H416V87H254V82Z" fill="#C4C4C4"/>
<path d="M0 29.3654C0 16.461 10.4467 6 23.3333 6H424.667C437.553 6 448 16.461 448 29.3654V306.635C448 319.539 437.553 330 424.667 330H23.3333C10.4467 330 0 319.539 0 306.635V29.3654Z" fill="#E8E4EC"/>
<path d="M270.614 300.854C271.761 300.854 272.703 301.211 273.439 301.926C274.188 302.641 274.562 303.569 274.562 304.711C274.562 305.965 274.113 306.993 273.215 307.796C272.316 308.599 271.156 309 269.734 309C268.487 309 267.426 308.668 266.553 308.003C265.692 307.338 265.175 306.423 265 305.256L266.965 304.823C267.077 305.538 267.389 306.109 267.9 306.535C268.412 306.949 269.029 307.156 269.753 307.156C270.501 307.156 271.125 306.918 271.624 306.441C272.136 305.952 272.391 305.35 272.391 304.635C272.391 303.933 272.148 303.35 271.662 302.886C271.188 302.422 270.576 302.19 269.828 302.19C269.154 302.19 268.524 302.397 267.938 302.81L267.077 301.588L271.269 298.051H265.786V296.226H273.907V297.9L270.389 300.854H270.614Z" fill="#C4C4C4"/>
<path d="M283.828 304.767L281.358 306.931H287.196V308.812H278.289V307.156L282.593 303.224C282.618 303.199 282.774 303.061 283.061 302.81C283.36 302.547 283.547 302.378 283.622 302.302C283.697 302.227 283.84 302.07 284.052 301.832C284.264 301.594 284.408 301.406 284.483 301.268C284.558 301.117 284.632 300.929 284.707 300.703C284.795 300.478 284.838 300.252 284.838 300.026C284.838 299.386 284.626 298.866 284.202 298.465C283.778 298.063 283.241 297.863 282.593 297.863C281.932 297.863 281.376 298.101 280.927 298.577C280.491 299.041 280.254 299.656 280.216 300.421L278.195 300.195C278.245 298.929 278.688 297.913 279.524 297.148C280.36 296.383 281.414 296 282.686 296C283.959 296 284.994 296.37 285.793 297.11C286.591 297.85 286.99 298.784 286.99 299.913C286.99 300.427 286.903 300.917 286.728 301.381C286.553 301.832 286.267 302.29 285.867 302.754C285.468 303.218 285.156 303.557 284.932 303.77C284.72 303.971 284.352 304.303 283.828 304.767Z" fill="#C4C4C4"/>
<path d="M296.854 297.11L300.503 296.207H301.944V308.793H299.773V298.333L296.854 298.991V297.11Z" fill="#C4C4C4"/>
<path d="M312.175 304.767L309.705 306.931H315.544V308.812H306.637V307.156L310.94 303.224C310.965 303.199 311.121 303.061 311.408 302.81C311.708 302.547 311.895 302.378 311.97 302.302C312.044 302.227 312.188 302.07 312.4 301.832C312.612 301.594 312.755 301.406 312.83 301.268C312.905 301.117 312.98 300.929 313.055 300.703C313.142 300.478 313.186 300.252 313.186 300.026C313.186 299.386 312.974 298.866 312.55 298.465C312.125 298.063 311.589 297.863 310.94 297.863C310.279 297.863 309.724 298.101 309.275 298.577C308.838 299.041 308.601 299.656 308.564 300.421L306.543 300.195C306.593 298.929 307.036 297.913 307.872 297.148C308.707 296.383 309.761 296 311.034 296C312.306 296 313.342 296.37 314.14 297.11C314.939 297.85 315.338 298.784 315.338 299.913C315.338 300.427 315.25 300.917 315.076 301.381C314.901 301.832 314.614 302.29 314.215 302.754C313.816 303.218 313.504 303.557 313.279 303.77C313.067 303.971 312.699 304.303 312.175 304.767Z" fill="#C4C4C4"/>
<path d="M337.729 297.11L341.377 296.207H342.818V308.793H340.648V298.333L337.729 298.991V297.11Z" fill="#C4C4C4"/>
<path d="M355.258 302.114C356.019 302.365 356.612 302.773 357.036 303.337C357.472 303.902 357.691 304.535 357.691 305.237C357.691 306.341 357.217 307.244 356.268 307.946C355.333 308.649 354.098 309 352.563 309C351.041 309 349.806 308.649 348.858 307.946C347.923 307.244 347.455 306.341 347.455 305.237C347.455 304.535 347.667 303.908 348.091 303.356C348.528 302.792 349.133 302.378 349.906 302.114C349.307 301.863 348.833 301.506 348.484 301.042C348.147 300.578 347.979 300.045 347.979 299.443C347.979 298.452 348.409 297.63 349.27 296.978C350.131 296.326 351.222 296 352.545 296C353.892 296 354.996 296.326 355.857 296.978C356.73 297.63 357.167 298.458 357.167 299.462C357.167 300.678 356.53 301.562 355.258 302.114ZM354.379 298.239C353.892 297.863 353.287 297.674 352.563 297.674C351.84 297.674 351.235 297.863 350.748 298.239C350.274 298.615 350.037 299.085 350.037 299.65C350.037 300.202 350.268 300.666 350.73 301.042C351.204 301.406 351.79 301.588 352.489 301.588C353.225 301.588 353.842 301.399 354.341 301.023C354.853 300.647 355.108 300.177 355.108 299.612C355.108 299.06 354.865 298.603 354.379 298.239ZM352.563 307.269C353.387 307.269 354.06 307.068 354.584 306.667C355.121 306.253 355.389 305.726 355.389 305.087C355.389 304.46 355.127 303.952 354.603 303.563C354.079 303.162 353.405 302.961 352.582 302.961C351.759 302.961 351.085 303.162 350.561 303.563C350.037 303.952 349.775 304.466 349.775 305.106C349.775 305.72 350.037 306.234 350.561 306.648C351.085 307.062 351.753 307.269 352.563 307.269Z" fill="#C4C4C4"/>
<path d="M366.014 296C367.424 296 368.59 296.433 369.513 297.298C370.436 298.164 370.898 299.248 370.898 300.553C370.898 300.992 370.842 301.412 370.73 301.813C370.63 302.215 370.455 302.629 370.206 303.055C369.969 303.469 369.769 303.795 369.607 304.033C369.445 304.272 369.189 304.623 368.84 305.087L366.051 308.793H363.525L366.819 304.428C366.419 304.566 365.977 304.635 365.49 304.635C364.255 304.635 363.226 304.24 362.403 303.45C361.579 302.66 361.168 301.663 361.168 300.459C361.168 299.192 361.629 298.132 362.552 297.279C363.475 296.426 364.629 296 366.014 296ZM363.319 300.44C363.319 301.205 363.575 301.838 364.087 302.34C364.611 302.842 365.253 303.093 366.014 303.093C366.775 303.093 367.411 302.848 367.923 302.359C368.434 301.857 368.69 301.224 368.69 300.459C368.69 299.694 368.434 299.06 367.923 298.559C367.411 298.044 366.775 297.787 366.014 297.787C365.266 297.787 364.629 298.044 364.105 298.559C363.581 299.06 363.319 299.687 363.319 300.44Z" fill="#C4C4C4"/>
<path d="M382.395 304.146H384.042V305.915H382.395V308.793H380.281V305.915H373.769V304.334L379.551 296.207H382.395V304.146ZM380.281 297.994L376.052 304.146H380.281V297.994Z" fill="#C4C4C4"/>
<path d="M393.148 304.767L390.678 306.931H396.516V308.812H387.609V307.156L391.913 303.224C391.937 303.199 392.093 303.061 392.38 302.81C392.68 302.547 392.867 302.378 392.942 302.302C393.017 302.227 393.16 302.07 393.372 301.832C393.584 301.594 393.728 301.406 393.802 301.268C393.877 301.117 393.952 300.929 394.027 300.703C394.114 300.478 394.158 300.252 394.158 300.026C394.158 299.386 393.946 298.866 393.522 298.465C393.098 298.063 392.561 297.863 391.913 297.863C391.251 297.863 390.696 298.101 390.247 298.577C389.811 299.041 389.573 299.656 389.536 300.421L387.515 300.195C387.565 298.929 388.008 297.913 388.844 297.148C389.68 296.383 390.734 296 392.006 296C393.279 296 394.314 296.37 395.112 297.11C395.911 297.85 396.31 298.784 396.31 299.913C396.31 300.427 396.223 300.917 396.048 301.381C395.873 301.832 395.586 302.29 395.187 302.754C394.788 303.218 394.476 303.557 394.252 303.77C394.039 303.971 393.671 304.303 393.148 304.767Z" fill="#C4C4C4"/>
<path d="M399.91 297.11L403.559 296.207H405V308.793H402.829V298.333L399.91 298.991V297.11Z" fill="#C4C4C4"/>
<g filter="url(#filter0_d_323_471)">
<path fill-rule="evenodd" clip-rule="evenodd" d="M225 330L225 6L226 6L226 330L225 330Z" fill="#E8E4EC"/>
</g>
<path d="M274.368 30.8632L277.877 25H278.761V33.8544H277.865V26.6809L274.692 31.9618H274.057L270.896 26.6941V33.8544H270V25H270.871L274.368 30.8632Z" fill="#680606"/>
<path d="M287.708 30.5456C287.708 30.7221 287.699 30.8897 287.683 31.0485L282.456 31.0485C282.523 31.675 282.763 32.1912 283.178 32.5971C283.593 33.0029 284.103 33.2059 284.709 33.2059C285.14 33.2059 285.534 33.1 285.891 32.8882C286.248 32.6676 286.517 32.3721 286.7 32.0015L287.422 32.3721C287.206 32.8662 286.849 33.2632 286.351 33.5632C285.854 33.8544 285.298 34 284.684 34C283.771 34 283.02 33.6868 282.431 33.0603C281.851 32.4338 281.56 31.6441 281.56 30.6912C281.56 29.7382 281.855 28.9529 282.444 28.3353C283.041 27.7088 283.792 27.3956 284.696 27.3956C285.567 27.3956 286.285 27.6956 286.849 28.2956C287.422 28.8868 287.708 29.6368 287.708 30.5456ZM284.684 28.1632C284.103 28.1632 283.601 28.3662 283.178 28.7721C282.763 29.1691 282.523 29.6765 282.456 30.2941L286.824 30.2941C286.774 29.6765 286.546 29.1691 286.14 28.7721C285.742 28.3662 285.256 28.1632 284.684 28.1632Z" fill="#680606"/>
<path d="M293.086 34C292.19 34 291.447 33.6912 290.858 33.0735C290.269 32.4471 289.975 31.6574 289.975 30.7044C289.975 29.7426 290.274 28.9485 290.871 28.3221C291.468 27.6956 292.223 27.3824 293.136 27.3824C293.824 27.3824 294.426 27.5676 294.94 27.9382C295.463 28.3088 295.824 28.8074 296.023 29.4338L295.177 29.7118C295.027 29.2794 294.762 28.9309 294.38 28.6662C294.007 28.3926 293.592 28.2559 293.136 28.2559C292.48 28.2559 291.941 28.4853 291.518 28.9441C291.095 29.4029 290.883 29.9853 290.883 30.6912C290.883 31.3971 291.095 31.9794 291.518 32.4382C291.941 32.8971 292.476 33.1265 293.123 33.1265C293.58 33.1265 293.999 32.9897 294.38 32.7162C294.762 32.4426 295.036 32.0897 295.202 31.6574L296.01 32.0412C295.795 32.6147 295.421 33.0868 294.89 33.4574C294.368 33.8191 293.766 34 293.086 34Z" fill="#680606"/>
<path d="M297.799 27.5147L303.262 27.5147V28.4147L300.997 28.4147V33.8544H300.064V28.4147H297.799V27.5147Z" fill="#680606"/>
<path d="M308.154 34C307.258 34 306.507 33.6868 305.901 33.0603C305.304 32.425 305.005 31.6353 305.005 30.6912C305.005 29.7471 305.304 28.9618 305.901 28.3353C306.499 27.7 307.249 27.3824 308.154 27.3824C309.058 27.3824 309.809 27.7 310.406 28.3353C311.004 28.9618 311.302 29.7471 311.302 30.6912C311.302 31.6441 311.004 32.4338 310.406 33.0603C309.809 33.6868 309.058 34 308.154 34ZM306.561 32.4382C306.992 32.8971 307.527 33.1265 308.166 33.1265C308.805 33.1265 309.336 32.8926 309.759 32.425C310.191 31.9574 310.406 31.3794 310.406 30.6912C310.406 29.9941 310.191 29.4162 309.759 28.9574C309.336 28.4897 308.805 28.2559 308.166 28.2559C307.527 28.2559 306.992 28.4897 306.561 28.9574C306.129 29.4162 305.914 29.9941 305.914 30.6912C305.914 31.3882 306.129 31.9706 306.561 32.4382Z" fill="#680606"/>
<path d="M323.144 30.7441L326.467 33.8544H325.259L322.26 31.0221V33.8544H321.402V31.0353L318.415 33.8544H317.195L320.555 30.7706L317.307 27.5147H318.415L321.402 30.5456V27.5147H322.26V30.5721L325.247 27.5147H326.355L323.144 30.7441Z" fill="#680606"/>
<path d="M329.636 33.8544H328.802V27.5147H329.673V32.5176L333.668 27.5147H334.489V33.8544H333.618V28.8647L329.636 33.8544Z" fill="#680606"/>
<path d="M336.919 27.5147H342.383V28.4147H340.118V33.8544H339.184V28.4147H336.919V27.5147Z" fill="#680606"/>
<path d="M350.286 30.5456C350.286 30.7221 350.277 30.8897 350.261 31.0485H345.034C345.1 31.675 345.341 32.1912 345.756 32.5971C346.171 33.0029 346.681 33.2059 347.286 33.2059C347.718 33.2059 348.112 33.1 348.469 32.8882C348.825 32.6676 349.095 32.3721 349.278 32.0015L349.999 32.3721C349.784 32.8662 349.427 33.2632 348.929 33.5632C348.431 33.8544 347.876 34 347.262 34C346.349 34 345.598 33.6868 345.009 33.0603C344.428 32.4338 344.138 31.6441 344.138 30.6912C344.138 29.7382 344.433 28.9529 345.022 28.3353C345.619 27.7088 346.37 27.3956 347.274 27.3956C348.145 27.3956 348.863 27.6956 349.427 28.2956C349.999 28.8868 350.286 29.6368 350.286 30.5456ZM347.262 28.1632C346.681 28.1632 346.179 28.3662 345.756 28.7721C345.341 29.1691 345.1 29.6765 345.034 30.2941H349.402C349.352 29.6765 349.124 29.1691 348.718 28.7721C348.319 28.3662 347.834 28.1632 347.262 28.1632Z" fill="#680606"/>
<path d="M352.607 33.9868C352.358 33.9868 352.159 33.9603 352.01 33.9074V33.0338C352.151 33.0779 352.304 33.1 352.47 33.1C352.819 33.1 353.08 32.9632 353.254 32.6897C353.47 32.3632 353.578 31.4765 353.578 30.0294V29.5662V27.5147H358.269V33.8544H357.324V28.4147H354.461V30.3471C354.461 31.8382 354.329 32.8 354.063 33.2324C353.748 33.7353 353.263 33.9868 352.607 33.9868Z" fill="#680606"/>
<path d="M362.324 29.4338H364.937C365.543 29.4338 366.044 29.6412 366.443 30.0559C366.849 30.4706 367.052 30.9912 367.052 31.6176C367.052 32.2618 366.849 32.7956 366.443 33.2191C366.044 33.6426 365.534 33.8544 364.912 33.8544H361.44V27.5147H362.324V29.4338ZM362.324 33.0603H364.788C365.178 33.0603 365.501 32.9235 365.758 32.65C366.024 32.3765 366.156 32.0279 366.156 31.6044C366.156 31.1985 366.028 30.8632 365.771 30.5985C365.514 30.325 365.19 30.1882 364.8 30.1882H362.324V33.0603Z" fill="#680606"/>
<path d="M372.274 34C371.378 34 370.636 33.6912 370.047 33.0735C369.458 32.4471 369.163 31.6574 369.163 30.7044C369.163 29.7426 369.462 28.9485 370.059 28.3221C370.657 27.6956 371.412 27.3824 372.324 27.3824C373.013 27.3824 373.614 27.5676 374.129 27.9382C374.651 28.3088 375.012 28.8074 375.211 29.4338L374.365 29.7118C374.216 29.2794 373.95 28.9309 373.569 28.6662C373.195 28.3926 372.781 28.2559 372.324 28.2559C371.669 28.2559 371.13 28.4853 370.706 28.9441C370.283 29.4029 370.072 29.9853 370.072 30.6912C370.072 31.3971 370.283 31.9794 370.706 32.4382C371.13 32.8971 371.665 33.1265 372.312 33.1265C372.768 33.1265 373.187 32.9897 373.569 32.7162C373.95 32.4426 374.224 32.0897 374.39 31.6574L375.199 32.0412C374.983 32.6147 374.61 33.0868 374.079 33.4574C373.556 33.8191 372.955 34 372.274 34Z" fill="#680606"/>
<path d="M376.988 27.5147H382.451V28.4147H380.186V33.8544H379.253V28.4147H376.988V27.5147Z" fill="#680606"/>
<path d="M389.453 30.5456C389.768 30.6603 390.013 30.8544 390.187 31.1279C390.37 31.4015 390.461 31.7103 390.461 32.0544C390.461 32.575 390.287 33.0074 389.938 33.3515C389.59 33.6868 389.117 33.8544 388.52 33.8544L384.873 33.8544V27.5147H388.557C389.021 27.5147 389.411 27.6779 389.727 28.0044C390.042 28.3221 390.2 28.7235 390.2 29.2088C390.2 29.7912 389.951 30.2368 389.453 30.5456ZM388.345 28.3088H385.807V30.2412H388.296C388.586 30.2412 388.822 30.1485 389.005 29.9632C389.187 29.7779 389.279 29.5441 389.279 29.2618C389.279 28.9882 389.196 28.7632 389.03 28.5868C388.864 28.4015 388.636 28.3088 388.345 28.3088ZM385.807 33.0603L388.345 33.0603C388.735 33.0603 389.026 32.9632 389.216 32.7691C389.416 32.5662 389.515 32.3103 389.515 32.0015C389.515 31.7103 389.42 31.4676 389.229 31.2735C389.046 31.0706 388.802 30.9691 388.495 30.9691H385.807V33.0603Z" fill="#680606"/>
<path d="M398.129 28.7588V27.5147H399V33.8544H398.129V32.6103C397.573 33.5368 396.785 34 395.764 34C394.926 34 394.225 33.6868 393.661 33.0603C393.105 32.4338 392.827 31.6441 392.827 30.6912C392.827 29.7382 393.105 28.9485 393.661 28.3221C394.225 27.6956 394.931 27.3824 395.777 27.3824C396.283 27.3824 396.735 27.5059 397.133 27.7529C397.54 28 397.872 28.3353 398.129 28.7588ZM394.371 32.4382C394.785 32.8971 395.304 33.1265 395.926 33.1265C396.548 33.1265 397.067 32.8926 397.482 32.425C397.905 31.9485 398.116 31.3618 398.116 30.6647C398.116 29.9853 397.905 29.4162 397.482 28.9574C397.067 28.4897 396.553 28.2559 395.939 28.2559C395.316 28.2559 394.794 28.4897 394.371 28.9574C393.956 29.4162 393.748 29.9941 393.748 30.6912C393.748 31.3882 393.956 31.9706 394.371 32.4382Z" fill="#680606"/>
<path fill-rule="evenodd" clip-rule="evenodd" d="M426.449 57.5588H246.551V160.441H426.449V57.5588ZM245 56V162H428V56H245Z" fill="#BEBEBE"/>
<path d="M285 67H387V72H285V67Z" fill="#C4C4C4"/>
<path d="M275 78H396V82H275V78Z" fill="#C4C4C4"/>
<path d="M255 89H417V93H255V89Z" fill="#C4C4C4"/>
<path d="M255 99H417V104H255V99Z" fill="#C4C4C4"/>
<path d="M255 110H417V115H255V110Z" fill="#C4C4C4"/>
<path d="M255 121H417V125H255V121Z" fill="#C4C4C4"/>
<path d="M255 143H417V148H255V143Z" fill="#C4C4C4"/>
<path d="M255 132H417V136H255V132Z" fill="#C4C4C4"/>
<path d="M117.114 174.496H119V177.3H117.114V180H113.342V177.3H106V174.873L112.152 166H117.114V174.496ZM113.342 169.034L109.66 174.496H113.342V169.034Z" fill="#ADADAD"/>
<path d="M145 174C145 191.121 131.121 205 114 205C96.8792 205 83 191.121 83 174C83 156.879 96.8792 143 114 143C131.121 143 145 156.879 145 174Z" fill="#C4C4C4" fill-opacity="0.24"/>
<path d="M254 93H416V98H254V93Z" fill="#C4C4C4"/>
<defs>
<filter id="filter0_d_323_471" x="219" y="0" width="13" height="336" filterUnits="userSpaceOnUse" color-interpolation-filters="sRGB">
<feFlood flood-opacity="0" result="BackgroundImageFix"/>
<feColorMatrix in="SourceAlpha" type="matrix" values="0 0 0 0 0 0 0 0 0 0 0 0 0 0 0 0 0 0 127 0" result="hardAlpha"/>
<feOffset/>
<feGaussianBlur stdDeviation="3"/>
<feComposite in2="hardAlpha" operator="out"/>
<feColorMatrix type="matrix" values="0 0 0 0 0 0 0 0 0 0 0 0 0 0 0 0 0 0 0.25 0"/>
<feBlend mode="normal" in2="BackgroundImageFix" result="effect1_dropShadow_323_471"/>
<feBlend mode="normal" in="SourceGraphic" in2="effect1_dropShadow_323_471" result="shape"/>
</filter>
</defs>
</svg>
