<svg width="421" height="389" viewBox="0 0 421 389" fill="none" xmlns="http://www.w3.org/2000/svg">
<g clip-path="url(#clip0_53_5605)">
<path d="M60.5337 223.105L24.5391 217.245C24.5391 217.245 19.0628 222.117 21.444 228.16C22.8745 231.792 25.3657 244.646 27.129 254.327C28.4833 261.769 28.1193 269.424 26.0598 276.703L7.55178 342.162C7.55178 342.162 1.29688 365.337 1.29688 374.34C1.29688 383.344 2.07839 402.833 9.1148 411.885C16.1512 420.936 44.0401 400.395 48.2101 383.347C52.38 366.296 56.8462 287.745 59.1653 279.396C59.8735 276.844 57.3428 274.581 53.4916 272.67C56.0534 268.366 60.3531 259.921 60.3531 251.75C60.3531 240.113 60.5337 223.105 60.5337 223.105Z" fill="#FFD7BA"/>
<path d="M392.243 333.758C390.366 316.863 380.046 302.137 364.927 294.775L258.295 248.659H230.926L124.294 294.775C109.175 302.137 98.8556 316.863 96.9785 333.758L90.8477 388.935H244.611H398.373L392.243 333.758Z" fill="#2256A6"/>
<path d="M56.2415 312.676C58.7355 316.847 55.7393 339.655 60.4594 342.108C65.2077 344.575 70.7008 345.123 76.0473 345.298C85.0868 345.591 94.1574 344.936 103.059 343.342C107.361 350.372 110.05 358.385 110.863 366.59C110.97 367.688 111.046 368.809 110.795 369.884C110.513 371.092 109.836 372.167 109.108 373.169C104.001 380.217 120.991 400.846 113.69 405.577C105.657 410.781 78.0815 436.72 70.0209 441.879C53.6882 452.334 37.0987 449.311 14.1471 445.405C1.17743 445.405 -0.66208 424.106 -1.55362 415.041C-3.40724 396.195 -1.62698 377.129 2.52885 358.696C4.63357 349.359 6.03295 340.163 9.22389 331.143C12.1806 322.774 15.2672 314.708 17.5102 306.102C19.3497 299.032 54.7321 310.149 56.2415 312.676Z" fill="#2256A6"/>
<path d="M54.8295 411.569C50.3408 423.383 85.0855 368.193 87.1451 357.829C89.2019 347.465 89.2019 347.465 89.2019 347.465H54.8295C54.8295 347.465 59.3183 399.754 54.8295 411.569Z" fill="#1F4C8C"/>
<path d="M179.733 231.21H51.8164V363.939H179.733V231.21Z" fill="#FFF3FF"/>
<path d="M277.78 257.101L272.07 255.994H214.531L213.702 256.158L197.496 263.076L228.093 387.171H244.638H260.079L293.187 263.677L277.78 257.101Z" fill="#00C0F2"/>
<path d="M214.16 217.744V256.694C214.16 262.127 227.807 266.53 244.639 266.53C245.02 266.53 245.401 266.528 245.779 266.522L245.804 266.53L245.83 266.522C262.112 266.322 275.121 261.998 275.121 256.694V217.744H214.16Z" fill="#FFD7BA"/>
<path d="M214.16 234.95C217.853 240.296 229.294 243.327 233.656 244.414C244.961 247.231 257.623 247.211 268.347 242.198C270.135 241.363 272.593 240.053 275.118 238.416V220.508H214.16V234.95Z" fill="#FFA69F"/>
<path d="M266.857 78.8369H226.67C206.768 78.8369 190.969 106.26 192.123 126.136L192.89 139.362C192.918 139.827 192.537 140.203 192.072 140.2C192.069 140.2 192.066 140.2 192.063 140.2C182.73 140.2 182.73 148.221 182.73 158.114C182.73 168.007 186.909 176.028 192.063 176.028C192.71 176.028 193.339 175.901 193.948 175.661C194.453 175.461 195.006 175.808 195.037 176.35L195.573 185.568C196.197 196.336 200.536 206.553 207.846 214.479L226.777 235.004C226.805 235.035 226.836 235.063 226.867 235.088C238.469 244.496 255.067 244.496 266.668 235.088C266.699 235.063 266.73 235.035 266.758 235.004L285.689 214.479C293 206.553 297.336 196.336 297.962 185.568L301.41 126.139C302.558 106.26 286.756 78.8369 266.857 78.8369Z" fill="#FFD7BA"/>
<path d="M260.112 152.165C259.748 151.976 259.632 151.516 259.858 151.174C263.847 145.182 271.637 141.095 278.848 143.703C284.584 145.778 287.546 147.621 287.549 147.623C287.628 148.196 285.12 149.788 284.711 150.079C277.753 154.987 267.741 156.142 260.112 152.165Z" fill="#FFFFFE"/>
<path d="M272.737 153.85C276.576 153.85 279.689 150.736 279.689 146.895C279.689 143.054 276.576 139.94 272.737 139.94C268.898 139.94 265.785 143.054 265.785 146.895C265.785 150.736 268.898 153.85 272.737 153.85Z" fill="#723C36"/>
<path d="M272.735 150.409C274.675 150.409 276.248 148.836 276.248 146.895C276.248 144.954 274.675 143.381 272.735 143.381C270.795 143.381 269.223 144.954 269.223 146.895C269.223 148.836 270.795 150.409 272.735 150.409Z" fill="#0F0B0A"/>
<path d="M275.184 146.76C276.446 146.76 277.469 145.736 277.469 144.474C277.469 143.211 276.446 142.188 275.184 142.188C273.922 142.188 272.898 143.211 272.898 144.474C272.898 145.736 273.922 146.76 275.184 146.76Z" fill="#FFF8FA"/>
<path d="M272.682 149.124C273.296 149.124 273.794 148.627 273.794 148.012C273.794 147.398 273.296 146.9 272.682 146.9C272.068 146.9 271.57 147.398 271.57 148.012C271.57 148.627 272.068 149.124 272.682 149.124Z" fill="#FFF8FA"/>
<path d="M260.734 149.969C261.4 148.868 262.153 147.81 263.014 146.831C263.44 146.337 263.9 145.871 264.368 145.414C264.851 144.968 265.356 144.544 265.883 144.141C267.988 142.543 270.586 141.426 273.332 141.222C274.697 141.115 276.08 141.222 277.414 141.513C278.083 141.651 278.732 141.852 279.375 142.072C279.987 142.295 280.597 142.512 281.198 142.752C282.405 143.229 283.601 143.737 284.775 144.299C285.362 144.581 285.946 144.869 286.521 145.179C286.809 145.335 287.097 145.493 287.382 145.656L287.811 145.908L288.025 146.037L288.271 146.193L288.626 146.419L288.668 146.828C288.699 147.133 288.643 147.316 288.601 147.466C288.553 147.612 288.496 147.731 288.443 147.838C288.33 148.05 288.214 148.219 288.096 148.383C287.856 148.705 287.608 148.981 287.351 149.247C286.835 149.772 286.282 150.234 285.712 150.666C284.566 151.516 283.339 152.244 282.035 152.794C281.387 153.074 280.724 153.308 280.055 153.52C279.383 153.72 278.706 153.878 278.029 154.025C276.669 154.299 275.301 154.468 273.933 154.561C275.253 154.177 276.562 153.782 277.835 153.328C278.469 153.096 279.098 152.851 279.708 152.574C280.32 152.303 280.921 152.015 281.494 151.688C282.642 151.033 283.728 150.277 284.721 149.427C285.215 149.004 285.681 148.547 286.098 148.075C286.307 147.841 286.502 147.598 286.66 147.361C286.736 147.245 286.806 147.127 286.849 147.034C286.868 146.989 286.883 146.949 286.885 146.932C286.891 146.921 286.868 146.932 286.88 147.065L287.278 147.7L286.499 147.285C286.222 147.144 285.943 147.003 285.664 146.867C285.099 146.596 284.53 146.334 283.957 146.074C282.806 145.566 281.643 145.081 280.467 144.626C279.88 144.4 279.287 144.172 278.698 143.957C278.131 143.757 277.558 143.579 276.977 143.438C275.814 143.161 274.627 143.023 273.439 143.06C272.248 143.091 271.066 143.305 269.909 143.652C269.334 143.836 268.767 144.053 268.211 144.304C267.661 144.567 267.111 144.844 266.575 145.154C266.044 145.47 265.522 145.812 265.017 146.181C264.509 146.548 264.007 146.927 263.527 147.339C262.551 148.157 261.634 149.046 260.734 149.969Z" fill="#190901"/>
<path d="M232.064 152.165C232.428 151.976 232.544 151.516 232.318 151.174C228.329 145.182 220.539 141.095 213.328 143.703C207.592 145.778 204.63 147.621 204.627 147.623C204.548 148.196 207.056 149.788 207.465 150.079C214.425 154.987 224.438 156.142 232.064 152.165Z" fill="#FFFFFE"/>
<path d="M219.436 153.85C223.275 153.85 226.388 150.736 226.388 146.895C226.388 143.054 223.275 139.94 219.436 139.94C215.597 139.94 212.484 143.054 212.484 146.895C212.484 150.736 215.597 153.85 219.436 153.85Z" fill="#723C36"/>
<path d="M219.434 150.409C221.374 150.409 222.947 148.836 222.947 146.895C222.947 144.954 221.374 143.381 219.434 143.381C217.495 143.381 215.922 144.954 215.922 146.895C215.922 148.836 217.495 150.409 219.434 150.409Z" fill="#0F0B0A"/>
<path d="M216.992 146.76C218.254 146.76 219.278 145.736 219.278 144.474C219.278 143.211 218.254 142.188 216.992 142.188C215.73 142.188 214.707 143.211 214.707 144.474C214.707 145.736 215.73 146.76 216.992 146.76Z" fill="#FFF8FA"/>
<path d="M219.491 149.124C220.104 149.124 220.602 148.627 220.602 148.012C220.602 147.398 220.104 146.9 219.491 146.9C218.877 146.9 218.379 147.398 218.379 148.012C218.379 148.627 218.877 149.124 219.491 149.124Z" fill="#FFF8FA"/>
<path d="M232.094 150.502C230.401 148.479 228.395 146.797 226.192 145.518C225.086 144.891 223.935 144.358 222.744 143.968C221.554 143.582 220.332 143.325 219.105 143.223C217.878 143.125 216.65 143.187 215.457 143.415C214.862 143.539 214.272 143.683 213.699 143.887C213.417 143.974 213.104 144.104 212.802 144.211L211.896 144.558C210.689 145.021 209.495 145.518 208.313 146.037C207.726 146.303 207.14 146.571 206.561 146.847C206.273 146.988 205.986 147.13 205.703 147.276L204.902 147.703L205.3 147.068C205.311 146.938 205.289 146.924 205.294 146.932C205.297 146.943 205.306 146.977 205.325 147.022C205.362 147.107 205.424 147.22 205.498 147.33C205.644 147.553 205.828 147.784 206.022 148.01C206.417 148.462 206.855 148.902 207.323 149.311C208.26 150.133 209.278 150.85 210.376 151.471C210.923 151.781 211.493 152.063 212.077 152.317C212.658 152.583 213.253 152.82 213.86 153.037C215.073 153.475 216.326 153.841 217.587 154.197C216.278 154.135 214.966 153.999 213.665 153.743C212.365 153.491 211.07 153.122 209.828 152.591C208.576 152.08 207.391 151.372 206.307 150.545C205.766 150.127 205.244 149.681 204.756 149.173C204.513 148.916 204.273 148.648 204.047 148.338C203.934 148.18 203.824 148.013 203.717 147.807C203.664 147.705 203.613 147.587 203.568 147.443C203.525 147.299 203.475 147.118 203.506 146.825L203.551 146.416L203.906 146.19L204.157 146.032L204.377 145.899L204.818 145.642C205.111 145.476 205.407 145.315 205.701 145.154C206.29 144.835 206.891 144.541 207.495 144.254C208.7 143.678 209.93 143.161 211.168 142.676C211.479 142.552 211.789 142.436 212.102 142.323C212.418 142.21 212.714 142.092 213.059 141.984C213.725 141.753 214.413 141.592 215.107 141.471C215.801 141.349 216.504 141.293 217.206 141.273C217.909 141.267 218.608 141.307 219.302 141.392C219.994 141.488 220.676 141.623 221.345 141.804C222.014 141.987 222.668 142.213 223.3 142.484C224.567 143.017 225.772 143.681 226.861 144.493C227.964 145.284 228.957 146.209 229.84 147.217C230.723 148.225 231.485 149.331 232.094 150.502Z" fill="#190901"/>
<path d="M223.049 77.6939C223.049 77.6939 244.195 90.8438 263.91 95.7041C283.626 100.564 296.771 112.845 299.341 143.867C301.911 174.888 315.056 174.027 315.056 174.027V101.132C315.056 101.132 300.483 79.4072 294.482 73.4038C288.481 67.4004 263.908 63.3982 256.194 60.254C248.481 57.1097 219.906 69.9096 223.049 76.088C226.192 82.2663 223.049 77.6939 223.049 77.6939Z" fill="#614037"/>
<path d="M228.098 200.668C228.019 200.442 235.242 199.093 235.865 198.983C245.816 197.211 254.545 200.451 265.814 199.432C266.909 199.333 263.004 203.88 262.73 204.137C257.824 208.757 253.25 211.631 246.544 211.854C239.367 212.094 230.353 207.185 228.098 200.668Z" fill="#FFA69F"/>
<path d="M222.805 197.84C226.856 199.393 230.908 200.843 235.041 201.916C239.171 202.974 243.375 203.671 247.59 203.759C251.797 203.852 256.015 203.307 260.043 202.049C262.016 201.422 263.906 200.454 265.754 199.364C267.616 198.297 269.439 197.098 271.382 196.127C269.681 197.476 268.042 198.87 266.301 200.191C265.427 200.843 264.521 201.467 263.573 202.043C262.625 202.619 261.618 203.115 260.571 203.533C256.449 205.17 251.974 205.876 247.548 205.777C243.118 205.681 238.742 204.82 234.595 203.42C230.439 202.032 226.487 200.138 222.805 197.84Z" fill="#DE7271"/>
<path d="M237.468 178.289C236.845 178.599 236.289 179.045 235.936 179.624C235.578 180.191 235.406 180.869 235.445 181.507C235.499 182.088 235.987 182.568 236.526 182.921C237.071 183.282 237.697 183.544 238.332 183.759C238.651 183.866 238.975 183.965 239.302 184.052C239.63 184.146 239.946 184.191 240.346 184.323C241.099 184.577 241.757 185.04 242.29 185.596L242.386 185.698L242.462 185.774C242.513 185.825 242.567 185.87 242.623 185.915C242.733 186.006 242.851 186.085 242.973 186.158C243.221 186.299 243.489 186.409 243.774 186.474C244.056 186.542 244.355 186.567 244.646 186.559C244.894 186.548 245.168 186.48 245.425 186.37C245.681 186.26 245.924 186.11 246.133 185.929C246.24 185.839 246.336 185.74 246.426 185.636C246.494 185.554 246.649 185.356 246.782 185.218C247.055 184.919 247.374 184.656 247.724 184.434C247.899 184.323 248.079 184.222 248.271 184.134C248.367 184.092 248.463 184.05 248.562 184.013C248.652 183.976 248.776 183.94 248.841 183.914C249.468 183.708 250.085 183.454 250.669 183.161C250.963 183.014 251.248 182.856 251.513 182.686C251.773 182.52 252.041 182.331 252.207 182.161C252.56 181.803 252.788 181.326 252.822 180.829C252.842 180.581 252.816 180.332 252.746 180.095L252.721 180.005L252.681 179.887L252.596 179.638L252.427 179.141C251.979 177.812 251.55 176.474 251.146 175.125C250.353 172.424 249.665 169.678 249.245 166.864L249.106 165.802L249.002 164.736C248.946 164.019 248.912 163.299 248.895 162.605C248.869 161.905 248.858 161.199 248.85 160.496C248.85 159.793 248.858 159.088 248.878 158.382C248.954 155.563 249.262 152.709 250.04 149.98C250.432 148.619 250.909 147.287 251.462 145.997C252.021 144.707 252.647 143.454 253.313 142.224C252.822 143.533 252.337 144.843 251.911 146.167C251.496 147.493 251.129 148.828 250.867 150.18C250.588 151.529 250.41 152.893 250.325 154.264C250.238 155.636 250.195 157.01 250.229 158.391C250.263 159.771 250.325 161.154 250.41 162.537C250.447 163.237 250.5 163.911 250.573 164.583L250.703 165.596L250.864 166.607C251.098 167.956 251.386 169.299 251.719 170.637C252.046 171.975 252.413 173.307 252.808 174.634C253.197 175.963 253.618 177.281 254.049 178.602L254.21 179.099L254.292 179.347L254.334 179.477L254.382 179.638C254.504 180.073 254.543 180.527 254.498 180.976C254.419 181.874 253.999 182.729 253.347 183.338C253.008 183.652 252.689 183.852 252.357 184.052C252.026 184.247 251.696 184.417 251.361 184.575C250.689 184.888 250.004 185.145 249.298 185.356C248.728 185.512 248.252 185.808 247.828 186.22C247.715 186.33 247.651 186.406 247.487 186.584C247.34 186.737 247.185 186.881 247.019 187.008C246.688 187.267 246.319 187.47 245.924 187.614C245.529 187.758 245.114 187.849 244.663 187.846C244.257 187.837 243.856 187.784 243.464 187.668C243.072 187.558 242.693 187.386 242.349 187.16C242.177 187.047 242.014 186.917 241.864 186.776C241.791 186.706 241.714 186.632 241.647 186.556L241.466 186.347C241.066 185.867 240.572 185.475 240.013 185.244C239.756 185.133 239.387 185.046 239.048 184.925C238.707 184.809 238.368 184.688 238.038 184.541C237.378 184.253 236.729 183.914 236.142 183.454C235.855 183.22 235.572 182.966 235.35 182.641C235.127 182.322 234.966 181.924 234.977 181.509C235.008 180.753 235.282 180.039 235.733 179.466C236.179 178.901 236.808 178.506 237.468 178.289Z" fill="#DE7271"/>
<path d="M232.468 76.455C234.443 76.6836 234.553 79.5173 232.598 79.8843C222.864 81.7132 208.114 86.7428 200.545 100.562C193.883 112.721 195.19 136.977 195.985 146.249C196.157 148.25 194.577 149.969 192.569 149.969C190.873 149.969 189.437 148.727 189.177 147.05C188.732 144.188 189.397 138.543 185.306 137.533C180.076 136.24 175.782 117.333 179.21 98.6565C182.11 82.862 212.544 74.1547 232.468 76.455Z" fill="#614037"/>
<path d="M258.657 129.726C257.658 130.601 258.637 131.798 259.746 132.755C260.697 133.576 262.012 133.531 266.752 132.168C271.491 130.804 276.547 129.41 280.176 129.41C283.787 129.41 292.488 132.32 291.853 131.874C287.023 128.476 281.222 127.135 275.382 127.096C272.431 127.076 269.483 127.358 266.563 127.773C264.72 128.041 259.25 129.21 258.657 129.726Z" fill="#614037"/>
<path d="M233.428 129.726C234.427 130.601 233.448 131.798 232.339 132.755C231.388 133.576 230.073 133.531 225.334 132.168C220.594 130.804 215.538 129.41 211.91 129.41C208.298 129.41 199.597 132.32 200.232 131.874C205.062 128.476 210.863 127.135 216.703 127.096C219.654 127.076 222.603 127.358 225.523 127.773C227.368 128.041 232.836 129.21 233.428 129.726Z" fill="#614037"/>
<path d="M206.254 141.411C208.043 140.277 209.998 139.373 212.069 138.801L212.847 138.589C213.107 138.518 213.375 138.49 213.64 138.436L214.436 138.298C214.701 138.247 214.972 138.242 215.24 138.211L216.047 138.146C216.315 138.123 216.586 138.143 216.856 138.14L217.666 138.146C217.937 138.157 218.205 138.191 218.473 138.213L219.28 138.298L220.076 138.448C220.341 138.501 220.609 138.538 220.868 138.609L221.65 138.826C222.175 138.959 222.674 139.162 223.179 139.348C223.693 139.517 224.167 139.777 224.655 139.997C226.582 140.943 228.339 142.19 229.885 143.638C228.116 142.473 226.294 141.414 224.373 140.613C223.408 140.226 222.437 139.859 221.43 139.616L220.679 139.424C220.428 139.362 220.172 139.331 219.918 139.28L219.156 139.148L218.386 139.077C216.335 138.871 214.255 139.032 212.221 139.461C210.193 139.884 208.212 140.593 206.254 141.411Z" fill="#DE7271"/>
<path d="M285.477 141.411C283.519 140.595 281.538 139.887 279.504 139.455C277.473 139.026 275.391 138.865 273.34 139.071L272.569 139.142L271.808 139.275C271.554 139.322 271.297 139.354 271.046 139.418L270.295 139.61C269.291 139.85 268.318 140.217 267.353 140.607C265.431 141.408 263.612 142.467 261.84 143.632C263.386 142.182 265.144 140.937 267.071 139.991C267.559 139.771 268.033 139.512 268.546 139.342C269.051 139.159 269.551 138.953 270.075 138.82L270.857 138.603C271.119 138.535 271.387 138.498 271.65 138.442L272.445 138.292L273.252 138.208C273.523 138.185 273.791 138.151 274.059 138.14L274.869 138.134C275.14 138.137 275.41 138.117 275.679 138.14L276.485 138.205C276.753 138.236 277.024 138.239 277.289 138.292L278.085 138.431C278.35 138.481 278.618 138.512 278.878 138.583L279.657 138.795C281.73 139.37 283.685 140.276 285.477 141.411Z" fill="#DE7271"/>
<path d="M335.883 150.11C325.597 122.667 327.501 106.28 322.931 96.3703C320.073 90.1779 317.505 84.214 312.681 79.2324C306.874 73.2403 300.137 69.4638 293.106 65.185C285.554 60.5872 278.241 55.5886 270.462 51.3662C258.319 44.7701 242.813 39.1054 228.924 43.0851C220.558 45.4814 211.643 54.104 214.349 63.5903C213.9 62.0408 208.424 62.831 207.307 62.9214C203.963 63.1923 201.012 64.2028 197.991 65.6958C189.4 69.9436 183.328 76.9518 178.721 85.199C171.783 97.6207 172.015 111.598 172.974 125.391C173.197 128.606 173.451 131.818 173.642 135.035C174.19 144.27 175.386 145.332 174.526 154.564C173.781 162.56 172.046 167.558 171.481 169.929C167.111 188.225 158.627 217.194 166.829 230.533C175.031 243.872 187.684 242.139 199.494 242.139C211.304 242.139 214.162 241.769 214.162 241.769V221.324L207.845 214.476C200.617 206.638 196.298 196.562 195.598 185.927C195.389 184.284 195.319 182.811 195.339 181.521L194.969 175.14C194.055 175.713 193.079 176.029 192.066 176.029C186.911 176.029 182.733 168.007 182.733 158.115C182.733 148.222 182.733 140.2 192.066 140.2C192.362 140.2 192.655 140.229 192.946 140.282L192.125 126.136C190.971 106.26 206.773 78.8372 226.672 78.8372H228.447H266.857C286.758 78.8372 302.558 106.26 301.404 126.136L297.956 185.566C297.333 196.333 292.993 206.551 285.683 214.476L280.12 220.508C271.98 229.353 268.975 232.591 268.93 232.642L268.927 232.644C268.927 232.644 268.451 253.401 286.736 257.211C305.024 261.021 323.12 252.828 330.548 245.396C337.977 237.965 347.694 225.196 347.694 209.952C347.694 194.708 346.17 177.55 335.883 150.11Z" fill="#614037"/>
<path d="M268.926 232.642L268.929 232.639L268.926 232.642Z" fill="#614037"/>
<path d="M166.828 189.417V165.723H163.933V189.417H166.828Z" fill="#C0908F"/>
<path d="M166.824 216.965V193.271H163.93V216.965H166.824Z" fill="#C0908F"/>
<path d="M166.824 256.089V242.188H163.93V256.089H166.824Z" fill="#C0908F"/>
<path d="M166.828 272.25V258.35H163.933V272.25H166.828Z" fill="#C0908F"/>
<path d="M172.268 229.384H58.6328V158.12C58.6328 153.7 62.2131 150.118 66.6313 150.118H164.272C168.69 150.118 172.271 153.7 172.271 158.12V229.384H172.268Z" fill="#F5D5E6"/>
<path d="M163.567 308.647H67.2329C62.8147 308.647 59.2344 305.065 59.2344 300.645V229.384H171.563V300.645C171.563 305.062 167.983 308.647 163.567 308.647Z" fill="#F5D5E6"/>
<path d="M172.268 230.533V158.298C172.268 153.782 168.609 150.121 164.094 150.121H66.8062C62.2921 150.121 58.6328 153.782 58.6328 158.298V230.533" stroke="#4D0C16" stroke-width="4.0886" stroke-miterlimit="10"/>
<path d="M171.563 228.201H59.2344V230.532H171.563V228.201Z" fill="#C0908F"/>
<path d="M122.581 160.22H68.6992V161.744H122.581V160.22Z" fill="#C0908F"/>
<path d="M155.453 160.22H128.594V161.744H155.453V160.22Z" fill="#C0908F"/>
<path d="M93.5806 241.77H68.6992V272.977H93.5806V241.77Z" fill="#FFF3FF"/>
<path d="M97.5469 242.952H155.455" stroke="#8D7989" stroke-width="3.0665" stroke-miterlimit="10"/>
<path d="M97.5469 252.531H155.455" stroke="#8D7989" stroke-width="3.0665" stroke-miterlimit="10"/>
<path d="M97.5469 262.107H155.455" stroke="#8D7989" stroke-width="3.0665" stroke-miterlimit="10"/>
<path d="M97.5469 271.685H155.455" stroke="#8D7989" stroke-width="3.0665" stroke-miterlimit="10"/>
<path d="M59.2344 286.641V300.468C59.2344 304.984 62.8937 308.645 67.4078 308.645H163.387C167.901 308.645 171.56 304.984 171.56 300.468V286.641H59.2344Z" fill="#EFE6EF"/>
<path d="M70.0195 172.594H158.79" stroke="#8D7989" stroke-width="3.0665" stroke-miterlimit="10"/>
<path d="M70.0195 182.478H158.79" stroke="#8D7989" stroke-width="3.0665" stroke-miterlimit="10"/>
<path d="M70.0195 192.362H158.79" stroke="#8D7989" stroke-width="3.0665" stroke-miterlimit="10"/>
<path d="M70.0195 202.246H158.79" stroke="#8D7989" stroke-width="3.0665" stroke-miterlimit="10"/>
<path d="M115.4 218.374C121.53 218.374 126.499 213.403 126.499 207.271C126.499 201.138 121.53 196.167 115.4 196.167C109.27 196.167 104.301 201.138 104.301 207.271C104.301 213.403 109.27 218.374 115.4 218.374Z" stroke="#B47B90" stroke-width="3.0665" stroke-miterlimit="10"/>
<path fill-rule="evenodd" clip-rule="evenodd" d="M124.026 204.945C123.766 204.846 122.892 204.925 122.576 205.024C122.914 204.885 123.749 204.287 123.749 203.81C123.072 203.869 122.497 204.287 121.882 204.586C122.358 204.287 123.095 203.691 123.272 203.353C123.532 202.856 123.492 202.478 123.351 202.359C123.174 202.599 122.059 203.652 121.563 203.931C121.941 203.553 122.497 202.879 122.717 202.52C122.875 202.28 123.174 201.306 122.717 200.968C122.559 201.625 121.763 202.777 121.244 203.175C121.244 203.135 121.224 202.997 121.204 203.037C120.965 203.494 120.609 203.951 120.33 204.171C120.33 204.092 120.31 203.951 120.29 203.993C120.05 204.391 119.695 204.71 119.317 204.967C119.119 205.086 118.761 205.385 118.919 205.664C119.057 205.924 119.218 206.043 119.297 206.342C119.376 206.7 118.998 206.999 118.939 207.019C118.521 207.197 118.163 207.019 117.785 206.601C117.943 206.601 118.482 206.601 118.4 205.964C118.061 206.223 117.486 206.184 117.266 205.805C117.545 205.944 117.881 205.687 117.963 205.526C117.824 205.566 117.585 205.684 117.226 205.427C116.947 205.23 117.006 204.671 117.108 204.394C117.167 204.236 117.286 204.036 117.387 203.937C117.506 203.818 117.627 203.638 117.963 203.559C117.943 203.618 117.963 203.737 118.081 203.697C118.341 203.638 118.518 203.559 118.798 203.717C118.897 203.776 118.916 203.977 118.818 204.115C119.117 204.115 119.176 203.776 119.038 203.618C119.675 203.858 120.132 203.816 120.231 203.44C120.073 203.519 119.912 203.598 119.655 203.559C119.317 203.519 119.139 203.299 118.662 203.279C119.339 202.96 119.655 203.24 119.675 203.358C120.073 202.941 119.873 202.325 119.159 202.444C119.159 202.325 119.119 202.286 118.919 202.286C118.899 202.246 118.88 202.227 118.88 202.187C119.119 202.148 119.734 202.009 119.974 201.651C120.172 201.312 119.754 200.657 120.053 200.657C120.152 200.717 120.352 200.796 120.491 200.815C120.649 200.954 120.75 201.115 120.609 201.312C120.431 201.532 120.33 201.611 120.33 201.927C120.35 202.167 120.629 202.345 120.668 202.483C120.688 202.543 120.649 202.622 120.53 202.681C120.79 202.8 120.908 202.622 120.928 202.402C120.948 202.224 120.809 202.083 120.73 201.925C120.809 202.043 120.97 202.102 121.108 202.083C121.227 202.063 121.408 202.122 121.408 202.26C121.746 201.882 121.21 201.724 121.128 201.623C121.108 201.465 121.348 201.363 121.368 201.165C121.388 201.007 121.329 200.846 121.01 200.728C120.711 200.609 120.572 200.429 120.313 200.192C120.093 199.994 119.675 199.971 119.517 200.231C119.399 200.29 119.32 200.409 119.297 200.491C119.159 200.968 119.695 201.129 119.576 201.544C119.497 201.823 119.119 202.04 118.82 202.001C118.801 201.981 118.781 201.961 118.761 201.961V201.882C118.761 201.724 118.939 201.563 119.001 201.346C119.06 201.148 118.863 200.77 118.544 200.869C118.544 200.849 118.544 200.829 118.504 200.829C118.465 200.829 118.445 200.869 118.445 200.909C118.406 200.909 118.346 200.928 118.327 200.928V200.849C118.327 200.829 118.327 200.829 118.307 200.829H118.248C118.307 200.81 118.425 200.652 118.248 200.53V200.451H118.366V200.352H118.248V200.214H118.129V200.352H118.05V200.451H118.169V200.53C117.991 200.649 118.129 200.81 118.169 200.829H118.109C118.09 200.829 118.09 200.829 118.09 200.849V200.928C118.07 200.928 118.011 200.909 117.971 200.909C117.951 200.869 117.932 200.829 117.912 200.829C117.872 200.829 117.872 200.849 117.872 200.869C117.554 200.77 117.376 201.148 117.415 201.346C117.475 201.566 117.655 201.724 117.655 201.882V201.961C117.635 201.961 117.616 201.981 117.576 201.981C117.159 201.922 116.682 201.484 116.363 201.264L116.343 201.244C116.422 201.165 116.422 201.047 116.402 200.985C116.402 200.725 116.702 200.468 116.781 200.13C116.86 199.811 116.56 199.215 116.064 199.353C116.064 199.334 116.064 199.294 116.005 199.274C115.945 199.274 115.926 199.334 115.906 199.393C115.866 199.393 115.748 199.413 115.728 199.432V199.314C115.728 199.294 115.728 199.294 115.708 199.294H115.629C115.728 199.255 115.909 198.995 115.629 198.817V198.699H115.827L115.866 198.54H115.669V198.32L115.471 198.34V198.538H115.274V198.715H115.471V198.834C115.172 199.032 115.392 199.271 115.471 199.311H115.392C115.373 199.311 115.373 199.311 115.373 199.331V199.449C115.333 199.43 115.234 199.43 115.195 199.41C115.175 199.351 115.136 199.291 115.096 199.291C115.037 199.291 115.037 199.331 115.037 199.37C114.521 199.212 114.222 199.827 114.32 200.146C114.419 200.485 114.698 200.762 114.698 201.002C114.679 201.061 114.679 201.179 114.758 201.261C114.439 201.481 113.962 201.939 113.525 201.998C113.505 201.998 113.485 201.978 113.446 201.978V201.899C113.446 201.741 113.623 201.58 113.686 201.363C113.745 201.165 113.547 200.787 113.228 200.886C113.228 200.866 113.228 200.846 113.189 200.846C113.149 200.846 113.13 200.886 113.13 200.925C113.09 200.925 113.031 200.945 113.011 200.945V200.866C113.011 200.846 113.011 200.846 112.991 200.846H112.932C112.991 200.827 113.11 200.669 112.932 200.547V200.468H113.051V200.369H112.932V200.231H112.814V200.369H112.695V200.468H112.814V200.547C112.636 200.666 112.774 200.827 112.814 200.846H112.754C112.735 200.846 112.735 200.846 112.735 200.866V200.945C112.715 200.945 112.656 200.925 112.616 200.925C112.597 200.886 112.577 200.846 112.557 200.846C112.518 200.846 112.518 200.866 112.518 200.886C112.199 200.787 112.021 201.165 112.06 201.363C112.12 201.583 112.3 201.741 112.3 201.899V201.978C112.281 201.998 112.261 201.998 112.241 202.018C111.962 202.037 111.564 201.84 111.485 201.56C111.366 201.123 111.902 200.985 111.764 200.508C111.744 200.429 111.665 200.31 111.544 200.248C111.386 199.988 110.969 200.008 110.749 200.209C110.489 200.448 110.351 200.646 110.052 200.745C109.733 200.863 109.674 201.024 109.693 201.182C109.713 201.38 109.973 201.481 109.933 201.64C109.854 201.738 109.318 201.899 109.654 202.277C109.654 202.139 109.832 202.08 109.953 202.1C110.091 202.119 110.272 202.04 110.331 201.942C110.252 202.1 110.111 202.241 110.133 202.419C110.153 202.639 110.272 202.797 110.531 202.698C110.413 202.639 110.393 202.579 110.393 202.5C110.433 202.342 110.712 202.162 110.732 201.944C110.751 201.625 110.633 201.527 110.452 201.329C110.294 201.131 110.393 200.971 110.571 200.832C110.709 200.813 110.909 200.734 111.008 200.674C111.307 200.674 110.87 201.332 111.087 201.668C111.307 202.046 111.942 202.184 112.182 202.204C112.182 202.244 112.162 202.263 112.142 202.303C111.965 202.283 111.902 202.323 111.902 202.461C111.186 202.342 111.008 202.977 111.386 203.375C111.406 203.277 111.725 202.977 112.399 203.296C111.922 203.316 111.742 203.536 111.406 203.576C111.146 203.595 110.988 203.536 110.83 203.457C110.929 203.835 111.386 203.875 112.024 203.635C111.886 203.773 111.925 204.132 112.244 204.132C112.145 203.993 112.145 203.793 112.264 203.734C112.543 203.556 112.721 203.635 112.98 203.714C113.099 203.734 113.118 203.635 113.099 203.576C113.437 203.675 113.576 203.835 113.674 203.954C113.793 204.072 113.894 204.273 113.954 204.411C114.052 204.691 114.112 205.247 113.835 205.444C113.457 205.724 113.24 205.582 113.099 205.543C113.158 205.701 113.497 205.961 113.796 205.822C113.598 206.201 113.02 206.24 112.661 205.98C112.582 206.618 113.118 206.638 113.276 206.618C112.898 207.036 112.54 207.214 112.123 207.036C112.063 206.997 111.685 206.717 111.764 206.359C111.843 206.059 112.004 205.941 112.142 205.681C112.3 205.402 111.945 205.106 111.744 204.984C111.386 204.705 111.028 204.408 110.771 204.01C110.751 203.971 110.712 204.109 110.732 204.188C110.452 203.968 110.094 203.511 109.857 203.054C109.837 203.014 109.817 203.152 109.817 203.192C109.301 202.794 108.506 201.64 108.345 200.985C107.888 201.343 108.187 202.297 108.345 202.537C108.565 202.915 109.121 203.57 109.499 203.948C109.002 203.669 107.888 202.616 107.71 202.376C107.572 202.495 107.532 202.873 107.789 203.37C107.967 203.708 108.683 204.304 109.18 204.603C108.565 204.304 107.986 203.906 107.312 203.827C107.332 204.284 108.167 204.88 108.486 205.041C108.167 204.942 107.292 204.863 107.036 204.962C107.055 205.041 107.631 205.557 108.427 205.797C107.871 205.817 107.572 205.856 107.115 205.975C107.433 206.294 107.97 206.491 108.308 206.551C108.088 206.551 107.552 206.61 107.335 206.83L107.256 206.909C107.275 206.949 107.335 207.008 107.354 207.028C107.394 207.047 107.433 207.087 107.453 207.107C107.433 207.146 107.414 207.186 107.374 207.205V207.146C107.374 207.126 107.335 207.087 107.315 207.126V207.146H107.295C107.295 207.146 107.295 207.126 107.275 207.107H107.295V207.087H107.275V207.067H107.256V207.087H107.335C107.315 207.107 107.335 207.126 107.354 207.107H107.335C107.295 207.107 107.295 207.166 107.315 207.166C107.335 207.186 107.354 207.186 107.354 207.205C107.335 207.284 107.275 207.265 107.256 207.245C107.216 207.205 107.275 207.166 107.236 207.126C107.236 207.126 107.216 207.107 107.196 207.107C107.177 207.087 107.137 207.107 107.137 207.146C107.117 207.186 107.117 207.205 107.098 207.225C107.078 207.245 107.078 207.265 107.078 207.284C107.098 207.304 107.117 207.304 107.117 207.324C107.117 207.344 107.058 207.383 107.117 207.403C107.117 207.383 107.117 207.383 107.137 207.363C107.157 207.363 107.157 207.344 107.177 207.324V207.383C107.196 207.403 107.216 207.423 107.236 207.403C107.216 207.403 107.216 207.403 107.216 207.383C107.216 207.363 107.236 207.344 107.216 207.304C107.196 207.284 107.177 207.284 107.157 207.265C107.137 207.245 107.137 207.225 107.137 207.205C107.157 207.205 107.157 207.186 107.177 207.166C107.216 207.146 107.196 207.245 107.236 207.265C107.256 207.304 107.335 207.284 107.354 207.284V207.304C107.335 207.304 107.335 207.304 107.335 207.324C107.256 207.344 107.275 207.403 107.315 207.442C107.315 207.423 107.335 207.383 107.414 207.383C107.374 207.403 107.354 207.442 107.335 207.462C107.315 207.482 107.295 207.482 107.275 207.482C107.295 207.522 107.354 207.502 107.394 207.442C107.394 207.462 107.414 207.502 107.433 207.482C107.414 207.482 107.414 207.462 107.414 207.442C107.433 207.423 107.453 207.423 107.493 207.403C107.512 207.403 107.512 207.383 107.493 207.383C107.532 207.383 107.552 207.383 107.572 207.403C107.591 207.403 107.611 207.423 107.611 207.442C107.631 207.462 107.67 207.522 107.651 207.541C107.631 207.581 107.591 207.581 107.572 207.581C107.591 207.601 107.631 207.601 107.651 207.581C107.651 207.62 107.591 207.66 107.552 207.64C107.572 207.699 107.631 207.68 107.651 207.68C107.631 207.739 107.611 207.778 107.552 207.778C107.552 207.778 107.493 207.759 107.493 207.719V207.64C107.493 207.601 107.453 207.601 107.433 207.581C107.394 207.561 107.335 207.561 107.295 207.522V207.541C107.256 207.541 107.196 207.502 107.157 207.462V207.482C107.098 207.462 106.959 207.383 106.917 207.324C106.878 207.383 106.957 207.462 106.976 207.482C107.016 207.502 107.095 207.561 107.154 207.581C107.095 207.581 106.934 207.522 106.914 207.502C106.914 207.522 106.914 207.561 106.974 207.601C107.013 207.62 107.112 207.66 107.171 207.66C107.092 207.66 107.013 207.64 106.951 207.66C106.971 207.699 107.089 207.739 107.129 207.739C107.089 207.739 107.01 207.778 106.991 207.798C106.991 207.798 107.07 207.838 107.168 207.818C107.109 207.838 107.089 207.857 107.05 207.897C107.089 207.917 107.149 207.917 107.188 207.897C107.168 207.897 107.109 207.936 107.089 207.976V207.996C107.129 208.015 107.168 207.996 107.228 207.976C107.188 208.015 107.168 208.035 107.168 208.075C107.208 208.075 107.247 208.055 107.267 208.035C107.267 208.055 107.247 208.075 107.247 208.114C107.247 208.134 107.267 208.134 107.267 208.134C107.267 208.134 107.267 208.154 107.287 208.154C107.346 208.213 107.445 208.292 107.507 208.351C107.507 208.371 107.527 208.371 107.527 208.371L107.546 208.411C107.546 208.43 107.566 208.43 107.566 208.43C107.566 208.45 107.586 208.45 107.586 208.45V208.49C107.586 208.509 107.606 208.509 107.606 208.509V208.529C107.606 208.549 107.606 208.549 107.625 208.549H107.645C107.645 208.549 107.645 208.569 107.665 208.569H107.704C107.685 208.569 107.704 208.588 107.724 208.588C107.724 208.588 107.744 208.608 107.744 208.588C107.744 208.608 107.764 208.588 107.764 208.588C107.783 208.608 107.783 208.588 107.764 208.569C107.764 208.549 107.764 208.549 107.744 208.549C107.744 208.529 107.744 208.529 107.724 208.529C107.724 208.529 107.724 208.509 107.704 208.529C107.704 208.529 107.704 208.509 107.685 208.509C107.744 208.411 107.803 208.371 107.882 208.332C107.902 208.312 107.922 208.312 107.902 208.292C107.882 208.292 107.862 208.272 107.862 208.253C107.882 208.253 107.922 208.233 107.922 208.213C107.882 208.253 107.843 208.193 107.862 208.174C107.882 208.154 107.922 208.114 107.961 208.154V208.134C108.001 208.154 108.02 208.193 108.001 208.213C107.981 208.253 107.961 208.272 107.981 208.292C108.001 208.253 108.001 208.272 108.02 208.253C108.001 208.292 107.941 208.351 107.922 208.391C107.902 208.43 107.862 208.43 107.862 208.411V208.391C107.823 208.411 107.823 208.47 107.882 208.47C107.843 208.529 107.902 208.588 107.922 208.588V208.529C107.961 208.608 108.02 208.608 108.06 208.549C108.08 208.569 108.099 208.569 108.119 208.569C108.139 208.569 108.159 208.549 108.178 208.549C108.159 208.588 108.139 208.608 108.139 208.648C108.139 208.746 108.178 208.845 108.317 208.888C108.317 208.967 108.317 209.046 108.415 209.065C108.734 209.723 109.211 210.835 109.549 211.493C109.51 211.631 109.628 211.752 109.707 211.733C109.707 211.792 109.767 212.15 109.786 212.19C109.688 212.368 109.865 212.469 109.944 212.43C109.944 212.548 109.984 212.627 109.984 212.749C109.905 212.887 109.846 213.068 109.806 213.147C109.747 213.285 109.826 213.344 109.964 213.325C109.964 213.344 109.944 213.364 109.925 213.423C109.925 213.522 109.925 213.562 110.063 213.601H110.241C110.162 213.66 110.162 213.799 110.28 213.841C110.458 213.881 110.639 213.96 110.678 214.039C110.56 214.078 110.678 214.177 110.737 214.157C110.757 214.256 110.796 214.295 110.915 214.315C110.935 214.453 110.994 214.434 111.093 214.453C111.231 214.631 111.251 214.533 111.191 214.394C111.251 214.256 111.211 214.236 111.152 214.197C111.211 214.118 111.191 214.019 111.152 213.957C111.191 213.897 111.152 213.759 111.073 213.858C111.053 213.818 111.053 213.7 111.033 213.68C111.829 212.983 112.585 212.924 113.339 212.904C113.618 212.864 113.677 212.805 113.598 212.664C113.499 212.585 113.358 212.365 113.319 212.246C113.339 212.266 113.358 212.266 113.378 212.286C113.556 212.424 113.914 212.385 113.993 212.108C113.497 212.246 113.398 211.671 113.576 211.47C113.773 211.273 114.351 211.23 114.509 211.75C114.529 211.71 114.549 211.671 114.549 211.611C114.868 212.009 114.789 212.289 114.529 212.407C114.191 212.585 114.013 212.706 114.033 212.924C114.312 212.726 114.332 212.845 114.628 212.684C114.329 212.963 113.595 213.141 113.257 213.48C112.898 213.818 112.701 213.638 112.681 213.44C112.681 213.341 112.701 213.282 112.721 213.22C112.283 213.161 112.145 213.796 112.501 213.996C111.843 214.414 112.241 215.049 112.461 215.19C112.461 215.091 112.619 214.772 112.76 214.693C112.839 215.549 113.355 215.667 113.835 215.289C113.894 215.427 114.134 215.608 114.332 215.667C114.631 215.746 114.828 215.687 115.028 215.549C115.048 215.828 115.308 216.144 115.545 216.206C115.785 216.147 116.022 215.828 116.061 215.549C116.259 215.687 116.459 215.746 116.758 215.667C116.955 215.608 117.195 215.427 117.255 215.289C117.731 215.667 118.248 215.549 118.329 214.693C118.468 214.772 118.629 215.091 118.629 215.19C118.849 215.052 119.244 214.414 118.589 213.996C118.947 213.799 118.809 213.181 118.369 213.22C118.389 213.279 118.408 213.319 118.408 213.44C118.389 213.638 118.188 213.818 117.833 213.48C117.475 213.141 116.758 212.943 116.462 212.684C116.761 212.842 116.781 212.723 117.057 212.924C117.077 212.684 116.899 212.565 116.56 212.407C116.301 212.289 116.222 212.009 116.541 211.611C116.56 211.671 116.56 211.73 116.58 211.75C116.738 211.233 117.317 211.273 117.514 211.47C117.692 211.668 117.593 212.246 117.097 212.108C117.176 212.368 117.534 212.427 117.712 212.286C117.712 212.345 117.771 212.404 117.633 212.585C117.393 212.864 117.672 212.943 117.771 212.943C118.327 212.904 118.448 213.003 118.945 213.121C119.283 213.2 119.701 213.102 120.276 213.499C120.414 213.618 120.474 213.618 120.654 213.677C120.694 213.697 120.874 213.697 120.914 213.559C121.072 213.638 121.312 213.339 121.729 213.339C121.887 213.339 121.969 213.161 121.949 213.079C122.028 213.039 122.268 212.8 122.288 212.661C122.406 212.701 122.466 212.562 122.387 212.503C122.505 212.543 122.564 212.306 122.446 212.283C122.525 212.243 122.485 212.085 122.367 212.085C122.288 211.608 121.949 211.369 121.67 211.27C121.65 211.112 121.512 211.131 121.472 211.21C121.472 211.171 121.453 211.151 121.453 211.131V210.954H121.63V210.756H121.453V210.578H121.255V210.756H121.077V210.954H121.255V211.131C121.235 211.112 121.235 211.131 121.235 211.151C121.176 211.033 121.038 211.131 121.038 211.25C120.699 211.369 120.462 211.608 120.381 211.967C120.282 211.987 120.282 212.105 120.321 212.145C120.144 212.184 120.203 212.404 120.341 212.385C120.262 212.404 120.282 212.562 120.381 212.543C120.4 212.622 120.381 212.641 120.44 212.72C120.2 212.859 120.302 213.039 119.486 212.898C119.187 212.839 118.73 212.678 118.454 212.362C118.513 212.323 118.533 212.224 118.552 212.142C118.592 212.28 118.651 212.382 118.772 212.461C118.753 212.382 118.753 212.283 118.792 212.142C118.832 212.339 119.052 212.54 119.229 212.421C119.15 212.342 118.99 212.263 119.052 211.885C119.111 212.004 119.45 212.283 119.749 211.984C119.232 211.885 119.489 211.227 119.39 210.869C119.331 210.671 119.193 210.451 118.634 210.431C118.693 210.392 118.772 210.293 118.753 210.192C118.513 210.31 118.095 210.271 117.918 209.813C117.977 209.873 118.076 209.892 118.157 209.833C117.999 209.554 117.898 209.297 117.98 208.958C118.118 208.859 118.259 208.718 118.298 208.56C118.318 208.758 118.417 208.859 118.617 208.978C118.657 208.958 118.775 208.84 118.857 208.738C118.818 208.998 118.739 209.455 118.877 209.732C118.976 209.929 119.097 210.011 119.255 210.129C119.334 210.07 119.514 209.89 119.534 209.652C119.574 209.393 119.495 209.057 119.396 208.778H119.475C119.495 208.758 119.554 208.698 119.574 208.6C119.613 208.879 119.712 209.356 119.794 209.633C119.853 209.811 120.132 210.149 120.33 210.169C120.488 209.991 120.527 209.751 120.468 209.511C120.409 209.252 120.189 208.755 120.07 208.577H120.11C120.129 208.498 120.149 208.357 120.149 208.238C120.307 208.617 120.508 209.074 120.685 209.452C120.725 209.551 121.004 209.791 121.323 209.811C121.402 209.652 121.461 209.511 121.402 209.274C121.343 209.015 120.807 208.281 120.725 208.179C120.705 208.159 120.745 208.14 120.745 208.159C120.824 208.278 121.123 208.636 121.382 208.975C121.602 209.255 121.859 209.432 122.197 209.334C122.257 209.113 122.217 208.955 122.079 208.778C121.921 208.557 121.622 208.301 121.165 207.843C121.484 208.063 122.099 208.639 122.556 208.639C122.734 208.639 122.914 208.54 122.914 208.521C122.934 208.241 122.556 207.984 122.418 207.883C122.855 207.982 123.095 207.942 123.43 207.784C123.312 207.505 122.875 207.287 122.497 207.208C123.072 207.248 123.411 207.149 123.749 206.889C123.789 206.85 123.789 206.81 123.769 206.771C123.549 206.531 122.954 206.472 122.736 206.472C123.075 206.412 123.631 206.212 123.93 205.896C123.473 205.777 123.174 205.718 122.618 205.718C123.428 205.54 124.006 205.024 124.026 204.945ZM107.323 207.093L107.304 207.073L107.323 207.093L107.343 207.073L107.323 207.093ZM107.323 207.132L107.383 207.211L107.323 207.132ZM107.343 207.251C107.343 207.251 107.323 207.251 107.343 207.251C107.323 207.251 107.323 207.251 107.343 207.251C107.343 207.231 107.343 207.231 107.383 207.211C107.402 207.191 107.422 207.191 107.442 207.191C107.402 207.211 107.383 207.231 107.343 207.251ZM108.517 208.066C108.477 208.066 108.438 208.086 108.398 208.046V208.027C108.398 208.046 108.418 208.046 108.438 208.046C108.438 208.046 108.438 208.027 108.418 208.007C108.438 208.027 108.458 208.027 108.477 208.007C108.477 208.007 108.458 208.007 108.458 207.987C108.497 207.987 108.556 207.987 108.596 207.967L108.616 207.987C108.616 207.987 108.616 208.007 108.596 208.007C108.576 208.007 108.576 208.027 108.556 208.027C108.537 208.046 108.537 208.046 108.517 208.066ZM109.75 211.369C109.332 210.573 108.895 209.737 108.556 208.981C108.596 208.921 108.576 208.783 108.497 208.783C108.497 208.763 108.517 208.744 108.517 208.724H108.537C108.994 208.724 109.612 208.148 109.928 207.928C109.47 208.365 109.171 208.625 109.013 208.862C108.895 209.04 108.855 209.201 108.895 209.418C109.233 209.517 109.49 209.339 109.71 209.06C109.97 208.721 110.246 208.363 110.348 208.244C110.368 208.224 110.387 208.244 110.368 208.264C110.308 208.363 109.772 209.099 109.691 209.359C109.631 209.599 109.691 209.737 109.77 209.895C110.088 209.875 110.365 209.636 110.407 209.537C110.565 209.159 110.785 208.701 110.943 208.323C110.943 208.442 110.943 208.583 110.983 208.662H111.022C110.904 208.84 110.684 209.339 110.624 209.596C110.545 209.974 110.684 210.172 110.782 210.254C110.98 210.175 111.2 210.076 111.299 209.717C111.378 209.438 111.476 208.981 111.519 208.684C111.539 208.783 111.598 208.823 111.617 208.862H111.696C111.598 209.142 111.519 209.477 111.558 209.737C111.598 209.977 111.778 210.155 111.838 210.214C111.996 210.076 112.117 209.994 112.216 209.816C112.354 209.537 112.275 209.08 112.235 208.823C112.314 208.941 112.455 209.043 112.475 209.063C112.673 208.944 112.774 208.842 112.794 208.645C112.833 208.803 112.991 208.944 113.113 209.043C113.172 209.401 113.093 209.638 112.935 209.918C113.014 209.977 113.113 209.957 113.175 209.898C113.017 210.336 112.58 210.375 112.34 210.276C112.32 210.355 112.399 210.454 112.458 210.516C111.902 210.516 111.761 210.736 111.702 210.954C111.603 211.312 111.86 211.947 111.344 212.069C111.643 212.348 111.981 212.088 112.041 211.97C112.1 212.348 111.962 212.427 111.863 212.506C112.06 212.625 112.281 212.427 112.3 212.227C112.34 212.365 112.34 212.466 112.32 212.545C112.439 212.466 112.498 212.368 112.54 212.227C112.54 212.286 112.58 212.365 112.619 212.424C112.083 212.901 111.146 213.161 110.87 212.523C110.791 212.404 110.732 212.365 110.571 212.464C110.331 212.562 110.373 212.424 110.232 212.306C110.272 212.167 110.252 212.066 110.133 212.046C110.074 211.947 109.913 211.727 109.834 211.648C109.928 211.507 109.868 211.369 109.75 211.369ZM115.694 201.146C115.714 201.146 115.714 201.146 115.694 201.146L115.714 201.165V201.185V201.205C115.714 201.225 115.734 201.225 115.754 201.244C115.754 201.244 115.754 201.264 115.773 201.264H115.534H115.294V201.244V201.225C115.294 201.225 115.294 201.205 115.313 201.205V201.185V201.165V201.146V201.126V201.106H115.452C115.596 201.126 115.655 201.126 115.694 201.146ZM117.026 202.419C117.085 202.438 117.164 202.458 117.266 202.478V202.498C117.046 202.557 116.789 202.517 116.628 202.478C116.687 202.616 116.868 202.675 116.927 202.675C116.707 202.994 116.25 203.034 116.033 203.054C116.151 203.172 116.312 203.192 116.45 203.192C116.352 203.231 116.072 203.511 116.053 203.55C116.112 203.57 116.132 203.57 116.191 203.59C116.033 203.728 115.912 203.889 115.872 204.087H115.971C115.833 204.327 115.711 204.682 115.692 204.843C115.672 204.942 115.613 205.122 115.573 205.221C115.534 205.122 115.474 204.942 115.455 204.843C115.435 204.685 115.336 204.307 115.175 204.087H115.274C115.234 203.909 115.116 203.748 114.955 203.59C115.014 203.57 115.034 203.57 115.093 203.55C115.074 203.531 114.775 203.251 114.696 203.192C114.834 203.192 114.995 203.172 115.113 203.054C114.893 203.034 114.436 202.994 114.219 202.675C114.278 202.675 114.459 202.616 114.518 202.478C114.36 202.517 114.1 202.537 113.88 202.498V202.478C113.979 202.458 114.038 202.438 114.12 202.419C114.239 202.359 114.656 202.159 114.696 202.021C114.597 202.021 113.939 202.159 113.9 202.119C114.239 202.021 114.656 201.899 115.192 201.422C115.311 201.422 115.311 201.442 115.37 201.442H115.567H115.765C115.824 201.442 115.844 201.422 115.943 201.422C116.459 201.899 116.876 201.998 117.235 202.119C117.195 202.159 116.558 202.021 116.439 202.021C116.49 202.159 116.908 202.356 117.026 202.419ZM115.198 212.263C115.237 212.263 115.139 212.74 114.958 213C114.619 213.477 114.281 213.615 114.143 214.033C114.123 214.092 113.985 214.171 113.883 214.171C113.804 213.912 113.982 213.694 114.061 213.595C114.382 213.197 115.116 212.859 115.198 212.263ZM113.426 214.47C113.485 214.549 113.584 214.589 113.686 214.609V214.789C113.547 214.75 113.426 214.589 113.426 214.47ZM114.721 214.253C115 213.615 115.336 213.039 115.316 212.424C115.514 213.579 114.422 214.394 115.057 215.388C114.481 215.247 114.56 214.609 114.721 214.253ZM115.793 212.421C115.773 213.017 116.112 213.595 116.388 214.25C116.546 214.609 116.628 215.244 116.05 215.405C116.687 214.391 115.596 213.576 115.793 212.421ZM117.404 214.589C117.503 214.589 117.602 214.549 117.664 214.451C117.664 214.569 117.545 214.73 117.404 214.75V214.589ZM117.204 214.174C117.105 214.174 116.964 214.075 116.944 214.036C116.806 213.638 116.467 213.48 116.129 213.003C115.951 212.743 115.85 212.266 115.889 212.266C115.968 212.862 116.704 213.2 117.003 213.618C117.105 213.714 117.286 213.934 117.204 214.174ZM108.139 207.29V207.349C108.159 207.369 108.178 207.369 108.198 207.409C108.159 207.428 108.139 207.428 108.099 207.448C108.099 207.428 108.099 207.428 108.08 207.409C108.06 207.448 108.001 207.468 107.961 207.448C108.001 207.448 108.02 207.409 108.02 207.389C108.001 207.389 107.981 207.428 107.941 207.409C107.902 207.409 107.882 207.349 107.882 207.31V207.29H108.139ZM107.622 207.29C107.642 207.29 107.662 207.27 107.662 207.251C107.642 207.251 107.583 207.27 107.563 207.251C107.563 207.251 107.583 207.231 107.583 207.211C107.563 207.231 107.543 207.231 107.524 207.231L107.543 207.211C107.543 207.191 107.583 207.172 107.583 207.152C107.563 207.152 107.504 207.191 107.504 207.191C107.524 207.172 107.563 207.152 107.583 207.112C107.662 207.152 107.721 207.191 107.803 207.211C107.803 207.231 107.783 207.231 107.783 207.231H107.803C107.783 207.251 107.783 207.27 107.783 207.29V207.369V207.409C107.783 207.409 107.764 207.389 107.764 207.369C107.764 207.349 107.724 207.33 107.704 207.31C107.685 207.29 107.665 207.29 107.645 207.27H107.665C107.662 207.29 107.622 207.29 107.622 207.29ZM107.642 208.385C107.622 208.385 107.622 208.365 107.603 208.385C107.583 208.405 107.583 208.385 107.563 208.385C107.563 208.365 107.563 208.365 107.543 208.365L107.504 208.346C107.504 208.326 107.504 208.326 107.484 208.326C107.405 208.267 107.326 208.207 107.264 208.148C107.264 208.148 107.264 208.128 107.244 208.128C107.284 208.109 107.323 208.03 107.343 207.99C107.323 208.03 107.304 208.069 107.284 208.089C107.284 208.109 107.284 208.128 107.304 208.148C107.343 208.148 107.363 208.109 107.363 208.069C107.383 208.03 107.383 207.97 107.383 207.97C107.383 207.99 107.363 208.069 107.363 208.109C107.363 208.128 107.383 208.148 107.402 208.168C107.442 208.148 107.442 208.109 107.442 208.109V207.97C107.442 207.99 107.462 207.99 107.462 208.01V208.128C107.481 208.207 107.541 208.188 107.541 208.109C107.541 208.069 107.521 208.03 107.521 207.99L107.541 208.01C107.541 208.049 107.541 208.069 107.56 208.109C107.58 208.128 107.6 208.148 107.6 208.148C107.62 208.128 107.62 208.109 107.62 208.089C107.62 208.049 107.6 208.01 107.58 207.99C107.6 207.99 107.62 208.01 107.62 208.01C107.639 207.99 107.639 207.97 107.639 207.951C107.659 207.97 107.679 207.97 107.679 207.97C107.699 208.01 107.699 208.03 107.699 208.069C107.718 208.069 107.718 208.069 107.718 208.049C107.718 208.109 107.679 208.128 107.659 208.128L107.679 208.148C107.62 208.168 107.62 208.207 107.62 208.227C107.62 208.267 107.679 208.326 107.639 208.346C107.679 208.365 107.699 208.326 107.699 208.306C107.718 208.346 107.718 208.365 107.699 208.365C107.718 208.365 107.738 208.346 107.738 208.326C107.738 208.346 107.758 208.346 107.758 208.365C107.758 208.346 107.778 208.346 107.758 208.326C107.758 208.326 107.758 208.346 107.778 208.346C107.78 208.365 107.682 208.425 107.642 208.385ZM107.82 208.267V208.247V208.267ZM108.376 208.185C108.336 208.165 108.238 208.185 108.198 208.165C108.238 208.165 108.238 208.145 108.257 208.165C108.257 208.145 108.218 208.145 108.178 208.126C108.139 208.126 108.119 208.106 108.139 208.046C108.139 208.046 108.139 208.066 108.159 208.066C108.159 208.046 108.159 208.027 108.178 208.007H108.257C108.277 208.027 108.277 208.066 108.218 208.066C108.238 208.086 108.277 208.086 108.277 208.066C108.277 208.066 108.297 208.086 108.277 208.106C108.257 208.145 108.297 208.145 108.297 208.145C108.356 208.126 108.376 208.126 108.415 208.106H108.435C108.415 208.126 108.396 208.126 108.396 208.145H108.356L108.376 208.165C108.418 208.165 108.398 208.185 108.376 208.185Z" fill="#B47B90"/>
<path d="M71.1602 213.903H93.5785" stroke="#8D7989" stroke-width="3.0665" stroke-miterlimit="10"/>
<path d="M136.371 213.903H158.789" stroke="#8D7989" stroke-width="3.0665" stroke-miterlimit="10"/>
<path d="M93.5767 241.77H68.6953V272.977H93.5767V241.77Z" fill="#FFF3FF"/>
<path d="M96.2147 276.347C96.0088 274.509 94.8718 272.909 93.2072 272.11L81.4648 267.098H78.4516L66.7092 272.11C65.0446 272.909 63.9076 274.512 63.7016 276.347L63.0273 282.345H79.9582H96.889L96.2147 276.347Z" fill="#2256A6"/>
<path d="M83.6116 268.015L82.9824 267.894H76.6457L76.5526 267.91L74.7695 268.673L78.1382 282.344H79.9608H81.6621L85.31 268.74L83.6116 268.015Z" fill="#00C0F2"/>
<path d="M76.6016 263.68V267.97C76.6016 268.568 78.1053 269.054 79.959 269.054C80.0013 269.054 80.0436 269.054 80.0831 269.054H80.0859H80.0887C81.8831 269.031 83.3163 268.554 83.3163 267.97V263.68H76.6016Z" fill="#FFD7BA"/>
<path d="M76.6016 265.574C77.0078 266.164 78.269 266.497 78.7486 266.616C79.9928 266.926 81.3894 266.923 82.5715 266.37C82.769 266.277 83.0399 266.133 83.3163 265.952V263.979H76.6016V265.574Z" fill="#FFA69F"/>
<path d="M82.4098 248.377H77.9831C75.7909 248.377 74.0502 251.397 74.1771 253.587L74.2618 255.044C74.2646 255.094 74.2223 255.137 74.1715 255.137C73.1445 255.137 73.1445 256.02 73.1445 257.11C73.1445 258.199 73.6044 259.083 74.1715 259.083C74.242 259.083 74.3126 259.068 74.3803 259.043C74.4367 259.02 74.496 259.06 74.5016 259.119L74.5608 260.135C74.6286 261.321 75.1082 262.447 75.9123 263.319L77.9972 265.58C78.0001 265.583 78.0029 265.585 78.0085 265.588C79.2866 266.624 81.1148 266.624 82.3929 265.588C82.3957 265.585 82.3985 265.583 82.4042 265.58L84.4891 263.319C85.2932 262.447 85.7728 261.321 85.8406 260.135L86.2214 253.587C86.3428 251.397 84.602 248.377 82.4098 248.377Z" fill="#FFD7BA"/>
<path d="M81.6621 256.455C81.6226 256.435 81.6085 256.385 81.6338 256.345C82.074 255.685 82.9317 255.236 83.7273 255.521C84.3593 255.75 84.6865 255.953 84.6865 255.953C84.695 256.015 84.4185 256.193 84.3734 256.224C83.606 256.766 82.5028 256.893 81.6621 256.455Z" fill="#FFFFFE"/>
<path d="M83.0536 256.641C83.4759 256.641 83.8182 256.299 83.8182 255.876C83.8182 255.454 83.4759 255.111 83.0536 255.111C82.6314 255.111 82.2891 255.454 82.2891 255.876C82.2891 256.299 82.6314 256.641 83.0536 256.641Z" fill="#723C36"/>
<path d="M83.0545 256.263C83.268 256.263 83.441 256.089 83.441 255.876C83.441 255.662 83.268 255.489 83.0545 255.489C82.841 255.489 82.668 255.662 82.668 255.876C82.668 256.089 82.841 256.263 83.0545 256.263Z" fill="#0F0B0A"/>
<path d="M83.3253 255.859C83.464 255.859 83.5764 255.746 83.5764 255.608C83.5764 255.469 83.464 255.356 83.3253 255.356C83.1866 255.356 83.0742 255.469 83.0742 255.608C83.0742 255.746 83.1866 255.859 83.3253 255.859Z" fill="#FFF8FA"/>
<path d="M83.0471 256.119C83.1141 256.119 83.1684 256.064 83.1684 255.997C83.1684 255.93 83.1141 255.876 83.0471 255.876C82.9801 255.876 82.9258 255.93 82.9258 255.997C82.9258 256.064 82.9801 256.119 83.0471 256.119Z" fill="#FFF8FA"/>
<path d="M81.7344 256.215C81.8839 255.978 82.0645 255.746 82.3043 255.574C82.5356 255.399 82.8206 255.272 83.1225 255.252C83.4215 255.221 83.7319 255.314 83.9886 255.419C84.2566 255.526 84.5106 255.639 84.7673 255.797L84.8096 255.822L84.8124 255.865C84.8153 255.93 84.7983 255.949 84.7871 255.975C84.7758 256 84.7617 256.017 84.7476 256.034C84.7222 256.071 84.694 256.099 84.6657 256.13C84.6093 256.189 84.5472 256.237 84.4852 256.285C84.3582 256.378 84.2228 256.457 84.0789 256.519C83.794 256.646 83.4864 256.692 83.1874 256.717C83.478 256.635 83.7657 256.542 84.0225 256.401C84.1494 256.33 84.2679 256.246 84.378 256.15C84.4316 256.102 84.4824 256.051 84.5303 256C84.5529 255.975 84.5755 255.946 84.5924 255.921C84.6093 255.904 84.6206 255.851 84.6178 255.887L84.6601 255.958C84.4288 255.834 84.1664 255.718 83.9096 255.619C83.6472 255.509 83.4018 255.438 83.1338 255.447C82.8714 255.455 82.609 255.534 82.3776 255.678C82.1406 255.822 81.929 256.009 81.7344 256.215Z" fill="#190901"/>
<path d="M78.5754 256.455C78.6149 256.435 78.629 256.385 78.6037 256.345C78.1635 255.685 77.3058 255.236 76.5102 255.521C75.8782 255.75 75.551 255.953 75.551 255.953C75.5425 256.015 75.819 256.193 75.8641 256.224C76.6315 256.766 77.7347 256.893 78.5754 256.455Z" fill="#FFFFFE"/>
<path d="M77.1826 256.641C77.6048 256.641 77.9471 256.299 77.9471 255.876C77.9471 255.454 77.6048 255.111 77.1826 255.111C76.7603 255.111 76.418 255.454 76.418 255.876C76.418 256.299 76.7603 256.641 77.1826 256.641Z" fill="#723C36"/>
<path d="M77.1834 256.263C77.3969 256.263 77.5699 256.089 77.5699 255.876C77.5699 255.662 77.3969 255.489 77.1834 255.489C76.9699 255.489 76.7969 255.662 76.7969 255.876C76.7969 256.089 76.9699 256.263 77.1834 256.263Z" fill="#0F0B0A"/>
<path d="M76.9152 255.859C77.0538 255.859 77.1663 255.746 77.1663 255.608C77.1663 255.469 77.0538 255.356 76.9152 255.356C76.7765 255.356 76.6641 255.469 76.6641 255.608C76.6641 255.746 76.7765 255.859 76.9152 255.859Z" fill="#FFF8FA"/>
<path d="M77.1877 256.119C77.2547 256.119 77.309 256.064 77.309 255.997C77.309 255.93 77.2547 255.876 77.1877 255.876C77.1207 255.876 77.0664 255.93 77.0664 255.997C77.0664 256.064 77.1207 256.119 77.1877 256.119Z" fill="#FFF8FA"/>
<path d="M78.5772 256.272C78.391 256.049 78.1681 255.865 77.9283 255.721C77.6857 255.58 77.4176 255.493 77.1468 255.47C76.8703 255.445 76.6192 255.504 76.3512 255.617C76.086 255.716 75.818 255.834 75.581 255.964L75.6233 255.894C75.6205 255.857 75.6289 255.905 75.6458 255.922C75.6628 255.947 75.6825 255.973 75.7051 255.995C75.7502 256.043 75.7954 256.094 75.849 256.139C75.9505 256.229 76.0634 256.311 76.1847 256.379C76.4302 256.512 76.701 256.602 76.9803 256.678C76.6926 256.661 76.3991 256.619 76.1255 256.5C75.9901 256.441 75.8574 256.368 75.7361 256.275C75.6769 256.229 75.6176 256.181 75.564 256.125C75.5386 256.097 75.5104 256.066 75.485 256.032C75.4625 255.989 75.4286 255.975 75.4258 255.865V255.823L75.4709 255.795C75.7333 255.631 75.9957 255.518 76.2694 255.408C76.5346 255.298 76.8647 255.216 77.1665 255.27C77.4741 255.304 77.7562 255.439 77.9988 255.611C78.2443 255.786 78.439 256.018 78.5772 256.272Z" fill="#190901"/>
<path d="M77.5813 248.25C77.5813 248.25 79.9117 249.698 82.0813 250.234C84.2537 250.77 85.7011 252.122 85.9832 255.54C86.2654 258.958 87.7155 258.862 87.7155 258.862V250.832C87.7155 250.832 86.1102 248.439 85.45 247.778C84.7898 247.118 82.0813 246.675 81.2321 246.33C80.3829 245.983 77.2343 247.395 77.5813 248.075C77.9283 248.755 77.5813 248.25 77.5813 248.25Z" fill="#614037"/>
<path d="M78.1368 261.798C78.1283 261.772 78.9239 261.625 78.9917 261.611C80.0892 261.416 81.0484 261.772 82.2898 261.659C82.4111 261.648 81.9795 262.15 81.9512 262.179C81.4095 262.687 80.9073 263.003 80.1682 263.028C79.3782 263.056 78.3851 262.517 78.1368 261.798Z" fill="#FFA69F"/>
<path d="M77.5547 261.487C78.0005 261.659 78.4462 261.82 78.9033 261.939C79.3575 262.051 79.8202 262.133 80.2857 262.139C80.7484 262.15 81.214 262.088 81.6569 261.953C82.0942 261.817 82.4807 261.515 82.9068 261.298C82.5315 261.591 82.1817 261.927 81.7162 262.114C81.2619 262.297 80.7682 262.37 80.2829 262.362C79.7948 262.348 79.3124 262.257 78.8553 262.102C78.3954 261.947 77.961 261.741 77.5547 261.487Z" fill="#DE7271"/>
<path d="M79.1682 259.333C79.0271 259.398 78.934 259.545 78.9453 259.689C78.9679 259.822 79.1315 259.889 79.2641 259.937C79.3375 259.963 79.4024 259.977 79.487 260C79.5688 260.028 79.6422 260.079 79.6986 260.141C79.7832 260.239 79.9412 260.273 80.0456 260.225C80.1077 260.197 80.1387 260.169 80.1952 260.098C80.2544 260.033 80.3362 259.983 80.4209 259.957C80.5563 259.912 80.703 259.847 80.7933 259.765C80.8328 259.726 80.8582 259.672 80.861 259.616C80.8638 259.587 80.861 259.559 80.8525 259.534L80.8159 259.429C80.7651 259.283 80.7171 259.136 80.672 258.989C80.5873 258.69 80.514 258.388 80.466 258.077C80.4209 257.764 80.4152 257.454 80.4237 257.143C80.435 256.833 80.466 256.52 80.5507 256.218C80.6381 255.918 80.7623 255.633 80.9118 255.362C80.6776 255.935 80.5422 256.534 80.5704 257.143C80.5845 257.448 80.5845 257.756 80.6381 258.049C80.6889 258.346 80.7679 258.642 80.8554 258.933C80.8977 259.079 80.9428 259.226 80.988 259.37L81.0246 259.483C81.0388 259.531 81.0416 259.579 81.0359 259.63C81.0275 259.729 80.9795 259.822 80.909 259.887C80.7651 260.005 80.6212 260.059 80.466 260.11C80.4039 260.127 80.3503 260.16 80.3052 260.206C80.2657 260.254 80.1782 260.333 80.0964 260.358C79.913 260.423 79.7184 260.355 79.6083 260.217C79.5632 260.163 79.5096 260.121 79.4475 260.096C79.3854 260.073 79.3008 260.05 79.2303 260.019C79.1569 259.988 79.0864 259.949 79.0215 259.898C78.9594 259.85 78.8945 259.779 78.8945 259.683C78.8974 259.52 79.0215 259.376 79.1682 259.333Z" fill="#DE7271"/>
<path d="M78.6183 248.114C78.8355 248.139 78.8468 248.452 78.6324 248.492C77.5602 248.692 75.9352 249.248 75.1 250.77C74.3665 252.11 74.5104 254.78 74.5979 255.802C74.6176 256.022 74.4427 256.211 74.2226 256.211C74.0364 256.211 73.8784 256.076 73.8502 255.889C73.8022 255.573 73.8756 254.952 73.4242 254.84C72.8486 254.698 72.3746 252.615 72.7527 250.558C73.0715 248.819 76.4233 247.86 78.6183 248.114Z" fill="#614037"/>
<path d="M81.5068 253.982C81.3968 254.078 81.504 254.211 81.6253 254.315C81.7297 254.406 81.8736 254.4 82.3984 254.25C82.9203 254.101 83.4789 253.946 83.8767 253.946C84.2745 253.946 85.2338 254.267 85.1633 254.217C84.63 253.841 83.9924 253.694 83.3491 253.692C83.0247 253.689 82.7002 253.72 82.3786 253.765C82.1727 253.799 81.5717 253.926 81.5068 253.982Z" fill="#614037"/>
<path d="M78.7266 253.982C78.8366 254.078 78.7294 254.211 78.6081 254.315C78.5037 254.406 78.3598 254.4 77.835 254.25C77.3131 254.101 76.7544 253.946 76.3566 253.946C75.9588 253.946 74.9996 254.267 75.0701 254.217C75.6033 253.841 76.241 253.694 76.8842 253.692C77.2087 253.689 77.5331 253.72 77.8548 253.765C78.0579 253.799 78.6588 253.926 78.7266 253.982Z" fill="#614037"/>
<path d="M75.7305 255.269C76.1226 255.018 76.5994 254.874 77.0762 254.917C77.5531 254.964 77.996 255.193 78.3346 255.515C77.948 255.258 77.5248 255.049 77.0678 255.012C76.6135 254.962 76.1593 255.089 75.7305 255.269Z" fill="#DE7271"/>
<path d="M84.4596 255.269C84.0307 255.089 83.5765 254.959 83.1222 255.012C82.6652 255.049 82.242 255.258 81.8555 255.515C82.194 255.196 82.637 254.967 83.1138 254.917C83.5906 254.874 84.0674 255.018 84.4596 255.269Z" fill="#DE7271"/>
<path d="M90.0138 256.229C88.8796 253.206 89.0912 251.399 88.5862 250.307C88.2702 249.624 87.9881 248.969 87.4577 248.419C86.8172 247.758 86.0752 247.344 85.3022 246.872C84.4699 246.367 83.6658 245.814 82.8081 245.351C81.4708 244.626 79.761 243.999 78.2319 244.439C77.3093 244.705 76.3275 245.653 76.6265 246.697C76.5758 246.525 75.9748 246.613 75.8507 246.624C75.4811 246.655 75.1566 246.765 74.8237 246.929C73.8786 247.397 73.2071 248.168 72.7021 249.077C71.9375 250.445 71.9629 251.984 72.0701 253.505C72.0955 253.858 72.1237 254.213 72.1434 254.566C72.2027 255.582 72.2083 256.61 72.0588 257.62C72.0193 257.885 71.9685 258.151 71.9064 258.41C71.424 260.426 70.8795 262.734 71.7823 264.205C72.6851 265.675 73.6923 266.367 74.993 266.367C76.2936 266.367 76.6096 266.327 76.6096 266.327V264.075L75.9127 263.321C75.1171 262.458 74.6403 261.349 74.5641 260.177C74.5416 259.997 74.5331 259.833 74.5359 259.692L74.4964 258.989C74.3949 259.051 74.2877 259.088 74.1776 259.088C73.6105 259.088 73.1507 258.204 73.1507 257.115C73.1507 256.025 73.1507 255.142 74.1776 255.142C74.2115 255.142 74.2425 255.145 74.2735 255.15L74.1833 253.592C74.0563 251.402 75.7971 248.382 77.9893 248.382H78.1839H82.4159C84.6081 248.382 86.3489 251.402 86.2219 253.592L85.841 260.141C85.7733 261.326 85.2937 262.452 84.4896 263.324L83.8774 263.988C82.9802 264.961 82.6501 265.32 82.6445 265.325C82.6445 265.325 82.5908 267.612 84.6053 268.032C86.6197 268.453 88.6144 267.55 89.4326 266.731C90.2508 265.913 91.3201 264.507 91.3201 262.828C91.3144 261.143 91.148 259.252 90.0138 256.229Z" fill="#614037"/>
<path d="M29.7148 209.838L34.7763 194.769C35.3914 192.937 36.4691 191.331 37.8826 190.132L55.8884 174.857C56.6473 174.213 57.7646 174.603 58.0383 175.607V176.279C58.0383 180.835 56.3229 185.192 53.2928 188.34L46.9363 194.938L29.7148 209.838Z" fill="#FFD7BA"/>
<path d="M21.6166 221.442L32.6621 198.8C32.9781 198.041 33.5932 197.485 34.3436 197.279L52.5751 192.274C52.908 192.184 53.2579 192.164 53.6021 192.218L66.2022 194.213C67.3138 194.388 68.2223 195.3 68.4734 196.483C68.6991 197.558 68.3379 198.656 67.5451 199.308L64.9805 201.414C64.5432 201.772 64.0044 201.97 63.4457 201.972L53.1563 202.04C52.8065 202.043 52.4623 202.119 52.1463 202.269L43.0192 206.534C42.5481 206.754 42.1531 207.121 41.8851 207.589L27.9138 231.797C26.7994 233.725 24.0909 233.42 23.2445 231.272L21.7125 227.377C21.4191 226.644 21.3203 222.156 21.6166 221.442Z" fill="#FFD7BA"/>
<path d="M21.6133 221.442C23.2835 217.863 24.9848 214.301 26.6748 210.736L31.7927 200.059L32.4331 198.724C32.6306 198.247 32.9663 197.787 33.4008 197.471C33.6181 197.31 33.8607 197.186 34.1175 197.096C34.3798 197.011 34.5999 196.96 34.8425 196.889L36.2701 196.494L41.9777 194.917L47.6853 193.339L50.5376 192.549L51.9652 192.153L52.3235 192.057L52.5013 192.009C52.569 191.992 52.6339 191.976 52.7016 191.964C52.9725 191.913 53.2489 191.902 53.5226 191.933L65.2255 193.81L65.9562 193.929C66.1904 193.965 66.4641 194.005 66.7208 194.098C67.2343 194.276 67.6801 194.609 68.0243 195.018C68.7099 195.842 68.9525 197 68.6478 198.027C68.4983 198.538 68.2161 199.018 67.8212 199.385C67.4262 199.726 67.0509 200.014 66.6644 200.333L65.5133 201.264C65.3158 201.42 65.1437 201.575 64.918 201.733C64.6951 201.882 64.4497 201.998 64.1929 202.077C63.939 202.156 63.6653 202.19 63.4029 202.187H62.6637H61.1825H58.223H55.2634H53.7822L53.0486 202.19C52.8173 202.199 52.5859 202.244 52.3659 202.323L46.9828 204.761L44.2884 205.986L42.9398 206.596C42.4996 206.813 42.1301 207.166 41.879 207.592C42.1188 207.16 42.4799 206.793 42.92 206.562L44.2517 205.916L46.9207 204.634C48.7066 203.782 50.4671 202.924 52.2728 202.077C52.5154 201.984 52.7721 201.928 53.0345 201.913C53.2941 201.905 53.5311 201.905 53.7822 201.902L55.2634 201.882L58.223 201.846L61.1825 201.809L62.6637 201.789L63.4029 201.781C63.6343 201.778 63.8572 201.747 64.0716 201.679C64.286 201.611 64.492 201.513 64.6754 201.383C64.8503 201.259 65.0478 201.081 65.234 200.928L66.371 199.983C66.7434 199.67 67.144 199.345 67.4939 199.043C67.8212 198.738 68.0581 198.335 68.1823 197.9C68.439 197.028 68.2246 196.031 67.6406 195.337C67.35 194.993 66.9748 194.716 66.5516 194.572C66.3428 194.499 66.1255 194.468 65.8716 194.428L65.1409 194.315L53.4549 192.489C53.2377 192.464 53.0176 192.472 52.8032 192.515C52.7496 192.526 52.696 192.537 52.6452 192.551L52.4674 192.599L52.1119 192.698L50.6843 193.088L47.8292 193.867L42.1159 195.422L36.4027 196.977L34.9751 197.366C34.7438 197.431 34.4842 197.496 34.2754 197.561C34.0667 197.635 33.8664 197.736 33.6858 197.869C33.3218 198.134 33.0482 198.495 32.8648 198.93L32.2074 200.257L26.9371 210.869C25.1653 214.389 23.402 217.922 21.6133 221.442Z" fill="#DE7271"/>
<path d="M25.9883 220.829L39.8044 206.621C42.1348 204.224 45.5938 203.301 48.8044 204.222L60.4481 207.549C64.034 208.574 67.1685 210.787 69.3325 213.826L74.0328 220.423L74.2868 221.568C72.8027 223.287 72.0184 223.462 69.7472 223.462L68.9347 223.42C68.1504 223.42 66.7623 223.335 66.2036 222.788L57.497 214.303L46.4204 214.179L35.0956 227.894L25.9883 220.829Z" fill="#FFD7BA"/>
<path d="M25.9883 220.829L33.146 213.319L36.7319 209.57L38.5291 207.702C39.1357 207.087 39.7028 206.437 40.3771 205.859C41.7201 204.719 43.3959 203.973 45.1508 203.742C46.0282 203.629 46.9198 203.64 47.7944 203.776C48.2289 203.841 48.6662 203.951 49.0838 204.067L50.3336 204.417L60.3127 207.245C63.6955 208.162 66.7933 210.163 68.9855 212.915C69.5384 213.607 70.0209 214.318 70.5287 215.018L72.0353 217.129L73.5363 219.243L74.2896 220.31C74.5802 220.739 74.6422 221.312 74.456 221.795C74.3658 222.037 74.219 222.257 74.0244 222.43C73.8241 222.61 73.6209 222.706 73.4234 222.816C73.0256 223.019 72.6137 223.2 72.1877 223.336C71.3356 223.609 70.4385 223.739 69.5469 223.717C67.7582 223.683 66.0005 223.003 64.6265 221.868C63.2948 220.733 62.0647 219.517 60.8515 218.278C59.6412 217.036 58.4703 215.76 57.3333 214.45L57.497 214.527L46.4204 214.343L46.5445 214.287L40.8313 221.1L35.0984 227.899L40.6903 220.984L46.2991 214.084L46.3471 214.024H46.4232L57.5026 214.086H57.5985L57.6663 214.163C58.8117 215.45 59.9939 216.711 61.1958 217.945C62.4033 219.172 63.6419 220.383 64.9453 221.487C66.2375 222.548 67.8851 223.178 69.5582 223.203C70.3933 223.22 71.2313 223.098 72.024 222.839C72.4219 222.712 72.8027 222.542 73.1751 222.351C73.3557 222.249 73.5447 222.153 73.6632 222.04C73.793 221.924 73.8918 221.775 73.951 221.611C74.0752 221.284 74.0328 220.903 73.8354 220.615L73.0877 219.565L71.5783 217.456L70.0745 215.342C69.5695 214.64 69.0842 213.92 68.5594 213.257C66.4463 210.586 63.4613 208.639 60.1716 207.733L50.2038 204.863C49.3687 204.631 48.5477 204.343 47.7239 204.208C46.8916 204.067 46.0395 204.047 45.2016 204.146C43.5229 204.349 41.9063 205.046 40.6028 206.127C39.9567 206.666 39.3727 207.318 38.7605 207.928L36.9435 209.776L33.2984 213.465L25.9883 220.829Z" fill="#DE7271"/>
<path d="M30.2734 235.944L38.9434 218.309C40.4161 215.312 43.466 213.412 46.8065 213.412H53.7385C56.715 213.412 59.4461 215.063 60.8313 217.702L64.4906 224.679C63.5793 226.085 61.9768 226.878 60.3066 226.754C58.8931 226.647 57.5896 225.955 56.715 224.84C55.5921 223.415 53.7752 222.721 51.9893 223.04C49.9889 223.395 48.4372 224.987 48.1353 226.999L45.9065 241.857L30.2763 236.562" fill="#FFD7BA"/>
<path d="M34.8711 226.59L36.9504 222.193L37.9943 219.997L38.5163 218.899C38.6884 218.532 38.8633 218.168 39.058 217.801C39.8536 216.359 41.0639 215.145 42.5085 214.341C43.2307 213.937 44.0094 213.635 44.8163 213.443C45.2198 213.35 45.6289 213.282 46.0436 213.243C46.4555 213.206 46.8759 213.198 47.2765 213.198L52.1405 213.169L53.3565 213.166C53.5596 213.166 53.76 213.164 53.9716 213.172C54.1803 213.175 54.3891 213.186 54.5979 213.212C55.4302 213.296 56.2484 213.505 57.0186 213.833C58.5562 214.493 59.8823 215.633 60.771 217.053L61.0842 217.598L61.3691 218.137L61.9362 219.212L63.0704 221.363L64.1961 223.519L64.4782 224.058L64.6193 224.329L64.6898 224.465L64.7237 224.533L64.7321 224.549C64.7096 225.1 64.718 224.71 64.7124 224.84L64.6898 224.874C64.4528 225.23 64.1651 225.557 63.8406 225.836C63.1945 226.401 62.3933 226.785 61.5525 226.943C60.7089 227.104 59.8315 227.022 59.0246 226.754C58.2149 226.488 57.4785 226.017 56.886 225.407C56.7421 225.258 56.5982 225.083 56.4741 224.933C56.3528 224.784 56.2202 224.643 56.0847 224.507C55.8082 224.239 55.4951 224.008 55.1593 223.818C53.822 223.045 52.0925 222.989 50.7157 223.706C50.033 224.064 49.4292 224.592 49.0088 225.247C48.7972 225.571 48.6223 225.921 48.4982 226.294C48.374 226.663 48.312 227.044 48.2499 227.451L47.4881 232.258C46.9605 235.458 46.4527 238.662 45.9082 241.86C46.3257 238.642 46.78 235.43 47.2173 232.215L47.9 227.397C47.9536 227.002 48.0157 226.579 48.1427 226.175C48.2696 225.772 48.453 225.391 48.6787 225.032C49.1245 224.312 49.7734 223.728 50.5154 223.322C51.2631 222.924 52.1151 222.718 52.9643 222.732C53.8136 222.746 54.6571 222.98 55.3992 223.395C55.7688 223.604 56.1158 223.855 56.4233 224.151C56.5757 224.301 56.7224 224.453 56.855 224.62C56.9904 224.781 57.1061 224.919 57.2415 225.06C57.7832 225.611 58.4518 226.034 59.1854 226.268C59.9161 226.508 60.7061 226.576 61.4566 226.429C62.207 226.285 62.918 225.938 63.4908 225.433C63.7785 225.182 64.0296 224.891 64.2412 224.572L64.261 224.544C64.2582 224.66 64.2836 224.262 64.2553 224.801L64.2469 224.784L64.2102 224.716L64.1397 224.58L63.9986 224.312L63.7136 223.773L62.5795 221.623L61.4566 219.466L60.8951 218.388L60.613 217.849L60.3224 217.338C59.4986 216.003 58.26 214.931 56.8211 214.301C56.0988 213.991 55.3314 213.787 54.5528 213.706C53.7825 213.627 52.9559 213.666 52.149 213.652L47.285 213.624C46.8759 213.618 46.4809 213.621 46.0887 213.649C45.6937 213.68 45.3016 213.739 44.9151 213.821C44.142 213.991 43.3887 214.27 42.6918 214.645C41.2896 215.396 40.1075 216.548 39.3091 217.934C37.7996 220.793 36.3636 223.714 34.8711 226.59Z" fill="#DE7271"/>
<path d="M62.1797 193.273C62.1741 193.465 62.2108 193.711 62.2644 193.928C62.3264 194.148 62.3998 194.368 62.5126 194.572C62.7271 194.984 63.043 195.342 63.4211 195.633C63.7992 195.929 64.2478 196.124 64.7076 196.29C64.9418 196.364 65.1816 196.42 65.4186 196.482L66.1493 196.598L65.4073 196.55C65.1619 196.511 64.9136 196.477 64.6681 196.423L64.3042 196.321C64.2449 196.305 64.1829 196.288 64.1236 196.268L63.9487 196.197C63.833 196.146 63.7117 196.104 63.5989 196.048L63.2631 195.859C62.8286 195.588 62.4393 195.224 62.1515 194.78C61.8637 194.332 61.6691 193.843 61.6211 193.268L62.1797 193.273Z" fill="#DE7271"/>
<path d="M71.2436 217.155C70.8599 217.248 70.527 217.547 70.321 217.934C70.1123 218.32 70.0163 218.78 70.0502 219.235C70.0869 219.695 70.2336 220.149 70.4311 220.584C70.6286 221.019 70.8768 221.434 71.1279 221.846C70.8402 221.459 70.5524 221.069 70.3069 220.649C70.0615 220.228 69.8612 219.768 69.7709 219.271C69.6834 218.769 69.737 218.241 69.9402 217.756C70.1377 217.276 70.527 216.819 71.0743 216.624L71.2436 217.155Z" fill="#DE7271"/>
<path d="M62.65 221.094C62.4582 221.405 62.3228 221.744 62.2692 222.105C62.2127 222.466 62.2409 222.844 62.3228 223.22C62.492 223.973 62.7855 224.713 63.1494 225.416C62.7036 224.761 62.3115 224.064 62.0406 223.299C61.9109 222.912 61.829 222.494 61.846 222.068C61.8601 221.642 61.9786 221.216 62.162 220.829L62.65 221.094Z" fill="#DE7271"/>
<path d="M165.643 165.346L167.551 166.489V167.287L165.127 165.735L162.664 167.321V166.534L164.605 165.362L162.664 164.185V163.387L165.127 164.973L167.551 163.421V164.214L165.643 165.346Z" fill="#484848"/>
<path d="M165.643 170.381L167.551 171.524V172.323L165.127 170.77L162.664 172.356V171.569L164.605 170.398L162.664 169.221V168.422L165.127 170.008L167.551 168.456V169.249L165.643 170.381Z" fill="#484848"/>
<path d="M165.643 177.815L167.551 178.955V179.754L165.127 178.202L162.664 179.788V178.998L164.605 177.826L162.664 176.652V175.854L165.127 177.44L167.551 175.887V176.68L165.643 177.815Z" fill="#484848"/>
<path d="M165.643 182.853L167.551 183.993V184.792L165.127 183.24L162.664 184.826V184.036L164.605 182.865L162.664 181.69V180.892L165.127 182.478L167.551 180.925V181.719L165.643 182.853Z" fill="#484848"/>
<path d="M165.659 196.059L167.566 197.2V197.998L165.143 196.446L162.68 198.032V197.242L164.621 196.071L162.68 194.896V194.098L165.143 195.684L167.566 194.132V194.925L165.659 196.059Z" fill="#484848"/>
<path d="M165.659 201.097L167.566 202.238V203.036L165.143 201.484L162.68 203.07V202.28L164.621 201.109L162.68 199.934V199.136L165.143 200.722L167.566 199.17V199.963L165.659 201.097Z" fill="#484848"/>
<path d="M165.659 206.133L167.566 207.273V208.072L165.143 206.519L162.68 208.106V207.315L164.621 206.144L162.68 204.97V204.171L165.143 205.757L167.566 204.205V204.998L165.659 206.133Z" fill="#484848"/>
<path d="M165.659 211.171L167.566 212.311V213.11L165.143 211.557L162.68 213.143V212.353L164.621 211.182L162.68 210.008V209.209L165.143 210.795L167.566 209.243V210.036L165.659 211.171Z" fill="#484848"/>
<path d="M165.659 216.206L167.566 217.346V218.145L165.143 216.592L162.68 218.179V217.388L164.621 216.217L162.68 215.043V214.244L165.143 215.83L167.566 214.278V215.071L165.659 216.206Z" fill="#484848"/>
<path d="M165.659 221.244L167.566 222.384V223.183L165.143 221.631L162.68 223.217V222.427L164.621 221.255L162.68 220.081V219.282L165.143 220.868L167.566 219.316V220.109L165.659 221.244Z" fill="#484848"/>
<path d="M165.651 236.328L167.559 237.468V238.267L165.135 236.714L162.672 238.301V237.51L164.613 236.339L162.672 235.165V234.366L165.135 235.952L167.559 234.4V235.193L165.651 236.328Z" fill="#484848"/>
<path d="M165.651 241.363L167.559 242.503V243.302L165.135 241.75L162.672 243.336V242.546L164.613 241.374L162.672 240.2V239.401L165.135 240.988L167.559 239.435V240.228L165.651 241.363Z" fill="#484848"/>
<path d="M165.651 248.798L167.559 249.938V250.737L165.135 249.184L162.672 250.77V249.98L164.613 248.809L162.672 247.635V246.836L165.135 248.422L167.559 246.87V247.663L165.651 248.798Z" fill="#484848"/>
<path d="M165.651 253.836L167.559 254.976V255.775L165.135 254.222L162.672 255.809V255.018L164.613 253.847L162.672 252.673V251.874L165.135 253.46L167.559 251.908V252.701L165.651 253.836Z" fill="#484848"/>
<path d="M165.663 267.042L167.57 268.182V268.981L165.147 267.428L162.684 269.015V268.224L164.625 267.053L162.684 265.879V265.08L165.147 266.666L167.57 265.114V265.907L165.663 267.042Z" fill="#484848"/>
<path d="M165.663 272.08L167.57 273.22V274.019L165.147 272.466L162.684 274.053V273.262L164.625 272.091L162.684 270.917V270.118L165.147 271.704L167.57 270.152V270.945L165.663 272.08Z" fill="#484848"/>
<path d="M165.663 277.115L167.57 278.255V279.054L165.147 277.502L162.684 279.088V278.298L164.625 277.126L162.684 275.952V275.153L165.147 276.74L167.57 275.187V275.98L165.663 277.115Z" fill="#484848"/>
<path d="M165.663 282.153L167.57 283.293V284.092L165.147 282.54L162.684 284.126V283.336L164.625 282.164L162.684 280.99V280.191L165.147 281.778L167.57 280.225V281.018L165.663 282.153Z" fill="#484848"/>
<path d="M165.663 287.188L167.57 288.328V289.127L165.147 287.575L162.684 289.161V288.371L164.625 287.199L162.684 286.025V285.227L165.147 286.813L167.57 285.26V286.054L165.663 287.188Z" fill="#484848"/>
<path d="M165.663 292.226L167.57 293.367V294.165L165.147 292.613L162.684 294.199V293.409L164.625 292.238L162.684 291.063V290.265L165.147 291.851L167.57 290.299V291.092L165.663 292.226Z" fill="#484848"/>
<path d="M87.2933 332.189H88.261V333.846H87.3046V332.937L82.1049 332.934V333.843H81.1484V332.186H81.6535C82.1105 332.186 82.466 331.896 82.7228 331.311C82.9795 330.727 83.1798 329.866 83.3209 328.72L83.6764 325.858L87.2962 325.861L87.2933 332.189ZM84.2886 328.723C84.187 329.536 84.0544 330.23 83.888 330.809C83.7215 331.385 83.5043 331.845 83.2362 332.189H86.3369L86.3397 326.615H84.5425L84.2886 328.723Z" fill="#484848"/>
<path d="M96.1644 332.192H97.1321V333.849H96.1757V332.94L90.976 332.937V333.846H90.0195V332.189H90.5246C90.9816 332.189 91.3371 331.899 91.5938 331.314C91.8506 330.73 92.0509 329.869 92.192 328.723L92.5474 325.861H96.1672L96.1644 332.192ZM93.1597 328.726C93.0581 329.539 92.9255 330.233 92.759 330.812C92.5926 331.39 92.3753 331.848 92.1073 332.192H95.208L95.2108 326.618H93.4136L93.1597 328.726Z" fill="#484848"/>
<path d="M100.14 332.943H99.1836V331.961H100.14V332.943Z" fill="#484848"/>
<path d="M106.36 331.619H106.388L108.65 325.87H109.841L109.838 332.946H108.882L108.885 327.642L108.856 327.637L106.712 332.943H106.046L103.843 327.459L103.815 327.465L103.812 332.943H102.855L102.858 325.867H104.117L106.36 331.619Z" fill="#484848"/>
<path d="M115.93 331.622H115.958L118.221 325.873H119.411L119.409 332.949H118.452L118.455 327.645L118.427 327.64L116.283 332.946H115.617L113.413 327.462L113.385 327.468L113.382 332.946H112.426L112.429 325.87H113.687L115.93 331.622Z" fill="#484848"/>
<path d="M122.941 332.954H121.984V331.972H122.941V332.954Z" fill="#484848"/>
<path d="M129.99 326.632H126.608L126.605 332.954H125.648L125.651 325.878L129.99 325.881V326.632Z" fill="#484848"/>
<path d="M136.44 326.634H133.057L133.054 332.957H132.098L132.1 325.881L136.44 325.884V326.634Z" fill="#484848"/>
<path d="M142.893 326.637H139.51L139.507 332.96H138.551L138.554 325.884L142.893 325.887V326.637Z" fill="#484848"/>
<path d="M149.342 326.64H145.959L145.956 332.963H145L145.003 325.887L149.342 325.89V326.64Z" fill="#484848"/>
<path d="M87.3264 352.046H84.4317L84.4289 357.442H83.3906L83.3934 351.213L87.3292 351.216L87.3264 352.046Z" fill="#2256A6"/>
<path d="M93.3512 351.213L93.3484 357.442H92.3101L92.3129 352.045H90.2929V354.1C90.2929 355.271 90.1292 356.124 89.802 356.649C89.4747 357.177 88.9527 357.439 88.2333 357.439H88.0273V356.604H88.1994C88.5916 356.604 88.8681 356.415 89.0233 356.039C89.1784 355.664 89.2574 355.015 89.2574 354.095V351.21L93.3512 351.213Z" fill="#2256A6"/>
<path d="M98.8303 355.991H96.3927L95.8961 357.445H94.8438L97.1347 351.216H98.1193L100.379 357.445H99.324L98.8303 355.991ZM96.6917 355.122H98.534L97.634 352.461H97.6086L96.6917 355.122Z" fill="#2256A6"/>
<path d="M101.844 357.448L101.847 351.219H103.917C104.609 351.219 105.148 351.36 105.534 351.645C105.921 351.93 106.115 352.353 106.115 352.918C106.115 353.2 106.033 353.454 105.87 353.674C105.706 353.894 105.48 354.061 105.193 354.171C105.562 354.253 105.847 354.431 106.048 354.707C106.248 354.981 106.347 355.3 106.347 355.661C106.347 356.246 106.155 356.691 105.774 356.993C105.393 357.298 104.865 357.448 104.191 357.448H101.844ZM102.885 354.614V356.612H104.194C104.552 356.612 104.829 356.531 105.023 356.367C105.218 356.203 105.314 355.966 105.314 355.656C105.314 355.325 105.232 355.069 105.071 354.888C104.911 354.707 104.654 354.614 104.31 354.614H102.885ZM102.885 353.841H104.03C104.352 353.841 104.606 353.765 104.795 353.612C104.984 353.46 105.074 353.242 105.074 352.963C105.074 352.655 104.975 352.427 104.778 352.277C104.58 352.128 104.293 352.051 103.915 352.051H102.885V353.841Z" fill="#2256A6"/>
<path d="M111.555 351.812H111.62C112.365 351.812 112.98 352.049 113.468 352.52C113.956 352.991 114.199 353.607 114.199 354.363C114.199 355.114 113.953 355.721 113.465 356.189C112.977 356.658 112.362 356.889 111.617 356.889H111.553V357.705H110.514V356.889H110.432C109.685 356.889 109.07 356.655 108.584 356.192C108.099 355.726 107.859 355.12 107.859 354.369C107.859 353.612 108.102 352.997 108.587 352.523C109.073 352.049 109.688 351.812 110.435 351.812H110.517V350.965H111.555V351.812ZM110.435 352.675C109.944 352.675 109.563 352.825 109.293 353.121C109.022 353.42 108.886 353.835 108.886 354.369C108.886 354.894 109.022 355.3 109.293 355.591C109.563 355.882 109.944 356.026 110.435 356.026H110.517V352.675H110.435ZM111.555 352.678V356.028H111.629C112.114 356.028 112.492 355.882 112.763 355.588C113.037 355.295 113.172 354.885 113.172 354.366C113.172 353.835 113.037 353.42 112.763 353.124C112.492 352.828 112.111 352.678 111.629 352.678H111.555Z" fill="#2256A6"/>
<path d="M119.729 351.225H120.767L120.765 357.454H119.726L119.729 352.994L119.704 352.986L116.945 357.451H115.906L115.909 351.222H116.947L116.945 355.676L116.97 355.684L119.729 351.225Z" fill="#2256A6"/>
<path d="M127.732 357.46H126.697V354.804H123.909V357.46H122.871L122.874 351.23H123.912V353.968H126.7V351.23H127.735L127.732 357.46Z" fill="#2256A6"/>
<path d="M133.217 356.006H130.779L130.283 357.46H129.23L131.521 351.23H132.506L134.766 357.462H133.711L133.217 356.006ZM131.078 355.137H132.921L132.021 352.475H131.995L131.078 355.137Z" fill="#2256A6"/>
<path d="M141.096 357.465H140.06V354.809H137.273V357.465H136.234L136.237 351.235H137.275V353.973H140.063V351.235H141.098L141.096 357.465Z" fill="#2256A6"/>
<path d="M147.744 355.402L147.752 355.427C147.763 356.057 147.557 356.57 147.137 356.966C146.717 357.361 146.147 357.558 145.427 357.558C144.699 357.558 144.11 357.313 143.655 356.824C143.201 356.336 142.973 355.71 142.973 354.947V353.762C142.973 353.003 143.198 352.379 143.647 351.885C144.096 351.394 144.68 351.148 145.399 351.148C146.135 351.148 146.714 351.343 147.137 351.73C147.56 352.117 147.766 352.636 147.755 353.291L147.746 353.316H146.742C146.742 352.896 146.629 352.571 146.403 352.337C146.178 352.102 145.842 351.987 145.402 351.984C144.976 351.984 144.64 352.15 144.389 352.489C144.141 352.825 144.014 353.246 144.014 353.754V354.947C144.014 355.461 144.141 355.885 144.395 356.22C144.649 356.556 144.993 356.726 145.427 356.726C145.859 356.726 146.183 356.61 146.406 356.381C146.629 356.15 146.739 355.825 146.739 355.405L147.744 355.402Z" fill="#2256A6"/>
</g>
<defs>
<clipPath id="clip0_53_5605">
<rect width="421" height="389" fill="white"/>
</clipPath>
</defs>
</svg>
