<svg width="32" height="32" viewBox="0 0 32 32" fill="none" xmlns="http://www.w3.org/2000/svg">
<g clip-path="url(#clip0_323_446)">
<path d="M16 0C7.17653 0 0 7.17653 0 16C0 24.8235 7.17653 32 16 32C24.8235 32 32 24.8235 32 16C32 7.17653 24.8235 0 16 0ZM16 29.8667C8.35413 29.8667 2.13333 23.6459 2.13333 16C2.13333 8.35413 8.35413 2.13333 16 2.13333C23.6459 2.13333 29.8667 8.35413 29.8667 16C29.8667 23.6459 23.6459 29.8667 16 29.8667Z" fill="#00C82C"/>
<path d="M17.0687 7.4668H14.9354V14.9335H7.46875V17.0668H14.9354V24.5335H17.0687V17.0668H24.5354V14.9335H17.0687V7.4668Z" fill="#00C82C"/>
</g>
<defs>
<clipPath id="clip0_323_446">
<rect width="32" height="32" fill="white"/>
</clipPath>
</defs>
</svg>
