<svg width="24" height="24" viewBox="0 0 24 24" fill="none" xmlns="http://www.w3.org/2000/svg">
<path d="M12 24C18.6274 24 24 18.6274 24 12C24 5.37258 18.6274 0 12 0C5.37258 0 0 5.37258 0 12C0 18.6274 5.37258 24 12 24Z" fill="#00C82C"/>
<path d="M17.6254 7.96872C17.5248 7.8705 17.3895 7.81609 17.2489 7.81741C17.1083 7.81872 16.974 7.87566 16.8754 7.97575L10.0916 14.8893L7.0916 11.8322C6.99192 11.7362 6.85875 11.6829 6.72039 11.6836C6.58203 11.6842 6.44938 11.7388 6.35063 11.8358C6.25188 11.9327 6.19482 12.0643 6.19155 12.2026C6.18829 12.3409 6.2391 12.4751 6.33317 12.5765L9.71567 16.0256C9.81441 16.1256 9.9487 16.1824 10.0892 16.1838C10.2297 16.1851 10.3651 16.1307 10.4657 16.0326C10.4904 16.0082 10.5129 15.9815 10.5327 15.9529L10.5514 15.9356L17.6296 8.71685C17.7277 8.61682 17.7823 8.48205 17.7815 8.34192C17.7808 8.20178 17.7246 8.06764 17.6254 7.96872Z" fill="#F4F4F4"/>
</svg>
