<svg width="16" height="17" viewBox="0 0 16 17" fill="none" xmlns="http://www.w3.org/2000/svg">
<circle cx="8" cy="8" r="8" fill="#D31616"/>
<path d="M8.296 10.816H7.274L7.176 3.158H8.422L8.296 10.816ZM7.806 13.168C7.60067 13.168 7.428 13.1027 7.288 12.972C7.15733 12.832 7.092 12.664 7.092 12.468C7.092 12.272 7.15733 12.104 7.288 11.964C7.428 11.824 7.60067 11.754 7.806 11.754C8.002 11.754 8.17 11.824 8.31 11.964C8.45 12.104 8.52 12.272 8.52 12.468C8.52 12.664 8.45 12.832 8.31 12.972C8.17 13.1027 8.002 13.168 7.806 13.168Z" fill="white"/>
</svg>
