<svg width="32" height="32" viewBox="0 0 32 32" fill="none" xmlns="http://www.w3.org/2000/svg">
<g clip-path="url(#clip0_323_380)">
<path d="M16 0C7.17653 0 0 7.17653 0 16C0 24.8235 7.17653 32 16 32C24.8235 32 32 24.8235 32 16C32 7.17653 24.8235 0 16 0ZM16 29.8667C8.35413 29.8667 2.13333 23.6459 2.13333 16C2.13333 8.35413 8.35413 2.13333 16 2.13333C23.6459 2.13333 29.8667 8.35413 29.8667 16C29.8667 23.6459 23.6459 29.8667 16 29.8667Z" fill="#D31616"/>
<path d="M16.0187 14.4707L14.5102 16.02L9.23047 21.4424L10.6993 22.9509L15.979 17.5285L17.4875 15.9792L22.7672 10.5568L21.2984 9.04827L16.0187 14.4707Z" fill="#D31616"/>
<path d="M17.4874 16.0205L15.9789 14.4713L10.6992 9.04883L9.23042 10.5573L14.5102 15.9798L16.0186 17.529L21.2984 22.9514L22.7672 21.4429L17.4874 16.0205Z" fill="#D31616"/>
</g>
<defs>
<clipPath id="clip0_323_380">
<rect width="32" height="32" fill="white"/>
</clipPath>
</defs>
</svg>
