<svg width="24" height="25" viewBox="0 0 24 25" fill="none" xmlns="http://www.w3.org/2000/svg">
<path d="M24.3125 7.19372V31.0647C24.3125 32.1369 23.4553 33.0002 22.3906 33.0002H1.89065C0.825919 33.0002 -0.03125 32.1369 -0.03125 31.0647V2.67759C-0.03125 1.60533 0.825919 0.742188 1.89065 0.742188H17.9062" fill="#0D4DA1"/>
<path d="M17.9062 0.742188V5.25824C17.9062 6.3305 18.7634 7.19372 19.8281 7.19372H24.3125L17.9062 0.742188Z" fill="#A6C5FA"/>
<path fill-rule="evenodd" clip-rule="evenodd" d="M5.10287 14.2891C5.01798 14.2879 4.9337 14.3037 4.85492 14.3356C4.77615 14.3675 4.70445 14.4148 4.64399 14.4748C4.58354 14.5349 4.53553 14.6064 4.50277 14.6853C4.47 14.7641 4.45312 14.8488 4.45312 14.9343C4.45312 15.0198 4.47 15.1044 4.50277 15.1833C4.53553 15.2622 4.58354 15.3337 4.64399 15.3937C4.70445 15.4538 4.77615 15.5011 4.85492 15.533C4.9337 15.5649 5.01798 15.5807 5.10287 15.5795H13.5912H19.1866C19.2715 15.5807 19.3558 15.5649 19.4346 15.533C19.5133 15.5011 19.585 15.4538 19.6455 15.3937C19.706 15.3337 19.754 15.2622 19.7867 15.1833C19.8195 15.1044 19.8364 15.0198 19.8364 14.9343C19.8364 14.8488 19.8195 14.7641 19.7867 14.6853C19.754 14.6064 19.706 14.5349 19.6455 14.4748C19.585 14.4148 19.5133 14.3675 19.4346 14.3356C19.3558 14.3037 19.2715 14.2879 19.1866 14.2891H13.5912H5.10287Z" fill="#F9F9F9"/>
<path fill-rule="evenodd" clip-rule="evenodd" d="M5.10287 16.8702C5.01798 16.869 4.9337 16.8848 4.85492 16.9166C4.77615 16.9485 4.70445 16.9959 4.64399 17.0559C4.58354 17.1159 4.53553 17.1874 4.50277 17.2663C4.47 17.3452 4.45312 17.4298 4.45312 17.5153C4.45312 17.6008 4.47 17.6855 4.50277 17.7644C4.53553 17.8432 4.58354 17.9148 4.64399 17.9748C4.70445 18.0348 4.77615 18.0822 4.85492 18.114C4.9337 18.1459 5.01798 18.1617 5.10287 18.1605H13.5912H19.1866C19.2715 18.1617 19.3558 18.1459 19.4346 18.114C19.5133 18.0822 19.585 18.0348 19.6455 17.9748C19.706 17.9148 19.754 17.8432 19.7867 17.7644C19.8195 17.6855 19.8364 17.6008 19.8364 17.5153C19.8364 17.4298 19.8195 17.3452 19.7867 17.2663C19.754 17.1874 19.706 17.1159 19.6455 17.0559C19.585 16.9959 19.5133 16.9485 19.4346 16.9166C19.3558 16.8848 19.2715 16.869 19.1866 16.8702H13.5912H5.10287Z" fill="#F9F9F9"/>
<path fill-rule="evenodd" clip-rule="evenodd" d="M5.10287 22.0313C5.01798 22.0301 4.9337 22.0459 4.85492 22.0778C4.77615 22.1097 4.70445 22.157 4.64399 22.217C4.58354 22.277 4.53553 22.3486 4.50277 22.4275C4.47 22.5063 4.45312 22.591 4.45312 22.6765C4.45312 22.762 4.47 22.8466 4.50277 22.9255C4.53553 23.0044 4.58354 23.0759 4.64399 23.1359C4.70445 23.196 4.77615 23.2433 4.85492 23.2752C4.9337 23.3071 5.01798 23.3228 5.10287 23.3216H10.6983H14.0616C14.1465 23.3228 14.2308 23.3071 14.3096 23.2752C14.3883 23.2433 14.46 23.196 14.5205 23.1359C14.581 23.0759 14.629 23.0044 14.6617 22.9255C14.6945 22.8466 14.7114 22.762 14.7114 22.6765C14.7114 22.591 14.6945 22.5063 14.6617 22.4275C14.629 22.3486 14.581 22.277 14.5205 22.217C14.46 22.157 14.3883 22.1097 14.3096 22.0778C14.2308 22.0459 14.1465 22.0301 14.0616 22.0313H10.6983H5.10287ZM16.6241 22.0313C16.5392 22.0301 16.4549 22.0459 16.3762 22.0778C16.2974 22.1097 16.2257 22.157 16.1652 22.217C16.1048 22.277 16.0568 22.3486 16.024 22.4275C15.9912 22.5063 15.9744 22.591 15.9744 22.6765C15.9744 22.762 15.9912 22.8466 16.024 22.9255C16.0568 23.0044 16.1048 23.0759 16.1652 23.1359C16.2257 23.196 16.2974 23.2433 16.3762 23.2752C16.4549 23.3071 16.5392 23.3228 16.6241 23.3216C16.709 23.3228 16.7933 23.3071 16.8721 23.2752C16.9508 23.2433 17.0225 23.196 17.083 23.1359C17.1434 23.0759 17.1915 23.0044 17.2242 22.9255C17.257 22.8466 17.2739 22.762 17.2739 22.6765C17.2739 22.591 17.257 22.5063 17.2242 22.4275C17.1915 22.3486 17.1434 22.277 17.083 22.217C17.0225 22.157 16.9508 22.1097 16.8721 22.0778C16.7933 22.0459 16.709 22.0301 16.6241 22.0313Z" fill="#F9F9F9"/>
<path fill-rule="evenodd" clip-rule="evenodd" d="M5.10287 19.4512C5.01798 19.45 4.9337 19.4658 4.85492 19.4977C4.77615 19.5296 4.70445 19.5769 4.64399 19.6369C4.58354 19.697 4.53553 19.7685 4.50277 19.8474C4.47 19.9262 4.45312 20.0109 4.45312 20.0964C4.45312 20.1819 4.47 20.2665 4.50277 20.3454C4.53553 20.4243 4.58354 20.4958 4.64399 20.5559C4.70445 20.6159 4.77615 20.6632 4.85492 20.6951C4.9337 20.727 5.01798 20.7428 5.10287 20.7416H13.5912H19.1866C19.2715 20.7428 19.3558 20.727 19.4346 20.6951C19.5133 20.6632 19.585 20.6159 19.6455 20.5559C19.706 20.4958 19.754 20.4243 19.7867 20.3454C19.8195 20.2665 19.8364 20.1819 19.8364 20.0964C19.8364 20.0109 19.8195 19.9262 19.7867 19.8474C19.754 19.7685 19.706 19.697 19.6455 19.6369C19.585 19.5769 19.5133 19.5296 19.4346 19.4977C19.3558 19.4658 19.2715 19.45 19.1866 19.4512H13.5912H5.10287Z" fill="#F9F9F9"/>
</svg>
