<svg width="24" height="32" viewBox="0 0 24 32" fill="none" xmlns="http://www.w3.org/2000/svg">
<g clip-path="url(#clip0_1_5900)">
<path d="M24.3125 6.19372V30.0647C24.3125 31.1369 23.4553 32.0002 22.3906 32.0002H1.89065C0.825919 32.0002 -0.03125 31.1369 -0.03125 30.0647V1.67759C-0.03125 0.605335 0.825919 -0.257812 1.89065 -0.257812H17.9062" fill="#0D4DA1"/>
<path d="M17.9062 -0.257812V4.25824C17.9062 5.3305 18.7634 6.19372 19.8281 6.19372H24.3125L17.9062 -0.257812Z" fill="#A6C5FA"/>
<path fill-rule="evenodd" clip-rule="evenodd" d="M5.10385 13.2896C5.01896 13.2884 4.93468 13.3042 4.8559 13.3361C4.77712 13.368 4.70543 13.4153 4.64497 13.4753C4.58451 13.5353 4.53651 13.6069 4.50374 13.6858C4.47098 13.7646 4.4541 13.8493 4.4541 13.9348C4.4541 14.0203 4.47098 14.1049 4.50374 14.1838C4.53651 14.2627 4.58451 14.3342 4.64497 14.3942C4.70543 14.4543 4.77712 14.5016 4.8559 14.5335C4.93468 14.5654 5.01896 14.5811 5.10385 14.5799H13.5921H19.1876C19.2725 14.5811 19.3568 14.5654 19.4355 14.5335C19.5143 14.5016 19.586 14.4543 19.6465 14.3942C19.7069 14.3342 19.7549 14.2627 19.7877 14.1838C19.8205 14.1049 19.8373 14.0203 19.8373 13.9348C19.8373 13.8493 19.8205 13.7646 19.7877 13.6858C19.7549 13.6069 19.7069 13.5353 19.6465 13.4753C19.586 13.4153 19.5143 13.368 19.4355 13.3361C19.3568 13.3042 19.2725 13.2884 19.1876 13.2896H13.5921H5.10385Z" fill="#F9F9F9"/>
<path fill-rule="evenodd" clip-rule="evenodd" d="M5.10385 15.8702C5.01896 15.869 4.93468 15.8848 4.8559 15.9166C4.77712 15.9485 4.70543 15.9959 4.64497 16.0559C4.58451 16.1159 4.53651 16.1874 4.50374 16.2663C4.47098 16.3452 4.4541 16.4298 4.4541 16.5153C4.4541 16.6008 4.47098 16.6855 4.50374 16.7644C4.53651 16.8432 4.58451 16.9148 4.64497 16.9748C4.70543 17.0348 4.77712 17.0822 4.8559 17.114C4.93468 17.1459 5.01896 17.1617 5.10385 17.1605H13.5921H19.1876C19.2725 17.1617 19.3568 17.1459 19.4355 17.114C19.5143 17.0822 19.586 17.0348 19.6465 16.9748C19.7069 16.9148 19.7549 16.8432 19.7877 16.7644C19.8205 16.6855 19.8373 16.6008 19.8373 16.5153C19.8373 16.4298 19.8205 16.3452 19.7877 16.2663C19.7549 16.1874 19.7069 16.1159 19.6465 16.0559C19.586 15.9959 19.5143 15.9485 19.4355 15.9166C19.3568 15.8848 19.2725 15.869 19.1876 15.8702H13.5921H5.10385Z" fill="#F9F9F9"/>
<path fill-rule="evenodd" clip-rule="evenodd" d="M5.10385 21.0316C5.01896 21.0303 4.93468 21.0461 4.8559 21.078C4.77712 21.1099 4.70543 21.1572 4.64497 21.2173C4.58451 21.2773 4.53651 21.3488 4.50374 21.4277C4.47098 21.5066 4.4541 21.5912 4.4541 21.6767C4.4541 21.7622 4.47098 21.8469 4.50374 21.9257C4.53651 22.0046 4.58451 22.0761 4.64497 22.1362C4.70543 22.1962 4.77712 22.2435 4.8559 22.2754C4.93468 22.3073 5.01896 22.3231 5.10385 22.3219H10.6993H14.0626C14.1475 22.3231 14.2318 22.3073 14.3105 22.2754C14.3893 22.2435 14.461 22.1962 14.5215 22.1362C14.5819 22.0761 14.6299 22.0046 14.6627 21.9257C14.6955 21.8469 14.7123 21.7622 14.7123 21.6767C14.7123 21.5912 14.6955 21.5066 14.6627 21.4277C14.6299 21.3488 14.5819 21.2773 14.5215 21.2173C14.461 21.1572 14.3893 21.1099 14.3105 21.078C14.2318 21.0461 14.1475 21.0303 14.0626 21.0316H10.6993H5.10385ZM16.6251 21.0316C16.5402 21.0303 16.4559 21.0461 16.3771 21.078C16.2984 21.1099 16.2267 21.1572 16.1662 21.2173C16.1058 21.2773 16.0577 21.3488 16.025 21.4277C15.9922 21.5066 15.9753 21.5912 15.9753 21.6767C15.9753 21.7622 15.9922 21.8469 16.025 21.9257C16.0577 22.0046 16.1058 22.0761 16.1662 22.1362C16.2267 22.1962 16.2984 22.2435 16.3771 22.2754C16.4559 22.3073 16.5402 22.3231 16.6251 22.3219C16.71 22.3231 16.7943 22.3073 16.873 22.2754C16.9518 22.2435 17.0235 22.1962 17.084 22.1362C17.1444 22.0761 17.1924 22.0046 17.2252 21.9257C17.258 21.8469 17.2748 21.7622 17.2748 21.6767C17.2748 21.5912 17.258 21.5066 17.2252 21.4277C17.1924 21.3488 17.1444 21.2773 17.084 21.2173C17.0235 21.1572 16.9518 21.1099 16.873 21.078C16.7943 21.0461 16.71 21.0303 16.6251 21.0316Z" fill="#F9F9F9"/>
<path fill-rule="evenodd" clip-rule="evenodd" d="M5.10385 18.451C5.01896 18.4498 4.93468 18.4656 4.8559 18.4975C4.77712 18.5293 4.70543 18.5767 4.64497 18.6367C4.58451 18.6967 4.53651 18.7683 4.50374 18.8471C4.47098 18.926 4.4541 19.0107 4.4541 19.0962C4.4541 19.1817 4.47098 19.2663 4.50374 19.3452C4.53651 19.4241 4.58451 19.4956 4.64497 19.5556C4.70543 19.6156 4.77712 19.663 4.8559 19.6948C4.93468 19.7267 5.01896 19.7425 5.10385 19.7413H13.5921H19.1876C19.2725 19.7425 19.3568 19.7267 19.4355 19.6948C19.5143 19.663 19.586 19.6156 19.6465 19.5556C19.7069 19.4956 19.7549 19.4241 19.7877 19.3452C19.8205 19.2663 19.8373 19.1817 19.8373 19.0962C19.8373 19.0107 19.8205 18.926 19.7877 18.8471C19.7549 18.7683 19.7069 18.6967 19.6465 18.6367C19.586 18.5767 19.5143 18.5293 19.4355 18.4975C19.3568 18.4656 19.2725 18.4498 19.1876 18.451H13.5921H5.10385Z" fill="#F9F9F9"/>
</g>
<defs>
<clipPath id="clip0_1_5900">
<rect width="24" height="32" fill="white"/>
</clipPath>
</defs>
</svg>
