<svg width="16" height="17" viewBox="0 0 16 17" fill="none" xmlns="http://www.w3.org/2000/svg">
<circle cx="8" cy="8" r="8" fill="#00AEEF"/>
<path d="M8.3 10.14H7.436V9.384C7.436 9.064 7.492 8.776 7.604 8.52C7.724 8.264 7.872 8.06 8.048 7.908C8.232 7.748 8.424 7.588 8.624 7.428C8.832 7.268 9.024 7.12 9.2 6.984C9.384 6.848 9.532 6.676 9.644 6.468C9.764 6.26 9.824 6.032 9.824 5.784C9.824 5.296 9.64 4.916 9.272 4.644C8.904 4.372 8.46 4.236 7.94 4.236C7.052 4.236 6.4 4.608 5.984 5.352L5.3 4.92C5.548 4.448 5.912 4.088 6.392 3.84C6.872 3.592 7.404 3.468 7.988 3.468C8.78 3.468 9.432 3.676 9.944 4.092C10.464 4.508 10.724 5.064 10.724 5.76C10.724 6.128 10.64 6.456 10.472 6.744C10.304 7.024 10.1 7.256 9.86 7.44C9.628 7.616 9.392 7.792 9.152 7.968C8.92 8.136 8.72 8.344 8.552 8.592C8.384 8.832 8.3 9.108 8.3 9.42V10.14ZM8.288 11.976C8.176 12.088 8.04 12.144 7.88 12.144C7.72 12.144 7.58 12.088 7.46 11.976C7.348 11.864 7.292 11.728 7.292 11.568C7.292 11.408 7.348 11.272 7.46 11.16C7.58 11.048 7.72 10.992 7.88 10.992C8.04 10.992 8.176 11.048 8.288 11.16C8.4 11.272 8.456 11.408 8.456 11.568C8.456 11.728 8.4 11.864 8.288 11.976Z" fill="white"/>
</svg>
