<svg width="448" height="620" viewBox="0 0 448 620" fill="none" xmlns="http://www.w3.org/2000/svg">
<path d="M415.692 -1.41221e-06C433.535 -6.32269e-07 448 14.4448 448 32.2634L448 587.193C448 605.012 433.535 619.457 415.692 619.457L32.3077 619.457C14.4646 619.457 -5.69635e-05 605.012 -5.61846e-05 587.193L-3.19279e-05 32.2633C-3.1149e-05 14.4448 14.4646 -1.89504e-05 32.3077 -1.81705e-05L415.692 -1.41221e-06Z" fill="#E8E4EC"/>
<path d="M47.5252 29.3451C48.7198 29.3451 49.6905 29.7065 50.4372 30.4292C51.1838 31.1519 51.5572 32.0811 51.5572 33.2167C51.5572 34.3753 51.1781 35.316 50.4199 36.0387C49.6733 36.7614 48.6739 37.1227 47.4218 37.1227L43.7344 37.1227L43.7344 40.8567L42.4766 40.8567L42.4766 29.3451L47.5252 29.3451ZM43.7344 36.0215L47.3012 36.0215C48.1857 36.0215 48.8979 35.7634 49.4378 35.2472C49.9892 34.7195 50.2649 34.0484 50.2649 33.2339C50.2649 32.4195 50.0007 31.7541 49.4723 31.2379C48.9438 30.7217 48.2489 30.4636 47.3873 30.4636L43.7344 30.4636L43.7344 36.0215Z" fill="#680606"/>
<path d="M65.5906 41.046C63.9134 41.046 62.5177 40.4839 61.4035 39.3597C60.3007 38.224 59.7493 36.8073 59.7493 35.1095C59.7493 33.4117 60.3065 31.995 61.4207 30.8593C62.535 29.7237 63.9249 29.1558 65.5906 29.1558C67.2562 29.1558 68.6404 29.7237 69.7432 30.8593C70.8459 31.995 71.3973 33.4117 71.3973 35.1095C71.3973 36.8073 70.8459 38.224 69.7432 39.3597C68.6404 40.4839 67.2562 41.046 65.5906 41.046ZM65.5906 39.8759C66.8656 39.8759 67.9397 39.417 68.8127 38.4993C69.6972 37.5701 70.1395 36.4402 70.1395 35.1095C70.1395 33.7674 69.6972 32.6374 68.8127 31.7197C67.9397 30.7905 66.8656 30.3259 65.5906 30.3259C64.304 30.3259 63.2185 30.7905 62.3339 31.7197C61.4494 32.6374 61.0072 33.7674 61.0072 35.1095C61.0072 36.4402 61.4494 37.5701 62.3339 38.4993C63.2185 39.417 64.304 39.8759 65.5906 39.8759Z" fill="#680606"/>
<path d="M85.6752 41.046C84.0095 41.046 82.6196 40.4839 81.5053 39.3597C80.3911 38.224 79.834 36.8073 79.834 35.1095C79.834 33.4117 80.3911 31.995 81.5053 30.8593C82.6196 29.7237 84.0095 29.1558 85.6752 29.1558C86.9043 29.1558 87.9956 29.477 88.949 30.1194C89.9025 30.7618 90.5917 31.6279 91.0167 32.7177L89.8795 33.2511C89.5349 32.3793 88.9835 31.6738 88.2253 31.1347C87.4672 30.5955 86.6114 30.3259 85.658 30.3259C84.3829 30.3259 83.3031 30.7905 82.4186 31.7197C81.5341 32.6374 81.0918 33.7674 81.0918 35.1095C81.0918 36.4517 81.5341 37.5816 82.4186 38.4993C83.3031 39.417 84.3886 39.8759 85.6752 39.8759C86.6056 39.8759 87.4442 39.6178 88.1909 39.1016C88.949 38.5854 89.5004 37.8971 89.845 37.0367L91.0167 37.5357C90.5917 38.6026 89.8967 39.4572 88.9318 40.0996C87.9784 40.7305 86.8928 41.046 85.6752 41.046Z" fill="#680606"/>
<path d="M105.003 41.046C103.337 41.046 101.947 40.4839 100.833 39.3597C99.7185 38.224 99.1614 36.8073 99.1614 35.1095C99.1614 33.4117 99.7185 31.995 100.833 30.8593C101.947 29.7237 103.337 29.1558 105.003 29.1558C106.232 29.1558 107.323 29.477 108.276 30.1194C109.23 30.7618 109.919 31.6279 110.344 32.7177L109.207 33.2511C108.862 32.3793 108.311 31.6738 107.553 31.1347C106.795 30.5955 105.939 30.3259 104.985 30.3259C103.71 30.3259 102.63 30.7905 101.746 31.7197C100.861 32.6374 100.419 33.7674 100.419 35.1095C100.419 36.4517 100.861 37.5816 101.746 38.4993C102.63 39.417 103.716 39.8759 105.003 39.8759C105.933 39.8759 106.772 39.6178 107.518 39.1016C108.276 38.5854 108.828 37.8971 109.172 37.0367L110.344 37.5357C109.919 38.6026 109.224 39.4572 108.259 40.0996C107.306 40.7305 106.22 41.046 105.003 41.046Z" fill="#680606"/>
<path d="M120.522 38.8435L127.69 29.3451L128.896 29.3451L128.896 40.8567L127.656 40.8567L127.656 31.3067L120.436 40.8567L119.281 40.8567L119.281 29.3451L120.522 29.3451L120.522 38.8435Z" fill="#680606"/>
<path d="M145.649 27.7276C145.155 28.175 144.512 28.3987 143.719 28.3987C142.927 28.3987 142.284 28.175 141.79 27.7276C141.296 27.2803 141.043 26.678 141.031 25.9209L142.134 25.9209C142.146 26.3912 142.295 26.7755 142.582 27.0738C142.881 27.3606 143.26 27.504 143.719 27.504C144.179 27.504 144.552 27.3606 144.839 27.0738C145.127 26.7755 145.276 26.3912 145.287 25.9209L146.39 25.9209C146.39 26.6665 146.143 27.2688 145.649 27.7276ZM140.135 38.8435L147.303 29.3451L148.51 29.3451L148.51 40.8567L147.269 40.8567L147.269 31.3067L140.049 40.8567L138.895 40.8567L138.895 29.3451L140.135 29.3451L140.135 38.8435Z" fill="#680606"/>
<path d="M163.557 41.046C161.891 41.046 160.501 40.4839 159.387 39.3597C158.273 38.224 157.716 36.8073 157.716 35.1095C157.716 33.4117 158.273 31.995 159.387 30.8593C160.501 29.7237 161.891 29.1558 163.557 29.1558C164.786 29.1558 165.877 29.477 166.831 30.1194C167.784 30.7618 168.473 31.6279 168.898 32.7177L167.761 33.2511C167.417 32.3793 166.865 31.6738 166.107 31.1347C165.349 30.5955 164.493 30.3259 163.54 30.3259C162.265 30.3259 161.185 30.7905 160.3 31.7197C159.416 32.6374 158.974 33.7674 158.974 35.1095C158.974 36.4517 159.416 37.5816 160.3 38.4993C161.185 39.417 162.27 39.8759 163.557 39.8759C164.487 39.8759 165.326 39.6178 166.073 39.1016C166.831 38.5854 167.382 37.8971 167.727 37.0367L168.898 37.5357C168.473 38.6026 167.778 39.4572 166.814 40.0996C165.86 40.7305 164.775 41.046 163.557 41.046Z" fill="#680606"/>
<path d="M180.403 35.1095L186.916 40.8567L185.21 40.8567L179.111 35.5225L179.111 40.8567L177.836 40.8567L177.836 29.3451L179.111 29.3451L179.111 34.7998L185.055 29.3451L186.675 29.3451L180.403 35.1095Z" fill="#680606"/>
<path d="M204.993 40.8567L203.615 40.8567L202.426 37.811L196.739 37.811L195.533 40.8567L194.155 40.8567L198.945 29.3451L200.289 29.3451L204.993 40.8567ZM202.012 36.7098L199.634 30.584L197.153 36.7098L202.012 36.7098Z" fill="#680606"/>
<path d="M221.783 29.3451L221.783 40.8567L220.559 40.8567L220.559 36.7614L217.975 36.7614L214.218 40.8567L212.667 40.8567L216.493 36.7614C215.401 36.704 214.511 36.3427 213.822 35.6773C213.133 35.0005 212.788 34.1287 212.788 33.0619C212.788 31.9835 213.167 31.0945 213.925 30.3948C214.683 29.695 215.648 29.3451 216.82 29.3451L221.783 29.3451ZM217.079 35.7634L220.559 35.7634L220.559 30.4464L216.992 30.4464C216.131 30.4464 215.424 30.6987 214.873 31.2035C214.333 31.7082 214.063 32.3506 214.063 33.1307C214.063 33.9452 214.339 34.5876 214.89 35.0579C215.442 35.5282 216.171 35.7634 217.079 35.7634Z" fill="#680606"/>
<path d="M252.054 30.4808C253.237 30.4808 254.19 30.9052 254.914 31.7541C255.649 32.603 256.017 33.7157 256.017 35.0923C256.017 36.4574 255.655 37.5701 254.931 38.4305C254.208 39.2908 253.248 39.721 252.054 39.721C251.25 39.721 250.4 39.5031 249.504 39.0672L249.504 41.4934L248.297 41.4934L248.297 39.0672C247.378 39.5031 246.523 39.721 245.73 39.721C244.535 39.721 243.576 39.2908 242.853 38.4305C242.129 37.5587 241.767 36.4459 241.767 35.0923C241.767 33.7272 242.129 32.6202 242.853 31.7713C243.588 30.911 244.547 30.4808 245.73 30.4808C246.569 30.4808 247.424 30.7274 248.297 31.2207L248.297 28.7085L249.504 28.7085L249.504 31.2035C250.319 30.7217 251.169 30.4808 252.054 30.4808ZM243.042 35.0923C243.042 36.1477 243.318 37.0138 243.869 37.6906C244.432 38.3559 245.156 38.6886 246.04 38.6886C246.833 38.6886 247.591 38.4764 248.315 38.0519L248.315 32.2359C247.511 31.7541 246.758 31.5132 246.057 31.5132C245.115 31.5132 244.375 31.8574 243.835 32.5456C243.306 33.2225 243.042 34.0713 243.042 35.0923ZM251.778 38.6886C252.651 38.6886 253.369 38.3559 253.932 37.6906C254.495 37.0138 254.776 36.1477 254.776 35.0923C254.776 34.0828 254.506 33.2339 253.966 32.5456C253.426 31.8574 252.691 31.5132 251.761 31.5132C251.049 31.5132 250.29 31.7484 249.486 32.2187L249.486 38.0519C250.256 38.4764 251.02 38.6886 251.778 38.6886Z" fill="#680606"/>
<path d="M266.509 35.5913L266.509 39.7382L273.419 39.7382L273.419 40.8567L265.252 40.8567L265.252 29.3451L273.229 29.3451L273.229 30.4636L266.509 30.4636L266.509 34.4728L272.988 34.4728L272.988 35.5913L266.509 35.5913Z" fill="#680606"/>
<path d="M291.741 29.3451L291.741 39.7382L293.498 39.7382L293.498 43.1452L292.258 43.1452L292.258 40.8567L282.574 40.8567L282.574 43.1452L281.334 43.1452L281.334 39.7382L282.833 39.7382C283.533 38.8893 283.884 37.1457 283.884 34.5073L283.884 29.3451L291.741 29.3451ZM285.124 30.4636L285.124 34.817C285.124 37.0424 284.837 38.6829 284.263 39.7382L290.5 39.7382L290.5 30.4636L285.124 30.4636Z" fill="#680606"/>
<path d="M303.65 35.5913L303.65 39.7382L310.559 39.7382L310.559 40.8567L302.392 40.8567L302.392 29.3451L310.37 29.3451L310.37 30.4636L303.65 30.4636L303.65 34.4728L310.129 34.4728L310.129 35.5913L303.65 35.5913Z" fill="#680606"/>
<path d="M324.867 29.3451C326.061 29.3451 327.032 29.7065 327.779 30.4292C328.525 31.1519 328.899 32.0811 328.899 33.2167C328.899 34.3753 328.519 35.316 327.761 36.0387C327.015 36.7614 326.015 37.1227 324.763 37.1227L321.076 37.1227L321.076 40.8567L319.818 40.8567L319.818 29.3451L324.867 29.3451ZM321.076 36.0215L324.643 36.0215C325.527 36.0215 326.239 35.7634 326.779 35.2472C327.331 34.7195 327.606 34.0484 327.606 33.2339C327.606 32.4195 327.342 31.7541 326.814 31.2379C326.285 30.7217 325.59 30.4636 324.729 30.4636L321.076 30.4636L321.076 36.0215Z" fill="#680606"/>
<path d="M346.723 40.8567L345.344 40.8567L344.155 37.811L338.469 37.811L337.263 40.8567L335.885 40.8567L340.675 29.3451L342.019 29.3451L346.723 40.8567ZM343.742 36.7098L341.364 30.584L338.883 36.7098L343.742 36.7098Z" fill="#680606"/>
<path d="M364.145 29.3451L364.145 39.7382L365.937 39.7382L365.937 43.2485L364.679 43.2485L364.679 40.8567L355.461 40.8567L355.461 29.3451L356.736 29.3451L356.736 39.7382L362.853 39.7382L362.853 29.3451L364.145 29.3451Z" fill="#680606"/>
<path d="M376.029 38.8435L383.197 29.3451L384.403 29.3451L384.403 40.8567L383.162 40.8567L383.162 31.3067L375.943 40.8567L374.788 40.8567L374.788 29.3451L376.029 29.3451L376.029 38.8435Z" fill="#680606"/>
<path d="M402.655 29.3451L402.655 40.8567L401.432 40.8567L401.432 36.7614L398.847 36.7614L395.091 40.8567L393.54 40.8567L397.365 36.7614C396.274 36.704 395.384 36.3427 394.695 35.6773C394.005 35.0005 393.661 34.1287 393.661 33.0619C393.661 31.9835 394.04 31.0945 394.798 30.3948C395.556 29.695 396.521 29.3451 397.693 29.3451L402.655 29.3451ZM397.951 35.7634L401.432 35.7634L401.432 30.4464L397.865 30.4464C397.003 30.4464 396.297 30.6987 395.746 31.2035C395.206 31.7082 394.936 32.3506 394.936 33.1307C394.936 33.9452 395.211 34.5876 395.763 35.0579C396.314 35.5282 397.044 35.7634 397.951 35.7634Z" fill="#680606"/>
<path fill-rule="evenodd" clip-rule="evenodd" d="M34.4588 73.1313L379.074 73.1313L379.074 75.2822L34.4588 75.2822L34.4588 73.1313Z" fill="#CACACA"/>
<path fill-rule="evenodd" clip-rule="evenodd" d="M34.4588 98.9389L379.074 98.939L379.074 101.09L34.4588 101.09L34.4588 98.9389Z" fill="#CACACA"/>
<path fill-rule="evenodd" clip-rule="evenodd" d="M34.4588 120.452L379.074 120.452L379.074 122.603L34.4588 122.603L34.4588 120.452Z" fill="#CACACA"/>
<path fill-rule="evenodd" clip-rule="evenodd" d="M34.4588 144.109L379.074 144.109L379.074 146.26L34.4588 146.26L34.4588 144.109Z" fill="#CACACA"/>
<path fill-rule="evenodd" clip-rule="evenodd" d="M34.4588 191.429L379.074 191.429L379.074 193.58L34.4588 193.58L34.4588 191.429Z" fill="#CACACA"/>
<path fill-rule="evenodd" clip-rule="evenodd" d="M34.4588 215.086L379.074 215.086L379.074 217.237L34.4588 217.237L34.4588 215.086Z" fill="#CACACA"/>
<path fill-rule="evenodd" clip-rule="evenodd" d="M34.4588 240.899L379.074 240.899L379.074 243.05L34.4588 243.05L34.4588 240.899Z" fill="#CACACA"/>
<path d="M416.5 86.9648C416.5 88.0431 416.161 88.9264 415.483 89.6147C414.817 90.3144 413.961 90.6643 412.916 90.6643C411.802 90.6643 410.877 90.2685 410.142 89.477C409.406 88.6855 409.039 87.6817 409.039 86.4657C409.039 85.376 409.343 84.441 409.952 83.661C410.561 82.8924 411.382 82.4221 412.416 82.25L412.675 83.4201C411.905 83.5463 411.285 83.8904 410.814 84.4525C410.354 85.0261 410.124 85.7029 410.124 86.483C410.124 87.2974 410.394 87.9857 410.934 88.5478C411.474 89.1099 412.146 89.391 412.95 89.391C413.72 89.391 414.363 89.1271 414.88 88.5994C415.397 88.0717 415.655 87.3949 415.655 86.569C415.655 85.8348 415.431 85.1465 414.983 84.5041L415.742 83.9535L419.636 88.479L419.636 82.9899L420.739 82.9899L420.739 90.062L419.722 90.062L416.431 86.2937C416.477 86.569 416.5 86.7927 416.5 86.9648Z" fill="black"/>
<path d="M412.83 100.638L410.331 97.8335L410.331 103.976L409.211 103.976L409.211 96.0611L410.211 96.0611L413.846 99.9844C413.915 100.053 414.093 100.254 414.38 100.587C414.679 100.919 414.903 101.154 415.052 101.292C415.202 101.441 415.414 101.625 415.69 101.843C415.966 102.072 416.236 102.233 416.5 102.325C416.775 102.428 417.063 102.479 417.361 102.479C418.074 102.479 418.665 102.233 419.136 101.739C419.607 101.258 419.843 100.644 419.843 99.8983C419.843 99.1527 419.584 98.5332 419.067 98.04C418.55 97.5582 417.878 97.2886 417.051 97.2312L417.206 96.0439C418.332 96.1013 419.234 96.4913 419.911 97.214C420.601 97.9482 420.945 98.8602 420.945 99.95C420.945 101.063 420.606 101.969 419.929 102.669C419.262 103.38 418.43 103.736 417.43 103.736C417.235 103.736 417.034 103.713 416.827 103.667C416.632 103.632 416.448 103.586 416.276 103.529C416.115 103.483 415.937 103.403 415.742 103.288C415.546 103.173 415.38 103.076 415.242 102.996C415.116 102.927 414.955 102.806 414.759 102.634C414.564 102.462 414.421 102.336 414.329 102.256C414.237 102.175 414.093 102.032 413.898 101.826C413.714 101.631 413.588 101.499 413.519 101.43C413.461 101.361 413.341 101.218 413.157 101C412.973 100.793 412.864 100.673 412.83 100.638Z" fill="black"/>
<path d="M419.808 116.838L420.756 120.227L420.756 121.105L409.228 121.105L409.228 119.832L419.498 119.832L418.688 116.838L419.808 116.838Z" fill="black"/>
<path d="M412.83 132.138L410.331 129.333L410.331 135.476L409.211 135.476L409.211 127.561L410.211 127.561L413.846 131.484C413.915 131.553 414.093 131.754 414.38 132.086C414.679 132.419 414.903 132.654 415.052 132.792C415.202 132.941 415.414 133.125 415.69 133.343C415.966 133.572 416.236 133.733 416.5 133.824C416.775 133.928 417.063 133.979 417.361 133.979C418.074 133.979 418.665 133.733 419.136 133.239C419.607 132.758 419.843 132.144 419.843 131.398C419.843 130.653 419.584 130.033 419.067 129.54C418.55 129.058 417.878 128.788 417.051 128.731L417.206 127.544C418.332 127.601 419.234 127.991 419.911 128.714C420.601 129.448 420.945 130.36 420.945 131.45C420.945 132.562 420.606 133.469 419.929 134.168C419.262 134.88 418.43 135.235 417.43 135.235C417.235 135.235 417.034 135.212 416.827 135.167C416.632 135.132 416.448 135.086 416.276 135.029C416.115 134.983 415.937 134.903 415.742 134.788C415.546 134.673 415.38 134.576 415.242 134.495C415.116 134.427 414.955 134.306 414.759 134.134C414.564 133.962 414.421 133.836 414.329 133.756C414.237 133.675 414.093 133.532 413.898 133.325C413.714 133.13 413.588 132.998 413.519 132.93C413.461 132.861 413.341 132.717 413.157 132.499C412.973 132.293 412.864 132.172 412.83 132.138Z" fill="black"/>
<path d="M419.808 163.949L420.756 167.339L420.756 168.216L409.228 168.216L409.228 166.943L419.498 166.943L418.688 163.949L419.808 163.949Z" fill="black"/>
<path d="M415.311 181.28C415.093 182.048 414.719 182.651 414.191 183.086C413.674 183.534 413.077 183.758 412.399 183.758C411.411 183.758 410.601 183.339 409.969 182.501C409.349 181.664 409.039 180.574 409.039 179.232C409.039 177.901 409.349 176.812 409.969 175.963C410.59 175.125 411.388 174.707 412.364 174.707C413.065 174.707 413.674 174.925 414.191 175.36C414.708 175.808 415.075 176.422 415.294 177.202C415.5 176.582 415.828 176.083 416.276 175.705C416.735 175.338 417.264 175.154 417.861 175.154C418.746 175.154 419.481 175.538 420.067 176.307C420.652 177.075 420.945 178.045 420.945 179.215C420.945 180.396 420.652 181.372 420.067 182.14C419.481 182.92 418.746 183.31 417.861 183.31C417.275 183.31 416.752 183.127 416.293 182.76C415.845 182.392 415.518 181.899 415.311 181.28ZM419.308 177.184C418.895 176.645 418.384 176.376 417.775 176.376C417.166 176.376 416.661 176.64 416.259 177.167C415.856 177.695 415.655 178.36 415.655 179.163C415.655 179.989 415.862 180.683 416.276 181.245C416.689 181.807 417.2 182.088 417.809 182.088C418.418 182.088 418.924 181.813 419.326 181.263C419.728 180.723 419.929 180.047 419.929 179.232C419.929 178.418 419.722 177.735 419.308 177.184ZM410.09 179.232C410.09 180.15 410.308 180.907 410.745 181.503C411.193 182.1 411.767 182.398 412.468 182.398C413.146 182.398 413.697 182.1 414.122 181.503C414.558 180.918 414.777 180.167 414.777 179.249C414.777 178.32 414.558 177.557 414.122 176.961C413.685 176.364 413.123 176.066 412.433 176.066C411.756 176.066 411.193 176.359 410.745 176.944C410.308 177.54 410.09 178.303 410.09 179.232Z" fill="black"/>
<path d="M420.945 193.309C420.945 194.536 420.555 195.551 419.774 196.354C419.004 197.169 418.045 197.576 416.896 197.576C416.391 197.576 415.874 197.473 415.345 197.266C414.817 197.071 414.426 196.888 414.174 196.716C413.921 196.544 413.571 196.291 413.123 195.959L409.228 193.016L409.228 191.554L413.467 194.771C413.214 194.255 413.088 193.687 413.088 193.068C413.088 191.932 413.456 190.98 414.191 190.211C414.926 189.454 415.845 189.076 416.948 189.076C418.096 189.076 419.05 189.477 419.808 190.28C420.566 191.095 420.945 192.104 420.945 193.309ZM414.036 193.343C414.036 194.181 414.306 194.88 414.846 195.442C415.397 196.005 416.092 196.286 416.931 196.286C417.769 196.286 418.47 195.999 419.033 195.425C419.596 194.863 419.877 194.158 419.877 193.309C419.877 192.483 419.601 191.777 419.05 191.192C418.499 190.619 417.804 190.332 416.965 190.332C416.126 190.332 415.426 190.619 414.863 191.192C414.311 191.777 414.036 192.494 414.036 193.343Z" fill="black"/>
<path d="M413.243 209.69L413.243 211.256L412.158 211.256L412.158 209.69L409.228 209.69L409.228 208.434L412.158 208.434L412.158 202.187L413.157 202.187L420.756 208.055L420.756 209.69L413.243 209.69ZM419.619 208.434L413.243 203.65L413.243 208.434L419.619 208.434Z" fill="black"/>
<path d="M412.83 221.016L410.331 218.212L410.331 224.354L409.211 224.354L409.211 216.439L410.211 216.439L413.846 220.362C413.915 220.431 414.093 220.632 414.38 220.965C414.679 221.297 414.903 221.532 415.052 221.67C415.202 221.819 415.414 222.003 415.69 222.221C415.966 222.45 416.236 222.611 416.5 222.703C416.775 222.806 417.063 222.857 417.361 222.857C418.074 222.857 418.665 222.611 419.136 222.118C419.607 221.636 419.843 221.022 419.843 220.276C419.843 219.531 419.584 218.911 419.067 218.418C418.55 217.936 417.878 217.667 417.051 217.609L417.206 216.422C418.332 216.479 419.234 216.869 419.911 217.592C420.601 218.326 420.945 219.238 420.945 220.328C420.945 221.441 420.606 222.347 419.929 223.047C419.262 223.758 418.43 224.114 417.43 224.114C417.235 224.114 417.034 224.091 416.827 224.045C416.632 224.01 416.448 223.964 416.276 223.907C416.115 223.861 415.937 223.781 415.742 223.666C415.546 223.551 415.38 223.454 415.242 223.374C415.116 223.305 414.955 223.184 414.759 223.012C414.564 222.84 414.421 222.714 414.329 222.634C414.237 222.553 414.093 222.41 413.898 222.204C413.714 222.009 413.588 221.877 413.519 221.808C413.461 221.739 413.341 221.596 413.157 221.378C412.973 221.171 412.864 221.051 412.83 221.016Z" fill="black"/>
<path d="M419.808 229.41L420.756 232.8L420.756 233.677L409.228 233.677L409.228 232.404L419.498 232.404L418.688 229.41L419.808 229.41Z" fill="black"/>
<path d="M416.5 364.421C416.5 365.499 416.161 366.382 415.483 367.071C414.817 367.77 413.961 368.12 412.916 368.12C411.802 368.12 410.877 367.725 410.142 366.933C409.406 366.142 409.039 365.138 409.039 363.922C409.039 362.832 409.343 361.897 409.952 361.117C410.561 360.348 411.382 359.878 412.416 359.706L412.675 360.876C411.905 361.002 411.285 361.346 410.814 361.909C410.354 362.482 410.124 363.159 410.124 363.939C410.124 364.753 410.394 365.442 410.934 366.004C411.474 366.566 412.146 366.847 412.95 366.847C413.72 366.847 414.363 366.583 414.88 366.055C415.397 365.528 415.655 364.851 415.655 364.025C415.655 363.291 415.431 362.603 414.983 361.96L415.742 361.41L419.636 365.935L419.636 360.446L420.739 360.446L420.739 367.518L419.722 367.518L416.431 363.75C416.477 364.025 416.5 364.249 416.5 364.421Z" fill="black"/>
<path d="M412.83 378.094L410.331 375.29L410.331 381.432L409.211 381.432L409.211 373.517L410.211 373.517L413.846 377.44C413.915 377.509 414.093 377.71 414.38 378.043C414.679 378.375 414.903 378.611 415.052 378.748C415.202 378.897 415.414 379.081 415.69 379.299C415.966 379.528 416.236 379.689 416.5 379.781C416.775 379.884 417.063 379.935 417.361 379.935C418.074 379.935 418.665 379.689 419.136 379.196C419.607 378.714 419.843 378.1 419.843 377.354C419.843 376.609 419.584 375.989 419.067 375.496C418.55 375.014 417.878 374.745 417.051 374.687L417.206 373.5C418.332 373.557 419.234 373.947 419.911 374.67C420.601 375.404 420.945 376.316 420.945 377.406C420.945 378.519 420.606 379.425 419.929 380.125C419.262 380.836 418.43 381.192 417.43 381.192C417.235 381.192 417.034 381.169 416.827 381.123C416.632 381.088 416.448 381.042 416.276 380.985C416.115 380.939 415.937 380.859 415.742 380.744C415.546 380.629 415.38 380.532 415.242 380.452C415.116 380.383 414.955 380.262 414.759 380.09C414.564 379.918 414.421 379.792 414.329 379.712C414.237 379.631 414.093 379.488 413.898 379.282C413.714 379.087 413.588 378.955 413.519 378.886C413.461 378.817 413.341 378.674 413.157 378.456C412.973 378.249 412.864 378.129 412.83 378.094Z" fill="black"/>
<path d="M419.808 394.294L420.756 397.684L420.756 398.561L409.228 398.561L409.228 397.288L419.498 397.288L418.688 394.294L419.808 394.294Z" fill="black"/>
<path d="M412.83 409.594L410.331 406.789L410.331 412.932L409.211 412.932L409.211 405.017L410.211 405.017L413.846 408.94C413.915 409.009 414.093 409.21 414.38 409.542C414.679 409.875 414.903 410.11 415.052 410.248C415.202 410.397 415.414 410.581 415.69 410.799C415.966 411.028 416.236 411.189 416.5 411.28C416.775 411.384 417.063 411.435 417.361 411.435C418.074 411.435 418.665 411.189 419.136 410.695C419.607 410.214 419.843 409.6 419.843 408.854C419.843 408.109 419.584 407.489 419.067 406.996C418.55 406.514 417.878 406.244 417.051 406.187L417.206 405C418.332 405.057 419.234 405.447 419.911 406.17C420.601 406.904 420.945 407.816 420.945 408.906C420.945 410.019 420.606 410.925 419.929 411.625C419.262 412.336 418.43 412.691 417.43 412.691C417.235 412.691 417.034 412.668 416.827 412.623C416.632 412.588 416.448 412.542 416.276 412.485C416.115 412.439 415.937 412.359 415.742 412.244C415.546 412.129 415.38 412.032 415.242 411.951C415.116 411.883 414.955 411.762 414.759 411.59C414.564 411.418 414.421 411.292 414.329 411.212C414.237 411.131 414.093 410.988 413.898 410.781C413.714 410.586 413.588 410.454 413.519 410.386C413.461 410.317 413.341 410.173 413.157 409.955C412.973 409.749 412.864 409.629 412.83 409.594Z" fill="black"/>
<path d="M419.808 441.405L420.756 444.795L420.756 445.672L409.228 445.672L409.228 444.399L419.498 444.399L418.688 441.405L419.808 441.405Z" fill="black"/>
<path d="M415.311 458.736C415.093 459.504 414.719 460.107 414.191 460.543C413.674 460.99 413.077 461.214 412.399 461.214C411.411 461.214 410.601 460.795 409.969 459.958C409.349 459.12 409.039 458.03 409.039 456.688C409.039 455.357 409.349 454.268 409.969 453.419C410.59 452.581 411.388 452.163 412.364 452.163C413.065 452.163 413.674 452.381 414.191 452.817C414.708 453.264 415.075 453.878 415.294 454.658C415.5 454.038 415.828 453.539 416.276 453.161C416.735 452.794 417.264 452.61 417.861 452.61C418.746 452.61 419.481 452.994 420.067 453.763C420.652 454.532 420.945 455.501 420.945 456.671C420.945 457.853 420.652 458.828 420.067 459.596C419.481 460.376 418.746 460.766 417.861 460.766C417.275 460.766 416.752 460.583 416.293 460.216C415.845 459.849 415.518 459.355 415.311 458.736ZM419.308 454.641C418.895 454.101 418.384 453.832 417.775 453.832C417.166 453.832 416.661 454.096 416.259 454.623C415.856 455.151 415.655 455.816 415.655 456.619C415.655 457.445 415.862 458.139 416.276 458.701C416.689 459.263 417.2 459.545 417.809 459.545C418.418 459.545 418.924 459.269 419.326 458.719C419.728 458.179 419.929 457.503 419.929 456.688C419.929 455.874 419.722 455.191 419.308 454.641ZM410.09 456.688C410.09 457.606 410.308 458.363 410.745 458.959C411.193 459.556 411.767 459.854 412.468 459.854C413.146 459.854 413.697 459.556 414.122 458.959C414.558 458.374 414.777 457.623 414.777 456.705C414.777 455.776 414.558 455.013 414.122 454.417C413.685 453.82 413.123 453.522 412.433 453.522C411.756 453.522 411.193 453.815 410.745 454.4C410.308 454.996 410.09 455.759 410.09 456.688Z" fill="black"/>
<path d="M420.945 470.765C420.945 471.992 420.555 473.007 419.774 473.81C419.004 474.625 418.045 475.032 416.896 475.032C416.391 475.032 415.874 474.929 415.345 474.722C414.817 474.527 414.426 474.344 414.174 474.172C413.921 474 413.571 473.747 413.123 473.415L409.228 470.472L409.228 469.01L413.467 472.227C413.214 471.711 413.088 471.143 413.088 470.524C413.088 469.388 413.456 468.436 414.191 467.668C414.926 466.91 415.845 466.532 416.948 466.532C418.096 466.532 419.05 466.933 419.808 467.736C420.566 468.551 420.945 469.56 420.945 470.765ZM414.036 470.799C414.036 471.637 414.306 472.336 414.846 472.898C415.397 473.461 416.092 473.742 416.931 473.742C417.769 473.742 418.47 473.455 419.033 472.881C419.596 472.319 419.877 471.614 419.877 470.765C419.877 469.939 419.601 469.233 419.05 468.648C418.499 468.075 417.804 467.788 416.965 467.788C416.126 467.788 415.426 468.075 414.863 468.648C414.311 469.233 414.036 469.95 414.036 470.799Z" fill="black"/>
<path d="M413.243 487.146L413.243 488.712L412.158 488.712L412.158 487.146L409.228 487.146L409.228 485.89L412.158 485.89L412.158 479.644L413.157 479.644L420.756 485.511L420.756 487.146L413.243 487.146ZM419.619 485.89L413.243 481.106L413.243 485.89L419.619 485.89Z" fill="black"/>
<path d="M412.83 498.472L410.331 495.668L410.331 501.811L409.211 501.811L409.211 493.895L410.211 493.895L413.846 497.818C413.915 497.887 414.093 498.088 414.38 498.421C414.679 498.753 414.903 498.989 415.052 499.126C415.202 499.275 415.414 499.459 415.69 499.677C415.966 499.906 416.236 500.067 416.5 500.159C416.775 500.262 417.063 500.313 417.361 500.313C418.074 500.313 418.665 500.067 419.136 499.574C419.607 499.092 419.843 498.478 419.843 497.732C419.843 496.987 419.584 496.367 419.067 495.874C418.55 495.392 417.878 495.123 417.051 495.065L417.206 493.878C418.332 493.935 419.234 494.325 419.911 495.048C420.601 495.782 420.945 496.694 420.945 497.784C420.945 498.897 420.606 499.803 419.929 500.503C419.262 501.214 418.43 501.57 417.43 501.57C417.235 501.57 417.034 501.547 416.827 501.501C416.632 501.466 416.448 501.42 416.276 501.363C416.115 501.317 415.937 501.237 415.742 501.122C415.546 501.008 415.38 500.91 415.242 500.83C415.116 500.761 414.955 500.64 414.759 500.468C414.564 500.296 414.421 500.17 414.329 500.09C414.237 500.009 414.093 499.866 413.898 499.66C413.714 499.465 413.588 499.333 413.519 499.264C413.461 499.195 413.341 499.052 413.157 498.834C412.973 498.627 412.864 498.507 412.83 498.472Z" fill="black"/>
<path d="M419.808 506.866L420.756 510.256L420.756 511.133L409.228 511.133L409.228 509.86L419.498 509.86L418.688 506.866L419.808 506.866Z" fill="black"/>
<path fill-rule="evenodd" clip-rule="evenodd" d="M445.846 296.819L448 296.819L448 298.97L445.846 298.97L445.846 296.819ZM437.231 296.819L441.538 296.819L441.538 298.97L437.231 298.97L437.231 296.819ZM428.615 296.819L432.923 296.819L432.923 298.97L428.615 298.97L428.615 296.819ZM420 296.819L424.308 296.819L424.308 298.97L420 298.97L420 296.819ZM411.385 296.819L415.692 296.819L415.692 298.97L411.385 298.97L411.385 296.819ZM402.769 296.819L407.077 296.819L407.077 298.97L402.769 298.97L402.769 296.819ZM394.154 296.819L398.462 296.819L398.462 298.97L394.154 298.97L394.154 296.819ZM385.538 296.819L389.846 296.819L389.846 298.97L385.538 298.97L385.538 296.819ZM376.923 296.819L381.231 296.819L381.231 298.97L376.923 298.97L376.923 296.819ZM368.308 296.819L372.615 296.819L372.615 298.97L368.308 298.97L368.308 296.819ZM359.692 296.819L364 296.819L364 298.97L359.692 298.97L359.692 296.819ZM351.077 296.819L355.385 296.819L355.385 298.97L351.077 298.97L351.077 296.819ZM342.462 296.819L346.769 296.819L346.769 298.97L342.462 298.97L342.462 296.819ZM333.846 296.819L338.154 296.819L338.154 298.97L333.846 298.97L333.846 296.819ZM325.231 296.819L329.538 296.819L329.538 298.97L325.231 298.97L325.231 296.819ZM316.615 296.819L320.923 296.819L320.923 298.97L316.615 298.97L316.615 296.819ZM308 296.819L312.308 296.819L312.308 298.97L308 298.97L308 296.819ZM299.385 296.819L303.692 296.819L303.692 298.97L299.385 298.97L299.385 296.819ZM290.769 296.819L295.077 296.819L295.077 298.97L290.769 298.97L290.769 296.819ZM282.154 296.819L286.462 296.819L286.462 298.97L282.154 298.97L282.154 296.819ZM273.538 296.819L277.846 296.819L277.846 298.97L273.538 298.97L273.538 296.819ZM264.923 296.819L269.231 296.819L269.231 298.97L264.923 298.97L264.923 296.819ZM256.308 296.819L260.615 296.819L260.615 298.97L256.308 298.97L256.308 296.819ZM247.692 296.819L252 296.819L252 298.97L247.692 298.97L247.692 296.819ZM239.077 296.819L243.385 296.819L243.385 298.97L239.077 298.97L239.077 296.819ZM230.462 296.819L234.769 296.819L234.769 298.97L230.462 298.97L230.462 296.819ZM221.846 296.819L226.154 296.819L226.154 298.97L221.846 298.97L221.846 296.819ZM213.231 296.819L217.538 296.819L217.538 298.97L213.231 298.97L213.231 296.819ZM204.615 296.819L208.923 296.819L208.923 298.97L204.615 298.97L204.615 296.819ZM196 296.819L200.308 296.819L200.308 298.97L196 298.97L196 296.819ZM187.385 296.819L191.692 296.819L191.692 298.97L187.385 298.97L187.385 296.819ZM178.769 296.819L183.077 296.819L183.077 298.97L178.769 298.97L178.769 296.819ZM170.154 296.819L174.462 296.819L174.462 298.97L170.154 298.97L170.154 296.819ZM161.538 296.819L165.846 296.819L165.846 298.97L161.538 298.97L161.538 296.819ZM152.923 296.819L157.231 296.819L157.231 298.97L152.923 298.97L152.923 296.819ZM144.308 296.819L148.615 296.819L148.615 298.97L144.308 298.97L144.308 296.819ZM135.692 296.819L140 296.819L140 298.97L135.692 298.97L135.692 296.819ZM127.077 296.819L131.385 296.819L131.385 298.97L127.077 298.97L127.077 296.819ZM118.462 296.819L122.769 296.819L122.769 298.97L118.462 298.97L118.462 296.819ZM109.846 296.819L114.154 296.819L114.154 298.97L109.846 298.97L109.846 296.819ZM101.231 296.819L105.538 296.819L105.538 298.97L101.231 298.97L101.231 296.819ZM92.6154 296.819L96.9231 296.819L96.9231 298.97L92.6154 298.97L92.6154 296.819ZM84 296.819L88.3077 296.819L88.3077 298.97L84 298.97L84 296.819ZM75.3846 296.819L79.6923 296.819L79.6923 298.97L75.3846 298.97L75.3846 296.819ZM66.7692 296.819L71.0769 296.819L71.0769 298.97L66.7692 298.97L66.7692 296.819ZM58.1538 296.819L62.4615 296.819L62.4615 298.97L58.1538 298.97L58.1538 296.819ZM49.5385 296.819L53.8461 296.819L53.8461 298.97L49.5385 298.97L49.5385 296.819ZM40.9231 296.819L45.2307 296.819L45.2307 298.97L40.9231 298.97L40.9231 296.819ZM32.3077 296.819L36.6154 296.819L36.6154 298.97L32.3077 298.97L32.3077 296.819ZM23.6923 296.819L28 296.819L28 298.97L23.6923 298.97L23.6923 296.819ZM15.0769 296.819L19.3846 296.819L19.3846 298.97L15.0769 298.97L15.0769 296.819ZM6.46152 296.819L10.7692 296.819L10.7692 298.97L6.46152 298.97L6.46152 296.819ZM-3.05177e-05 296.819L2.15381 296.819L2.15381 298.97L-3.05176e-05 298.97L-3.05177e-05 296.819Z" fill="#FFB5B5"/>
<path fill-rule="evenodd" clip-rule="evenodd" d="M445.846 301.124L448 301.124L448 303.275L445.846 303.275L445.846 301.124ZM437.231 301.124L441.538 301.124L441.538 303.275L437.231 303.275L437.231 301.124ZM428.615 301.124L432.923 301.124L432.923 303.275L428.615 303.275L428.615 301.124ZM420 301.124L424.308 301.124L424.308 303.275L420 303.275L420 301.124ZM411.385 301.124L415.692 301.124L415.692 303.275L411.385 303.275L411.385 301.124ZM402.769 301.124L407.077 301.124L407.077 303.275L402.769 303.275L402.769 301.124ZM394.154 301.124L398.462 301.124L398.462 303.275L394.154 303.275L394.154 301.124ZM385.538 301.124L389.846 301.124L389.846 303.275L385.538 303.275L385.538 301.124ZM376.923 301.124L381.231 301.124L381.231 303.275L376.923 303.275L376.923 301.124ZM368.308 301.124L372.615 301.124L372.615 303.275L368.308 303.275L368.308 301.124ZM359.692 301.124L364 301.124L364 303.275L359.692 303.275L359.692 301.124ZM351.077 301.124L355.385 301.124L355.385 303.275L351.077 303.275L351.077 301.124ZM342.462 301.124L346.769 301.124L346.769 303.275L342.462 303.275L342.462 301.124ZM333.846 301.124L338.154 301.124L338.154 303.275L333.846 303.275L333.846 301.124ZM325.231 301.124L329.538 301.124L329.538 303.275L325.231 303.275L325.231 301.124ZM316.615 301.124L320.923 301.124L320.923 303.275L316.615 303.275L316.615 301.124ZM308 301.124L312.308 301.124L312.308 303.275L308 303.275L308 301.124ZM299.385 301.124L303.692 301.124L303.692 303.275L299.385 303.275L299.385 301.124ZM290.769 301.124L295.077 301.124L295.077 303.275L290.769 303.275L290.769 301.124ZM282.154 301.124L286.462 301.124L286.462 303.275L282.154 303.275L282.154 301.124ZM273.538 301.124L277.846 301.124L277.846 303.275L273.538 303.275L273.538 301.124ZM264.923 301.124L269.231 301.124L269.231 303.275L264.923 303.275L264.923 301.124ZM256.308 301.124L260.615 301.124L260.615 303.275L256.308 303.275L256.308 301.124ZM247.692 301.124L252 301.124L252 303.275L247.692 303.275L247.692 301.124ZM239.077 301.124L243.385 301.124L243.385 303.275L239.077 303.275L239.077 301.124ZM230.462 301.124L234.769 301.124L234.769 303.275L230.462 303.275L230.462 301.124ZM221.846 301.124L226.154 301.124L226.154 303.275L221.846 303.275L221.846 301.124ZM213.231 301.124L217.538 301.124L217.538 303.275L213.231 303.275L213.231 301.124ZM204.615 301.124L208.923 301.124L208.923 303.275L204.615 303.275L204.615 301.124ZM196 301.124L200.308 301.124L200.308 303.275L196 303.275L196 301.124ZM187.385 301.124L191.692 301.124L191.692 303.275L187.385 303.275L187.385 301.124ZM178.769 301.124L183.077 301.124L183.077 303.275L178.769 303.275L178.769 301.124ZM170.154 301.124L174.462 301.124L174.462 303.275L170.154 303.275L170.154 301.124ZM161.538 301.124L165.846 301.124L165.846 303.275L161.538 303.275L161.538 301.124ZM152.923 301.124L157.231 301.124L157.231 303.275L152.923 303.275L152.923 301.124ZM144.308 301.124L148.615 301.124L148.615 303.275L144.308 303.275L144.308 301.124ZM135.692 301.124L140 301.124L140 303.275L135.692 303.275L135.692 301.124ZM127.077 301.124L131.385 301.124L131.385 303.275L127.077 303.275L127.077 301.124ZM118.462 301.124L122.769 301.124L122.769 303.275L118.462 303.275L118.462 301.124ZM109.846 301.124L114.154 301.124L114.154 303.275L109.846 303.275L109.846 301.124ZM101.231 301.124L105.538 301.124L105.538 303.275L101.231 303.275L101.231 301.124ZM92.6154 301.124L96.9231 301.124L96.9231 303.275L92.6154 303.275L92.6154 301.124ZM84 301.124L88.3077 301.124L88.3077 303.275L84 303.275L84 301.124ZM75.3846 301.124L79.6923 301.124L79.6923 303.275L75.3846 303.275L75.3846 301.124ZM66.7692 301.124L71.0769 301.124L71.0769 303.275L66.7692 303.275L66.7692 301.124ZM58.1538 301.124L62.4615 301.124L62.4615 303.275L58.1538 303.275L58.1538 301.124ZM49.5385 301.124L53.8461 301.124L53.8461 303.275L49.5385 303.275L49.5385 301.124ZM40.9231 301.124L45.2307 301.124L45.2307 303.275L40.9231 303.275L40.9231 301.124ZM32.3077 301.124L36.6154 301.124L36.6154 303.275L32.3077 303.275L32.3077 301.124ZM23.6923 301.124L28 301.124L28 303.275L23.6923 303.275L23.6923 301.124ZM15.0769 301.124L19.3846 301.124L19.3846 303.275L15.0769 303.275L15.0769 301.124ZM6.46152 301.124L10.7692 301.124L10.7692 303.275L6.46152 303.275L6.46152 301.124ZM-3.05177e-05 301.124L2.15381 301.124L2.15381 303.275L-3.05176e-05 303.275L-3.05177e-05 301.124Z" fill="#FFB5B5"/>
<path fill-rule="evenodd" clip-rule="evenodd" d="M445.846 305.423L448 305.423L448 307.574L445.846 307.574L445.846 305.423ZM437.231 305.423L441.538 305.423L441.538 307.574L437.231 307.574L437.231 305.423ZM428.615 305.423L432.923 305.423L432.923 307.574L428.615 307.574L428.615 305.423ZM420 305.423L424.308 305.423L424.308 307.574L420 307.574L420 305.423ZM411.385 305.423L415.692 305.423L415.692 307.574L411.385 307.574L411.385 305.423ZM402.769 305.423L407.077 305.423L407.077 307.574L402.769 307.574L402.769 305.423ZM394.154 305.423L398.462 305.423L398.462 307.574L394.154 307.574L394.154 305.423ZM385.538 305.423L389.846 305.423L389.846 307.574L385.538 307.574L385.538 305.423ZM376.923 305.423L381.231 305.423L381.231 307.574L376.923 307.574L376.923 305.423ZM368.308 305.423L372.615 305.423L372.615 307.574L368.308 307.574L368.308 305.423ZM359.692 305.423L364 305.423L364 307.574L359.692 307.574L359.692 305.423ZM351.077 305.423L355.385 305.423L355.385 307.574L351.077 307.574L351.077 305.423ZM342.462 305.423L346.769 305.423L346.769 307.574L342.462 307.574L342.462 305.423ZM333.846 305.423L338.154 305.423L338.154 307.574L333.846 307.574L333.846 305.423ZM325.231 305.423L329.538 305.423L329.538 307.574L325.231 307.574L325.231 305.423ZM316.615 305.423L320.923 305.423L320.923 307.574L316.615 307.574L316.615 305.423ZM308 305.423L312.308 305.423L312.308 307.574L308 307.574L308 305.423ZM299.385 305.423L303.692 305.423L303.692 307.574L299.385 307.574L299.385 305.423ZM290.769 305.423L295.077 305.423L295.077 307.574L290.769 307.574L290.769 305.423ZM282.154 305.423L286.462 305.423L286.462 307.574L282.154 307.574L282.154 305.423ZM273.538 305.423L277.846 305.423L277.846 307.574L273.538 307.574L273.538 305.423ZM264.923 305.423L269.231 305.423L269.231 307.574L264.923 307.574L264.923 305.423ZM256.308 305.423L260.615 305.423L260.615 307.574L256.308 307.574L256.308 305.423ZM247.692 305.423L252 305.423L252 307.574L247.692 307.574L247.692 305.423ZM239.077 305.423L243.385 305.423L243.385 307.574L239.077 307.574L239.077 305.423ZM230.462 305.423L234.769 305.423L234.769 307.574L230.462 307.574L230.462 305.423ZM221.846 305.423L226.154 305.423L226.154 307.574L221.846 307.574L221.846 305.423ZM213.231 305.423L217.538 305.423L217.538 307.574L213.231 307.574L213.231 305.423ZM204.615 305.423L208.923 305.423L208.923 307.574L204.615 307.574L204.615 305.423ZM196 305.423L200.308 305.423L200.308 307.574L196 307.574L196 305.423ZM187.385 305.423L191.692 305.423L191.692 307.574L187.385 307.574L187.385 305.423ZM178.769 305.423L183.077 305.423L183.077 307.574L178.769 307.574L178.769 305.423ZM170.154 305.423L174.462 305.423L174.462 307.574L170.154 307.574L170.154 305.423ZM161.538 305.423L165.846 305.423L165.846 307.574L161.538 307.574L161.538 305.423ZM152.923 305.423L157.231 305.423L157.231 307.574L152.923 307.574L152.923 305.423ZM144.308 305.423L148.615 305.423L148.615 307.574L144.308 307.574L144.308 305.423ZM135.692 305.423L140 305.423L140 307.574L135.692 307.574L135.692 305.423ZM127.077 305.423L131.385 305.423L131.385 307.574L127.077 307.574L127.077 305.423ZM118.462 305.423L122.769 305.423L122.769 307.574L118.462 307.574L118.462 305.423ZM109.846 305.423L114.154 305.423L114.154 307.574L109.846 307.574L109.846 305.423ZM101.231 305.423L105.538 305.423L105.538 307.574L101.231 307.574L101.231 305.423ZM92.6154 305.423L96.9231 305.423L96.9231 307.574L92.6154 307.574L92.6154 305.423ZM84 305.423L88.3077 305.423L88.3077 307.574L84 307.574L84 305.423ZM75.3846 305.423L79.6923 305.423L79.6923 307.574L75.3846 307.574L75.3846 305.423ZM66.7692 305.423L71.0769 305.423L71.0769 307.574L66.7692 307.574L66.7692 305.423ZM58.1538 305.423L62.4615 305.423L62.4615 307.574L58.1538 307.574L58.1538 305.423ZM49.5385 305.423L53.8461 305.423L53.8461 307.574L49.5385 307.574L49.5385 305.423ZM40.9231 305.423L45.2307 305.423L45.2307 307.574L40.9231 307.574L40.9231 305.423ZM32.3077 305.423L36.6154 305.423L36.6154 307.574L32.3077 307.574L32.3077 305.423ZM23.6923 305.423L28 305.423L28 307.574L23.6923 307.574L23.6923 305.423ZM15.0769 305.423L19.3846 305.423L19.3846 307.574L15.0769 307.574L15.0769 305.423ZM6.46152 305.423L10.7692 305.423L10.7692 307.574L6.46152 307.574L6.46152 305.423ZM-3.05177e-05 305.423L2.15381 305.423L2.15381 307.574L-3.05176e-05 307.574L-3.05177e-05 305.423Z" fill="#FFB5B5"/>
<path fill-rule="evenodd" clip-rule="evenodd" d="M445.846 309.734L448 309.734L448 311.885L445.846 311.885L445.846 309.734ZM437.231 309.734L441.538 309.734L441.538 311.885L437.231 311.885L437.231 309.734ZM428.615 309.734L432.923 309.734L432.923 311.885L428.615 311.885L428.615 309.734ZM420 309.734L424.308 309.734L424.308 311.885L420 311.885L420 309.734ZM411.385 309.734L415.692 309.734L415.692 311.885L411.385 311.885L411.385 309.734ZM402.769 309.734L407.077 309.734L407.077 311.885L402.769 311.885L402.769 309.734ZM394.154 309.734L398.462 309.734L398.462 311.885L394.154 311.885L394.154 309.734ZM385.538 309.734L389.846 309.734L389.846 311.885L385.538 311.885L385.538 309.734ZM376.923 309.734L381.231 309.734L381.231 311.885L376.923 311.885L376.923 309.734ZM368.308 309.734L372.615 309.734L372.615 311.885L368.308 311.885L368.308 309.734ZM359.692 309.734L364 309.734L364 311.885L359.692 311.885L359.692 309.734ZM351.077 309.734L355.385 309.734L355.385 311.885L351.077 311.885L351.077 309.734ZM342.462 309.734L346.769 309.734L346.769 311.885L342.462 311.885L342.462 309.734ZM333.846 309.734L338.154 309.734L338.154 311.885L333.846 311.885L333.846 309.734ZM325.231 309.734L329.538 309.734L329.538 311.885L325.231 311.885L325.231 309.734ZM316.615 309.734L320.923 309.734L320.923 311.885L316.615 311.885L316.615 309.734ZM308 309.734L312.308 309.734L312.308 311.885L308 311.885L308 309.734ZM299.385 309.734L303.692 309.734L303.692 311.885L299.385 311.885L299.385 309.734ZM290.769 309.734L295.077 309.734L295.077 311.885L290.769 311.885L290.769 309.734ZM282.154 309.734L286.462 309.734L286.462 311.885L282.154 311.885L282.154 309.734ZM273.538 309.734L277.846 309.734L277.846 311.885L273.538 311.885L273.538 309.734ZM264.923 309.734L269.231 309.734L269.231 311.885L264.923 311.885L264.923 309.734ZM256.308 309.734L260.615 309.734L260.615 311.885L256.308 311.885L256.308 309.734ZM247.692 309.734L252 309.734L252 311.885L247.692 311.885L247.692 309.734ZM239.077 309.734L243.385 309.734L243.385 311.885L239.077 311.885L239.077 309.734ZM230.462 309.734L234.769 309.734L234.769 311.885L230.462 311.885L230.462 309.734ZM221.846 309.734L226.154 309.734L226.154 311.885L221.846 311.885L221.846 309.734ZM213.231 309.734L217.538 309.734L217.538 311.885L213.231 311.885L213.231 309.734ZM204.615 309.734L208.923 309.734L208.923 311.885L204.615 311.885L204.615 309.734ZM196 309.734L200.308 309.734L200.308 311.885L196 311.885L196 309.734ZM187.385 309.734L191.692 309.734L191.692 311.885L187.385 311.885L187.385 309.734ZM178.769 309.734L183.077 309.734L183.077 311.885L178.769 311.885L178.769 309.734ZM170.154 309.734L174.462 309.734L174.462 311.885L170.154 311.885L170.154 309.734ZM161.538 309.734L165.846 309.734L165.846 311.885L161.538 311.885L161.538 309.734ZM152.923 309.734L157.231 309.734L157.231 311.885L152.923 311.885L152.923 309.734ZM144.308 309.734L148.615 309.734L148.615 311.885L144.308 311.885L144.308 309.734ZM135.692 309.734L140 309.734L140 311.885L135.692 311.885L135.692 309.734ZM127.077 309.734L131.385 309.734L131.385 311.885L127.077 311.885L127.077 309.734ZM118.462 309.734L122.769 309.734L122.769 311.885L118.462 311.885L118.462 309.734ZM109.846 309.734L114.154 309.734L114.154 311.885L109.846 311.885L109.846 309.734ZM101.231 309.734L105.538 309.734L105.538 311.885L101.231 311.885L101.231 309.734ZM92.6154 309.734L96.9231 309.734L96.9231 311.885L92.6154 311.885L92.6154 309.734ZM84 309.734L88.3077 309.734L88.3077 311.885L84 311.885L84 309.734ZM75.3846 309.734L79.6923 309.734L79.6923 311.885L75.3846 311.885L75.3846 309.734ZM66.7692 309.734L71.0769 309.734L71.0769 311.885L66.7692 311.885L66.7692 309.734ZM58.1538 309.734L62.4615 309.734L62.4615 311.885L58.1538 311.885L58.1538 309.734ZM49.5385 309.734L53.8461 309.734L53.8461 311.885L49.5385 311.885L49.5385 309.734ZM40.9231 309.734L45.2307 309.734L45.2307 311.885L40.9231 311.885L40.9231 309.734ZM32.3077 309.734L36.6154 309.734L36.6154 311.885L32.3077 311.885L32.3077 309.734ZM23.6923 309.734L28 309.734L28 311.885L23.6923 311.885L23.6923 309.734ZM15.0769 309.734L19.3846 309.734L19.3846 311.885L15.0769 311.885L15.0769 309.734ZM6.46152 309.734L10.7692 309.734L10.7692 311.885L6.46152 311.885L6.46152 309.734ZM-3.05177e-05 309.734L2.15381 309.734L2.15381 311.885L-3.05176e-05 311.885L-3.05177e-05 309.734Z" fill="#FFB5B5"/>
<path fill-rule="evenodd" clip-rule="evenodd" d="M155.074 363.501L379.074 363.501L379.074 365.652L155.074 365.652L155.074 363.501Z" fill="#CACACA"/>
<path fill-rule="evenodd" clip-rule="evenodd" d="M155.074 382.86L379.074 382.86L379.074 385.011L155.074 385.011L155.074 382.86Z" fill="#CACACA"/>
<path fill-rule="evenodd" clip-rule="evenodd" d="M155.074 404.368L379.074 404.368L379.074 406.519L155.074 406.519L155.074 404.368Z" fill="#CACACA"/>
<path fill-rule="evenodd" clip-rule="evenodd" d="M155.074 425.875L379.074 425.875L379.074 428.026L155.074 428.026L155.074 425.875Z" fill="#CACACA"/>
<path fill-rule="evenodd" clip-rule="evenodd" d="M155.074 445.234L379.074 445.234L379.074 447.385L155.074 447.385L155.074 445.234Z" fill="#CACACA"/>
<path fill-rule="evenodd" clip-rule="evenodd" d="M155.074 464.591L379.074 464.591L379.074 466.742L155.074 466.742L155.074 464.591Z" fill="#CACACA"/>
<path fill-rule="evenodd" clip-rule="evenodd" d="M155.074 488.254L379.074 488.254L379.074 490.405L155.074 490.405L155.074 488.254Z" fill="#CACACA"/>
<path fill-rule="evenodd" clip-rule="evenodd" d="M155.074 509.762L379.074 509.762L379.074 511.913L155.074 511.913L155.074 509.762Z" fill="#CACACA"/>
<path d="M137.844 359.198L137.844 514.062L34.4591 514.062L34.4591 359.198L137.844 359.198Z" fill="#C4C4C4"/>
<path d="M448 546.324L448 587.191C448 605.01 433.535 619.455 415.692 619.455L32.3077 619.455C14.4646 619.455 -3.30828e-05 605.01 -3.23039e-05 587.191L-3.05176e-05 546.324L448 546.324Z" fill="#DCEAEE"/>
</svg>
