<svg width="14" height="16" viewBox="0 0 14 16" fill="none" xmlns="http://www.w3.org/2000/svg">
<path d="M9.86877 5.33333C9.79944 5.33333 9.72691 5.36533 9.67837 5.4144L6.74611 8.34667C6.61438 8.4784 6.49864 8.5248 6.39944 8.52533C6.30131 8.52533 6.19358 8.48267 6.05704 8.34667L4.72744 7.01867C4.48531 6.76533 4.10078 7.15573 4.35091 7.39627L5.68051 8.72427C5.88958 8.93333 6.13544 9.06027 6.40051 9.05867C6.66451 9.05707 6.91998 8.92747 7.12264 8.7248L10.056 5.79147C10.2213 5.6288 10.1136 5.3328 9.86931 5.3328L9.86877 5.33333ZM6.78611 0.0266667C6.71571 0.0576 6.61011 0.124267 6.48638 0.2C6.36211 0.275733 6.11998 0.429333 5.88371 0.5584C5.41011 0.8144 4.81704 1.06773 4.26878 1.06773C3.68211 1.06773 3.24318 0.945067 2.83518 0.813333C2.42771 0.6816 2.04744 0.533333 1.60211 0.533333C1.18931 0.533333 0.788242 0.5984 0.478376 0.854933C0.167442 1.112 0.00210905 1.5552 0.00210905 2.13333V6.4C0.00210905 7.02933 -0.0992242 9.20907 1.10291 11.3323C1.81064 12.5813 3.03358 13.7296 4.18451 14.5813C4.76051 15.0069 5.31731 15.3573 5.78984 15.6043C6.26184 15.8512 6.61651 16 6.93544 16C7.25544 16 7.60904 15.8507 8.08104 15.6043C8.55358 15.3573 9.11038 15.0069 9.68638 14.5813C10.8373 13.7296 12.0597 12.5813 12.768 11.3323C13.9701 9.2096 13.8688 7.02933 13.8688 6.4V2.13333C13.8688 1.5552 13.7034 1.112 13.3925 0.854933C13.0832 0.598933 12.6816 0.533333 12.2688 0.533333C11.824 0.533333 11.4432 0.6816 11.0352 0.812267C10.6282 0.944 10.1888 1.06667 9.60211 1.06667C9.05278 1.06667 8.45651 0.813867 7.98344 0.557333C7.74664 0.429333 7.50878 0.284267 7.38078 0.198933C7.25118 0.1136 7.14451 0.0602667 7.08104 0.0256C7.00638 -0.00853334 6.86344 -0.00853334 6.78558 0.0256L6.78611 0.0266667ZM6.93544 0.581333C6.98451 0.581333 7.02771 0.608 7.09704 0.651733C7.25598 0.751467 7.47304 0.888533 7.72798 1.02667C8.23784 1.30293 8.90131 1.6 9.60211 1.6C10.2645 1.6 10.7754 1.456 11.1978 1.32107C11.6192 1.18507 11.9477 1.06667 12.2688 1.06667C12.6218 1.06667 12.8874 1.13067 13.0528 1.26667C13.2181 1.4032 13.3354 1.65067 13.3354 2.13333V6.4C13.3354 7.08107 13.4245 9.09067 12.3029 11.0693C11.6576 12.2096 10.4789 13.3307 9.36851 14.1531C8.81384 14.5637 8.27518 14.9013 7.83464 15.1323C7.39304 15.3632 7.01598 15.4667 6.93544 15.4667C6.85544 15.4667 6.47784 15.3632 6.03624 15.1323C5.59518 14.9013 5.05758 14.5643 4.50184 14.1531C3.39144 13.3317 2.21384 12.2096 1.56851 11.0693C0.445842 9.09067 0.535442 7.08107 0.535442 6.4V2.13333C0.535442 1.65067 0.652776 1.40267 0.818109 1.26667C0.983442 1.13067 1.24851 1.06667 1.60211 1.06667C1.92318 1.06667 2.25118 1.18507 2.67304 1.32107C3.09438 1.456 3.60638 1.6 4.26878 1.6C4.96904 1.6 5.62878 1.3024 6.13864 1.0256C6.39358 0.886933 6.61064 0.7504 6.76958 0.650667C6.83891 0.608 6.88584 0.579733 6.93491 0.579733L6.93544 0.581333Z" fill="#444444"/>
</svg>
