<svg width="72" height="72" viewBox="0 0 72 72" fill="none" xmlns="http://www.w3.org/2000/svg">
<path d="M59.9627 72H12.0373C8.84484 72 5.78309 70.7318 3.52565 68.4743C1.26821 66.2169 0 63.1552 0 59.9627V12.029C0.00219922 8.83797 1.27139 5.77837 3.52859 3.52273C5.78579 1.26708 8.84628 -7.57827e-07 12.0373 0H59.9627C63.1537 -7.57827e-07 66.2142 1.26708 68.4714 3.52273C70.7286 5.77837 71.9978 8.83797 72 12.029V59.9627C72 63.1552 70.7318 66.2169 68.4743 68.4743C66.2169 70.7318 63.1552 72 59.9627 72Z" fill="#164194"/>
<path d="M36 36V72H59.9613C63.1541 72 66.2162 70.7319 68.4739 68.4748C70.7316 66.2176 72 63.1562 72 59.9641V36H36Z" fill="#009FE3"/>
</svg>
