<svg width="32" height="32" viewBox="0 0 32 32" fill="none" xmlns="http://www.w3.org/2000/svg">
<g clip-path="url(#clip0_375_3076)">
<path fill-rule="evenodd" clip-rule="evenodd" d="M9.89613 28.8316L2.3 31.249L0 31.9809L3.23112 22.4372C2.6889 21.4405 2.2594 20.3847 1.95339 19.2913C1.58218 17.9645 1.39488 16.5933 1.39488 15.2157C1.39488 11.1618 3.00778 7.31864 5.88307 4.46649C8.76771 1.60505 12.6397 0.0195312 16.702 0.0195312C20.763 0.0195312 24.6329 1.60696 27.5151 4.4688C30.3891 7.32268 32 11.1668 32 15.2206C32 19.2737 30.3874 23.1165 27.513 25.9685C24.6294 28.8295 20.7587 30.4155 16.6974 30.4155C15.4089 30.4155 14.1253 30.2564 12.8768 29.937C11.8472 29.6736 10.848 29.3025 9.89609 28.8316L9.89613 28.8316Z" fill="#EEEEEE"/>
<path fill-rule="evenodd" clip-rule="evenodd" d="M30.7794 15.2204C30.7794 11.3601 29.2032 7.86495 26.6549 5.3346C24.107 2.8046 20.5879 1.23975 16.7017 1.23975C12.8122 1.23975 9.29145 2.80407 6.74228 5.3327C4.19199 7.86248 2.61501 11.357 2.61501 15.2155C2.61501 16.5107 2.79414 17.7676 3.12839 18.9622C3.46053 20.1491 3.94641 21.2728 4.5623 22.31L2.12255 29.5162L1.92969 30.0859L2.50274 29.9035L10.0067 27.5155C11.0002 28.0501 12.0632 28.4691 13.1791 28.7546C14.3033 29.0422 15.4817 29.1949 16.6972 29.1949C20.585 29.1949 24.1047 27.6305 26.6532 25.102C29.2027 22.5724 30.7794 19.0782 30.7794 15.2204L30.7794 15.2204Z" fill="#54CC61"/>
<path fill-rule="evenodd" clip-rule="evenodd" d="M14.4121 11.4042C14.3503 11.2797 13.9934 10.4179 13.6645 9.62353C13.4543 9.1157 13.2538 8.63142 13.2145 8.53775C12.8441 7.65462 12.4347 7.68125 12.1207 7.70164C12.1001 7.70297 12.0802 7.70428 12.0537 7.70428C11.9441 7.70428 11.8364 7.69746 11.7248 7.6904C11.5853 7.68154 11.4405 7.67236 11.3036 7.67236C11.1217 7.67236 10.8739 7.71011 10.6129 7.83226C10.4194 7.92283 10.2197 8.05923 10.037 8.25999C10.0104 8.28878 9.99027 8.30989 9.96847 8.3328C9.5337 8.78981 8.58594 9.78603 8.58594 11.6993C8.58594 13.7063 10.0332 15.6149 10.2459 15.8952L10.2451 15.8957L10.2471 15.8983L10.2495 15.9007C10.2578 15.9114 10.2885 15.9564 10.3339 16.0228C10.8684 16.8045 13.3256 20.3982 17.061 21.8572C20.4497 23.1795 21.0629 23.0311 21.6106 22.8986C21.7038 22.876 21.7949 22.8539 21.8934 22.8448C22.3369 22.8032 23.0625 22.4995 23.6731 22.0731C24.1796 21.7194 24.6218 21.2724 24.791 20.8018C24.9421 20.3809 25.0275 19.99 25.0671 19.6682C25.1246 19.2007 25.0791 18.8329 24.994 18.6908L24.9928 18.6896C24.8635 18.4766 24.6398 18.371 24.3043 18.2125C24.2451 18.1846 24.1818 18.1548 24.1211 18.1253L24.1213 18.1249C23.8899 18.0073 23.0894 17.6159 22.4051 17.2924C21.963 17.0834 21.5701 16.9038 21.4145 16.848C21.1957 16.7694 21.005 16.71 20.8005 16.733C20.5688 16.7592 20.3666 16.8785 20.1792 17.1624L20.1786 17.162C20.0845 17.3034 19.9187 17.5154 19.7374 17.7374C19.4504 18.0891 19.1079 18.4839 18.962 18.6497V18.6509C18.8997 18.7218 18.846 18.7605 18.7933 18.7668C18.7201 18.7757 18.6196 18.7457 18.4805 18.6773C18.3915 18.6328 18.3048 18.5954 18.1978 18.5492C17.6567 18.3157 16.6027 17.861 15.4015 16.7975C14.9718 16.4172 14.5937 16.0014 14.2779 15.6113C13.7668 14.98 13.4213 14.4175 13.2841 14.1806C13.1758 13.9948 13.2961 13.8743 13.4073 13.7632L13.4067 13.7625C13.5296 13.6398 13.6687 13.4726 13.8083 13.3049C13.8718 13.2285 13.9354 13.152 14.0128 13.0629L14.0139 13.0617C14.2022 12.8429 14.2802 12.6834 14.3856 12.4683C14.4039 12.4308 14.4231 12.3916 14.4424 12.353L14.4436 12.3519C14.5362 12.1652 14.5599 11.9876 14.5427 11.8213C14.5267 11.6664 14.4748 11.5283 14.4116 11.4045L14.4121 11.4042L14.4121 11.4042Z" fill="#FFFFFE"/>
</g>
<defs>
<clipPath id="clip0_375_3076">
<rect width="32" height="32" fill="white"/>
</clipPath>
</defs>
</svg>
